{"glyphs":{"0":{"ha":718,"x_min":81,"x_max":638,"o":"m 360 -12 q 202 31 264 -12 q 110 149 140 74 q 81 319 81 224 l 81 804 q 110 977 81 903 q 201 1093 139 1051 q 360 1135 263 1135 q 518 1093 457 1135 q 608 977 579 1051 q 638 804 638 903 l 638 319 q 608 147 638 222 q 517 30 578 72 q 360 -12 456 -12 m 360 110 q 440 140 413 110 q 477 219 467 171 q 488 318 488 267 l 488 806 q 478 908 488 860 q 441 985 468 956 q 360 1014 414 1014 q 278 985 306 1014 q 240 908 250 956 q 231 806 231 860 l 231 318 q 241 219 231 267 q 280 140 251 171 q 360 110 308 110 z "},"1":{"ha":550,"x_min":42,"x_max":386,"o":"m 238 0 l 238 931 q 206 922 236 929 q 139 908 176 915 q 72 896 101 901 q 42 890 43 890 l 42 1003 q 97 1018 65 1008 q 160 1042 128 1028 q 223 1076 193 1056 q 274 1125 253 1097 l 386 1125 l 386 0 l 238 0 z "},"2":{"ha":664,"x_min":57,"x_max":614,"o":"m 57 0 l 57 106 l 343 551 q 402 644 375 601 q 447 735 429 688 q 464 846 464 783 q 439 968 464 924 q 351 1013 414 1013 q 269 983 299 1013 q 229 907 240 954 q 218 806 218 860 l 218 768 l 69 768 l 69 807 q 97 981 69 908 q 184 1094 124 1054 q 344 1135 244 1135 q 547 1058 481 1135 q 614 844 614 981 q 597 718 614 772 q 551 617 579 664 q 490 519 524 569 l 232 125 l 588 125 l 588 0 l 57 0 z "},"3":{"ha":663,"x_min":56,"x_max":608,"o":"m 331 -12 q 178 22 239 -12 q 86 122 117 57 q 56 276 56 188 l 56 314 l 203 314 q 203 302 203 308 q 203 289 203 296 q 215 199 204 239 q 252 135 225 158 q 331 111 279 111 q 413 137 385 111 q 450 210 440 163 q 460 318 460 257 q 427 463 460 407 q 313 525 394 519 q 302 526 308 526 q 292 526 296 526 l 292 675 q 301 675 296 675 q 311 675 307 675 q 425 717 390 678 q 460 846 460 756 q 434 968 460 922 q 332 1014 408 1014 q 231 963 256 1014 q 203 833 206 913 q 203 822 203 828 q 203 810 203 815 l 56 810 l 56 847 q 86 1001 56 938 q 178 1100 117 1065 q 332 1135 240 1135 q 486 1100 425 1135 q 578 1001 547 1065 q 608 846 608 936 q 565 683 608 744 q 447 600 521 622 q 534 547 499 585 q 589 452 569 510 q 608 318 608 394 q 581 144 608 218 q 492 28 553 69 q 331 -12 431 -12 z "},"4":{"ha":671,"x_min":56,"x_max":650,"o":"m 382 0 l 382 301 l 56 301 l 56 457 l 349 1125 l 524 1125 l 524 433 l 650 433 l 650 301 l 524 301 l 524 0 l 382 0 m 199 433 l 382 433 l 382 944 l 199 433 z "},"5":{"ha":661,"x_min":65,"x_max":617,"o":"m 338 -11 q 176 28 236 -11 q 91 140 117 67 q 65 315 65 214 l 214 315 q 222 217 214 265 q 258 138 231 169 q 340 107 285 107 q 428 142 401 107 q 461 238 454 178 q 468 375 468 299 q 460 505 468 451 q 425 587 451 558 q 342 615 399 615 q 264 587 296 615 q 217 522 232 558 l 90 522 l 90 1125 l 575 1125 l 575 976 l 225 976 l 215 665 q 284 711 243 694 q 378 728 325 728 q 522 685 469 728 q 595 567 574 642 q 617 394 617 492 q 604 234 617 308 q 560 105 592 160 q 475 19 529 50 q 338 -11 421 -11 z "},"6":{"ha":699,"x_min":81,"x_max":636,"o":"m 357 -12 q 199 37 260 -12 q 109 170 138 86 q 81 357 81 254 l 81 736 q 106 936 81 846 q 191 1081 131 1026 q 357 1135 251 1135 q 505 1103 444 1135 q 598 1010 565 1071 q 632 861 631 949 q 633 853 632 858 q 633 844 633 849 l 483 844 q 457 969 483 926 q 357 1013 431 1013 q 288 987 317 1013 q 244 908 258 961 q 229 772 229 856 l 229 601 q 292 658 251 636 q 393 679 333 679 q 539 639 486 679 q 614 526 592 599 q 636 354 636 453 q 608 169 636 253 q 519 37 581 86 q 357 -12 458 -12 m 357 111 q 435 140 407 111 q 474 215 463 168 q 486 318 486 263 q 480 442 486 385 q 447 533 474 499 q 357 567 421 567 q 301 556 326 567 q 258 527 276 544 q 229 490 240 510 l 229 322 q 241 217 229 265 q 281 140 253 168 q 357 111 308 111 z "},"7":{"ha":536,"x_min":31,"x_max":481,"o":"m 129 0 l 332 1008 l 31 1008 l 31 1125 l 481 1125 l 481 1053 l 272 0 l 129 0 z "},"8":{"ha":693,"x_min":69,"x_max":624,"o":"m 347 -12 q 185 28 246 -12 q 97 142 124 68 q 69 317 69 217 q 79 417 69 374 q 108 492 89 460 q 152 549 126 525 q 208 593 178 574 q 118 691 153 631 q 83 844 83 751 q 111 999 83 933 q 198 1099 139 1064 q 347 1135 257 1135 q 495 1099 438 1135 q 581 999 553 1064 q 608 844 608 933 q 574 690 608 750 q 483 593 540 631 q 540 549 514 574 q 584 492 565 525 q 613 417 603 460 q 624 317 624 374 q 597 142 624 217 q 509 28 569 68 q 347 -12 449 -12 m 347 106 q 431 133 401 106 q 470 208 460 161 q 481 314 481 256 q 469 413 481 367 q 428 490 457 460 q 347 519 399 519 q 266 490 296 519 q 224 415 236 461 q 211 314 211 368 q 222 208 211 256 q 263 133 233 161 q 347 106 293 106 m 347 661 q 419 690 394 663 q 453 762 443 718 q 463 853 463 806 q 438 971 463 922 q 347 1019 413 1019 q 256 971 282 1019 q 229 853 229 922 q 239 762 229 806 q 274 690 249 718 q 347 661 300 663 z "},"9":{"ha":697,"x_min":61,"x_max":617,"o":"m 340 -12 q 191 20 253 -12 q 97 115 129 53 q 64 267 65 178 q 64 273 64 269 q 64 279 64 276 l 213 279 q 239 155 213 199 q 342 111 265 111 q 411 137 383 111 q 453 216 439 163 q 467 351 467 269 l 467 522 q 405 466 446 488 q 303 444 364 444 q 157 485 210 444 q 83 599 104 526 q 61 769 61 672 q 89 955 61 872 q 178 1086 117 1038 q 340 1135 240 1135 q 499 1085 438 1135 q 588 953 560 1036 q 617 767 617 869 l 617 389 q 592 189 617 281 q 507 42 567 97 q 340 -12 447 -12 m 340 557 q 419 581 389 557 q 467 635 450 606 l 467 801 q 456 908 467 860 q 417 984 444 956 q 340 1013 389 1013 q 263 983 292 1013 q 223 908 235 954 q 211 806 211 861 q 217 682 211 739 q 251 591 224 625 q 340 557 278 557 z "},"A":{"ha":683,"x_min":26,"x_max":657,"o":"m 26 0 l 265 1125 l 417 1125 l 657 0 l 508 0 l 457 283 l 228 283 l 174 0 l 26 0 m 249 396 l 436 396 l 342 903 l 249 396 z "},"Á":{"ha":683,"x_min":26,"x_max":657,"o":"m 26 0 l 265 1125 l 417 1125 l 657 0 l 508 0 l 457 283 l 228 283 l 174 0 l 26 0 m 249 396 l 436 396 l 342 903 l 249 396 m 303 1192 l 385 1467 l 533 1467 l 378 1192 l 303 1192 z "},"Ă":{"ha":683,"x_min":26,"x_max":657,"o":"m 26 0 l 265 1125 l 417 1125 l 657 0 l 508 0 l 457 283 l 228 283 l 174 0 l 26 0 m 249 396 l 436 396 l 342 903 l 249 396 m 342 1213 q 201 1267 242 1213 q 160 1401 160 1321 l 246 1401 q 269 1324 247 1351 q 342 1297 290 1297 q 416 1325 394 1297 q 438 1401 438 1353 l 525 1401 q 484 1267 525 1321 q 342 1213 443 1213 z "},"Ắ":{"ha":683,"x_min":26,"x_max":657,"o":"m 26 0 l 265 1125 l 417 1125 l 657 0 l 508 0 l 457 283 l 228 283 l 174 0 l 26 0 m 249 396 l 436 396 l 342 903 l 249 396 m 271 1443 l 360 1607 l 508 1607 l 360 1443 l 271 1443 m 342 1186 q 201 1240 242 1186 q 160 1375 160 1294 l 246 1375 q 269 1298 247 1325 q 342 1271 290 1271 q 416 1299 394 1271 q 438 1375 438 1326 l 525 1375 q 484 1240 525 1294 q 342 1186 443 1186 z "},"Ặ":{"ha":683,"x_min":26,"x_max":657,"o":"m 26 0 l 265 1125 l 417 1125 l 657 0 l 508 0 l 457 283 l 228 283 l 174 0 l 26 0 m 249 396 l 436 396 l 342 903 l 249 396 m 267 -244 l 267 -87 l 417 -87 l 417 -244 l 267 -244 m 342 1213 q 201 1267 242 1213 q 160 1401 160 1321 l 246 1401 q 269 1324 247 1351 q 342 1297 290 1297 q 416 1325 394 1297 q 438 1401 438 1353 l 525 1401 q 484 1267 525 1321 q 342 1213 443 1213 z "},"Ằ":{"ha":683,"x_min":26,"x_max":657,"o":"m 26 0 l 265 1125 l 417 1125 l 657 0 l 508 0 l 457 283 l 228 283 l 174 0 l 26 0 m 249 396 l 436 396 l 342 903 l 249 396 m 318 1443 l 169 1607 l 318 1607 l 407 1443 l 318 1443 m 342 1186 q 201 1240 242 1186 q 160 1375 160 1294 l 246 1375 q 269 1298 247 1325 q 342 1271 290 1271 q 416 1299 394 1271 q 438 1375 438 1326 l 525 1375 q 484 1240 525 1294 q 342 1186 443 1186 z "},"Ẳ":{"ha":683,"x_min":26,"x_max":657,"o":"m 26 0 l 265 1125 l 417 1125 l 657 0 l 508 0 l 457 283 l 228 283 l 174 0 l 26 0 m 249 396 l 436 396 l 342 903 l 249 396 m 347 1403 l 300 1458 q 349 1494 331 1476 q 367 1539 367 1513 q 347 1581 367 1568 q 299 1593 326 1593 q 267 1591 285 1593 q 235 1583 250 1589 l 235 1658 q 285 1669 260 1665 q 336 1672 310 1672 q 437 1643 396 1672 q 478 1551 478 1614 q 441 1461 478 1496 q 347 1403 404 1426 m 342 1213 q 201 1267 242 1213 q 160 1401 160 1321 l 246 1401 q 269 1324 247 1351 q 342 1297 290 1297 q 416 1325 394 1297 q 438 1401 438 1353 l 525 1401 q 484 1267 525 1321 q 342 1213 443 1213 z "},"Ẵ":{"ha":683,"x_min":26,"x_max":657,"o":"m 26 0 l 265 1125 l 417 1125 l 657 0 l 508 0 l 457 283 l 228 283 l 174 0 l 26 0 m 249 396 l 436 396 l 342 903 l 249 396 z "},"Ǎ":{"ha":683,"x_min":26,"x_max":657,"o":"m 26 0 l 265 1125 l 417 1125 l 657 0 l 508 0 l 457 283 l 228 283 l 174 0 l 26 0 m 249 396 l 436 396 l 342 903 l 249 396 m 268 1207 l 147 1447 l 261 1447 l 342 1285 l 422 1447 l 536 1447 l 414 1207 l 268 1207 z "},"Â":{"ha":683,"x_min":26,"x_max":657,"o":"m 26 0 l 265 1125 l 417 1125 l 657 0 l 508 0 l 457 283 l 228 283 l 174 0 l 26 0 m 249 396 l 436 396 l 342 903 l 249 396 m 146 1204 l 265 1447 l 417 1447 l 538 1204 l 425 1204 l 340 1372 l 257 1204 l 146 1204 z "},"Ấ":{"ha":683,"x_min":26,"x_max":721,"o":"m 26 0 l 265 1125 l 417 1125 l 657 0 l 508 0 l 457 283 l 228 283 l 174 0 l 26 0 m 249 396 l 436 396 l 342 903 l 249 396 m 146 1204 l 265 1419 l 417 1419 l 538 1204 l 425 1204 l 340 1344 l 257 1204 l 146 1204 m 518 1349 l 592 1508 l 721 1508 l 610 1349 l 518 1349 z "},"Ậ":{"ha":683,"x_min":26,"x_max":657,"o":"m 26 0 l 265 1125 l 417 1125 l 657 0 l 508 0 l 457 283 l 228 283 l 174 0 l 26 0 m 249 396 l 436 396 l 342 903 l 249 396 m 146 1204 l 265 1419 l 417 1419 l 538 1204 l 425 1204 l 340 1344 l 257 1204 l 146 1204 m 267 -244 l 267 -87 l 417 -87 l 417 -244 l 267 -244 z "},"Ầ":{"ha":683,"x_min":26,"x_max":657,"o":"m 26 0 l 265 1125 l 417 1125 l 657 0 l 508 0 l 457 283 l 228 283 l 174 0 l 26 0 m 249 396 l 436 396 l 342 903 l 249 396 m 146 1204 l 265 1419 l 417 1419 l 538 1204 l 425 1204 l 340 1344 l 257 1204 l 146 1204 m 553 1349 l 442 1508 l 571 1508 l 644 1349 l 553 1349 z "},"Ẩ":{"ha":683,"x_min":26,"x_max":682,"o":"m 26 0 l 265 1125 l 417 1125 l 657 0 l 508 0 l 457 283 l 228 283 l 174 0 l 26 0 m 249 396 l 436 396 l 342 903 l 249 396 m 551 1318 l 504 1374 q 553 1410 535 1392 q 571 1454 571 1428 q 551 1496 571 1483 q 503 1508 531 1508 q 472 1506 489 1508 q 439 1499 454 1504 l 439 1574 q 489 1584 464 1581 q 540 1588 514 1588 q 641 1558 600 1588 q 682 1467 682 1529 q 645 1374 682 1406 q 551 1318 608 1342 m 146 1204 l 265 1419 l 417 1419 l 538 1204 l 425 1204 l 340 1344 l 257 1204 l 146 1204 z "},"Ẫ":{"ha":683,"x_min":26,"x_max":657,"o":"m 26 0 l 265 1125 l 417 1125 l 657 0 l 508 0 l 457 283 l 228 283 l 174 0 l 26 0 m 249 396 l 436 396 l 342 903 l 249 396 z "},"Ȁ":{"ha":683,"x_min":26,"x_max":657,"o":"m 26 0 l 265 1125 l 417 1125 l 657 0 l 508 0 l 457 283 l 228 283 l 174 0 l 26 0 m 249 396 l 436 396 l 342 903 l 249 396 m 224 1211 l 68 1447 l 218 1447 l 299 1211 l 224 1211 m 401 1211 l 299 1447 l 421 1447 l 476 1211 l 401 1211 z "},"Ä":{"ha":683,"x_min":26,"x_max":657,"o":"m 26 0 l 265 1125 l 417 1125 l 657 0 l 508 0 l 457 283 l 228 283 l 174 0 l 26 0 m 249 396 l 436 396 l 342 903 l 249 396 m 386 1293 l 386 1447 l 536 1447 l 536 1293 l 386 1293 m 147 1293 l 147 1447 l 297 1447 l 297 1293 l 147 1293 z "},"Ạ":{"ha":683,"x_min":26,"x_max":657,"o":"m 26 0 l 265 1125 l 417 1125 l 657 0 l 508 0 l 457 283 l 228 283 l 174 0 l 26 0 m 249 396 l 436 396 l 342 903 l 249 396 m 267 -244 l 267 -87 l 417 -87 l 417 -244 l 267 -244 z "},"À":{"ha":683,"x_min":26,"x_max":657,"o":"m 26 0 l 265 1125 l 417 1125 l 657 0 l 508 0 l 457 283 l 228 283 l 174 0 l 26 0 m 249 396 l 436 396 l 342 903 l 249 396 m 307 1192 l 153 1467 l 301 1467 l 381 1192 l 307 1192 z "},"Ả":{"ha":683,"x_min":26,"x_max":657,"o":"m 26 0 l 265 1125 l 417 1125 l 657 0 l 508 0 l 457 283 l 228 283 l 174 0 l 26 0 m 249 396 l 436 396 l 342 903 l 249 396 m 343 1206 l 296 1261 q 361 1297 336 1279 q 386 1342 386 1315 q 362 1383 386 1371 q 301 1396 338 1396 q 267 1394 285 1396 q 231 1386 249 1392 l 231 1461 q 343 1475 285 1475 q 421 1463 386 1475 q 476 1423 456 1450 q 497 1354 497 1396 q 477 1286 497 1314 q 422 1240 457 1258 q 343 1206 388 1221 z "},"Ȃ":{"ha":683,"x_min":26,"x_max":657,"o":"m 26 0 l 265 1125 l 417 1125 l 657 0 l 508 0 l 457 283 l 228 283 l 174 0 l 26 0 m 249 396 l 436 396 l 342 903 l 249 396 m 158 1240 q 174 1345 160 1299 q 228 1419 189 1392 q 342 1447 268 1447 q 455 1419 415 1447 q 510 1345 494 1392 q 525 1240 525 1299 l 438 1240 q 416 1335 438 1307 q 342 1363 394 1363 q 269 1334 290 1363 q 246 1240 247 1306 l 158 1240 z "},"Ā":{"ha":683,"x_min":26,"x_max":657,"o":"m 26 0 l 265 1125 l 417 1125 l 657 0 l 508 0 l 457 283 l 228 283 l 174 0 l 26 0 m 249 396 l 436 396 l 342 903 l 249 396 m 208 1274 l 208 1364 l 475 1364 l 475 1274 l 208 1274 z "},"Ą":{"ha":683,"x_min":26,"x_max":675,"o":"m 26 0 l 265 1125 l 417 1125 l 657 0 l 508 0 l 457 283 l 228 283 l 174 0 l 26 0 m 249 396 l 436 396 l 342 903 l 249 396 m 600 -321 q 528 -317 563 -321 q 466 -300 493 -312 q 423 -264 439 -287 q 407 -201 407 -240 q 431 -114 407 -156 q 490 -42 454 -72 q 561 0 525 -11 l 636 0 q 584 -52 611 -22 q 538 -115 557 -82 q 519 -179 519 -147 q 556 -234 519 -222 q 631 -246 592 -246 q 653 -245 642 -246 q 675 -243 665 -244 l 650 -317 q 625 -319 639 -318 q 600 -321 611 -321 z "},"Å":{"ha":683,"x_min":26,"x_max":657,"o":"m 26 0 l 265 1125 l 417 1125 l 657 0 l 508 0 l 457 283 l 228 283 l 174 0 l 26 0 m 249 396 l 436 396 l 342 903 l 249 396 m 342 1150 q 229 1192 272 1150 q 186 1306 186 1235 q 229 1418 186 1376 q 342 1460 272 1460 q 454 1418 411 1460 q 497 1306 497 1376 q 454 1192 497 1235 q 342 1150 411 1150 m 342 1225 q 400 1247 378 1225 q 422 1306 422 1268 q 400 1365 422 1344 q 342 1386 378 1386 q 283 1365 304 1386 q 261 1306 261 1344 q 283 1247 261 1268 q 342 1225 304 1225 z "},"Ǻ":{"ha":683,"x_min":26,"x_max":657,"o":"m 26 0 l 265 1125 l 417 1125 l 657 0 l 508 0 l 457 283 l 228 283 l 174 0 l 26 0 m 249 396 l 436 396 l 342 903 l 249 396 m 342 1150 q 229 1192 272 1150 q 186 1306 186 1235 q 229 1418 186 1376 q 342 1460 272 1460 q 454 1418 411 1460 q 497 1306 497 1376 q 454 1192 497 1235 q 342 1150 411 1150 m 342 1225 q 400 1247 378 1225 q 422 1306 422 1268 q 400 1365 422 1344 q 342 1386 378 1386 q 283 1365 304 1386 q 261 1306 261 1344 q 283 1247 261 1268 q 342 1225 304 1225 m 303 1526 l 385 1801 l 533 1801 l 378 1526 l 303 1526 z "},"Ã":{"ha":683,"x_min":26,"x_max":657,"o":"m 26 0 l 265 1125 l 417 1125 l 657 0 l 508 0 l 457 283 l 228 283 l 174 0 l 26 0 m 249 396 l 436 396 l 342 903 l 249 396 m 447 1294 q 378 1312 408 1294 q 322 1346 349 1329 q 265 1363 296 1363 q 230 1350 242 1363 q 218 1306 218 1338 l 133 1306 q 144 1381 133 1347 q 178 1435 154 1415 q 244 1456 203 1456 q 308 1439 279 1456 q 364 1406 336 1422 q 421 1389 392 1389 q 456 1401 444 1389 q 467 1447 467 1414 l 550 1447 q 542 1371 550 1406 q 511 1315 533 1336 q 447 1294 489 1294 z "},"Æ":{"ha":882,"x_min":-71,"x_max":840,"o":"m -71 0 l 403 1125 l 840 1125 l 840 1011 l 556 1011 l 556 639 l 760 639 l 760 526 l 556 526 l 556 114 l 840 114 l 840 0 l 406 0 l 406 285 l 199 285 l 79 0 l -71 0 m 240 397 l 406 397 l 406 840 l 240 397 z "},"Ǽ":{"ha":882,"x_min":-71,"x_max":840,"o":"m -71 0 l 403 1125 l 840 1125 l 840 1011 l 556 1011 l 556 639 l 760 639 l 760 526 l 556 526 l 556 114 l 840 114 l 840 0 l 406 0 l 406 285 l 199 285 l 79 0 l -71 0 m 240 397 l 406 397 l 406 840 l 240 397 m 442 1192 l 524 1467 l 672 1467 l 517 1192 l 442 1192 z "},"B":{"ha":728,"x_min":88,"x_max":676,"o":"m 88 0 l 88 1125 l 346 1125 q 478 1108 422 1125 q 572 1057 535 1092 q 628 969 610 1022 q 646 843 646 915 q 628 723 646 774 q 576 643 611 672 q 485 606 540 614 q 594 553 553 590 q 656 459 636 517 q 676 321 676 401 q 660 189 676 249 q 608 88 643 129 q 517 23 572 46 q 388 0 463 0 l 88 0 m 244 113 l 350 113 q 491 162 456 113 q 526 321 526 211 q 508 440 526 392 q 448 512 489 488 q 338 536 407 536 l 244 536 l 244 113 m 244 656 l 338 656 q 442 674 404 656 q 494 735 479 693 q 510 843 510 776 q 486 956 510 921 q 413 999 463 990 q 282 1008 363 1008 l 244 1008 l 244 656 z "},"Ḃ":{"ha":728,"x_min":88,"x_max":676,"o":"m 88 0 l 88 1125 l 346 1125 q 478 1108 422 1125 q 572 1057 535 1092 q 628 969 610 1022 q 646 843 646 915 q 628 723 646 774 q 576 643 611 672 q 485 606 540 614 q 594 553 553 590 q 656 459 636 517 q 676 321 676 401 q 660 189 676 249 q 608 88 643 129 q 517 23 572 46 q 388 0 463 0 l 88 0 m 244 113 l 350 113 q 491 162 456 113 q 526 321 526 211 q 508 440 526 392 q 448 512 489 488 q 338 536 407 536 l 244 536 l 244 113 m 244 656 l 338 656 q 442 674 404 656 q 494 735 479 693 q 510 843 510 776 q 486 956 510 921 q 413 999 463 990 q 282 1008 363 1008 l 244 1008 l 244 656 m 289 1254 l 289 1419 l 439 1419 l 439 1254 l 289 1254 z "},"C":{"ha":715,"x_min":67,"x_max":653,"o":"m 369 -12 q 184 38 250 -12 q 92 172 118 88 q 67 361 67 257 l 67 758 q 92 957 67 872 q 184 1088 118 1042 q 369 1135 250 1135 q 537 1096 475 1135 q 626 985 599 1057 q 653 811 653 913 l 653 722 l 504 722 l 504 801 q 498 912 504 864 q 464 986 492 960 q 371 1013 436 1013 q 274 984 304 1013 q 234 903 243 956 q 225 782 225 851 l 225 336 q 239 202 225 251 q 285 132 253 153 q 371 111 317 111 q 463 140 435 111 q 497 218 490 168 q 504 335 504 268 l 504 418 l 653 418 l 653 335 q 628 153 653 232 q 542 31 603 75 q 369 -12 481 -12 z "},"Ć":{"ha":715,"x_min":67,"x_max":653,"o":"m 369 -12 q 184 38 250 -12 q 92 172 118 88 q 67 361 67 257 l 67 758 q 92 957 67 872 q 184 1088 118 1042 q 369 1135 250 1135 q 537 1096 475 1135 q 626 985 599 1057 q 653 811 653 913 l 653 722 l 504 722 l 504 801 q 498 912 504 864 q 464 986 492 960 q 371 1013 436 1013 q 274 984 304 1013 q 234 903 243 956 q 225 782 225 851 l 225 336 q 239 202 225 251 q 285 132 253 153 q 371 111 317 111 q 463 140 435 111 q 497 218 490 168 q 504 335 504 268 l 504 418 l 653 418 l 653 335 q 628 153 653 232 q 542 31 603 75 q 369 -12 481 -12 m 319 1192 l 401 1467 l 550 1467 l 394 1192 l 319 1192 z "},"Č":{"ha":715,"x_min":67,"x_max":653,"o":"m 369 -12 q 184 38 250 -12 q 92 172 118 88 q 67 361 67 257 l 67 758 q 92 957 67 872 q 184 1088 118 1042 q 369 1135 250 1135 q 537 1096 475 1135 q 626 985 599 1057 q 653 811 653 913 l 653 722 l 504 722 l 504 801 q 498 912 504 864 q 464 986 492 960 q 371 1013 436 1013 q 274 984 304 1013 q 234 903 243 956 q 225 782 225 851 l 225 336 q 239 202 225 251 q 285 132 253 153 q 371 111 317 111 q 463 140 435 111 q 497 218 490 168 q 504 335 504 268 l 504 418 l 653 418 l 653 335 q 628 153 653 232 q 542 31 603 75 q 369 -12 481 -12 m 285 1207 l 164 1447 l 278 1447 l 358 1285 l 439 1447 l 553 1447 l 431 1207 l 285 1207 z "},"Ç":{"ha":715,"x_min":67,"x_max":653,"o":"m 369 -12 q 184 38 250 -12 q 92 172 118 88 q 67 361 67 257 l 67 758 q 92 957 67 872 q 184 1088 118 1042 q 369 1135 250 1135 q 537 1096 475 1135 q 626 985 599 1057 q 653 811 653 913 l 653 722 l 504 722 l 504 801 q 498 912 504 864 q 464 986 492 960 q 371 1013 436 1013 q 274 984 304 1013 q 234 903 243 956 q 225 782 225 851 l 225 336 q 239 202 225 251 q 285 132 253 153 q 371 111 317 111 q 463 140 435 111 q 497 218 490 168 q 504 335 504 268 l 504 418 l 653 418 l 653 335 q 628 153 653 232 q 542 31 603 75 q 369 -12 481 -12 m 376 -326 q 331 -322 354 -326 q 283 -312 307 -318 l 283 -237 q 319 -245 301 -243 q 354 -247 338 -247 q 415 -235 390 -247 q 439 -193 439 -222 q 425 -153 439 -168 q 385 -130 411 -139 q 321 -115 358 -121 l 321 0 l 396 0 l 396 -78 q 508 -110 465 -78 q 550 -197 550 -142 q 527 -270 550 -242 q 465 -312 504 -299 q 376 -326 425 -326 z "},"Ĉ":{"ha":715,"x_min":67,"x_max":653,"o":"m 369 -12 q 184 38 250 -12 q 92 172 118 88 q 67 361 67 257 l 67 758 q 92 957 67 872 q 184 1088 118 1042 q 369 1135 250 1135 q 537 1096 475 1135 q 626 985 599 1057 q 653 811 653 913 l 653 722 l 504 722 l 504 801 q 498 912 504 864 q 464 986 492 960 q 371 1013 436 1013 q 274 984 304 1013 q 234 903 243 956 q 225 782 225 851 l 225 336 q 239 202 225 251 q 285 132 253 153 q 371 111 317 111 q 463 140 435 111 q 497 218 490 168 q 504 335 504 268 l 504 418 l 653 418 l 653 335 q 628 153 653 232 q 542 31 603 75 q 369 -12 481 -12 m 163 1204 l 282 1447 l 433 1447 l 554 1204 l 442 1204 l 357 1372 l 274 1204 l 163 1204 z "},"Ċ":{"ha":715,"x_min":67,"x_max":653,"o":"m 369 -12 q 184 38 250 -12 q 92 172 118 88 q 67 361 67 257 l 67 758 q 92 957 67 872 q 184 1088 118 1042 q 369 1135 250 1135 q 537 1096 475 1135 q 626 985 599 1057 q 653 811 653 913 l 653 722 l 504 722 l 504 801 q 498 912 504 864 q 464 986 492 960 q 371 1013 436 1013 q 274 984 304 1013 q 234 903 243 956 q 225 782 225 851 l 225 336 q 239 202 225 251 q 285 132 253 153 q 371 111 317 111 q 463 140 435 111 q 497 218 490 168 q 504 335 504 268 l 504 418 l 653 418 l 653 335 q 628 153 653 232 q 542 31 603 75 q 369 -12 481 -12 m 283 1254 l 283 1419 l 433 1419 l 433 1254 l 283 1254 z "},"D":{"ha":732,"x_min":88,"x_max":665,"o":"m 88 0 l 88 1125 l 332 1125 q 530 1087 457 1125 q 634 972 603 1049 q 665 782 665 896 l 665 368 q 634 167 665 249 q 533 42 603 85 q 344 0 463 0 l 88 0 m 244 113 l 333 113 q 456 146 419 113 q 499 243 492 179 q 507 397 507 307 l 507 763 q 496 904 507 850 q 447 983 485 958 q 329 1008 410 1008 l 244 1008 l 244 113 z "},"Ǳ":{"ha":1311,"x_min":88,"x_max":1282,"o":"m 88 0 l 88 1125 l 332 1125 q 530 1087 457 1125 q 634 972 603 1049 q 665 782 665 896 l 665 368 q 634 167 665 249 q 533 42 603 85 q 344 0 463 0 l 88 0 m 244 113 l 333 113 q 456 146 419 113 q 499 243 492 179 q 507 397 507 307 l 507 763 q 496 904 507 850 q 447 983 485 958 q 329 1008 410 1008 l 244 1008 l 244 113 m 785 0 l 785 113 l 1115 1013 l 806 1013 l 806 1125 l 1282 1125 l 1282 1057 l 933 113 l 1282 113 l 1282 0 l 785 0 z "},"Ǆ":{"ha":1311,"x_min":88,"x_max":1282,"o":"m 88 0 l 88 1125 l 332 1125 q 530 1087 457 1125 q 634 972 603 1049 q 665 782 665 896 l 665 368 q 634 167 665 249 q 533 42 603 85 q 344 0 463 0 l 88 0 m 244 113 l 333 113 q 456 146 419 113 q 499 243 492 179 q 507 397 507 307 l 507 763 q 496 904 507 850 q 447 983 485 958 q 329 1008 410 1008 l 244 1008 l 244 113 z "},"Ð":{"ha":719,"x_min":19,"x_max":665,"o":"m 88 0 l 88 539 l 19 539 l 19 629 l 88 629 l 88 1125 l 332 1125 q 530 1087 457 1125 q 634 972 603 1049 q 665 782 665 896 l 665 368 q 634 167 665 249 q 533 42 603 85 q 344 0 463 0 l 88 0 m 244 113 l 333 113 q 456 146 419 113 q 499 243 492 179 q 507 397 507 307 l 507 763 q 496 904 507 850 q 447 983 485 958 q 329 1008 410 1008 l 244 1008 l 244 629 l 329 629 l 329 539 l 244 539 l 244 113 z "},"Ď":{"ha":732,"x_min":88,"x_max":665,"o":"m 88 0 l 88 1125 l 332 1125 q 530 1087 457 1125 q 634 972 603 1049 q 665 782 665 896 l 665 368 q 634 167 665 249 q 533 42 603 85 q 344 0 463 0 l 88 0 m 244 113 l 333 113 q 456 146 419 113 q 499 243 492 179 q 507 397 507 307 l 507 763 q 496 904 507 850 q 447 983 485 958 q 329 1008 410 1008 l 244 1008 l 244 113 m 293 1207 l 172 1447 l 286 1447 l 367 1285 l 447 1447 l 561 1447 l 439 1207 l 293 1207 z "},"Đ":{"ha":735,"x_min":24,"x_max":667,"o":"m 90 0 l 90 539 l 24 539 l 24 629 l 90 629 l 90 1125 l 336 1125 q 533 1087 461 1125 q 636 972 606 1049 q 667 782 667 896 l 667 368 q 636 167 667 249 q 535 42 606 85 q 347 0 465 0 l 90 0 m 249 113 l 336 113 q 458 146 422 113 q 502 243 494 179 q 510 397 510 307 l 510 763 q 499 904 510 850 q 450 983 488 958 q 332 1008 413 1008 l 249 1008 l 249 629 l 332 629 l 332 539 l 249 539 l 249 113 z "},"Ḋ":{"ha":732,"x_min":88,"x_max":665,"o":"m 88 0 l 88 1125 l 332 1125 q 530 1087 457 1125 q 634 972 603 1049 q 665 782 665 896 l 665 368 q 634 167 665 249 q 533 42 603 85 q 344 0 463 0 l 88 0 m 244 113 l 333 113 q 456 146 419 113 q 499 243 492 179 q 507 397 507 307 l 507 763 q 496 904 507 850 q 447 983 485 958 q 329 1008 410 1008 l 244 1008 l 244 113 m 292 1254 l 292 1419 l 442 1419 l 442 1254 l 292 1254 z "},"ǲ":{"ha":1214,"x_min":88,"x_max":1182,"o":"m 88 0 l 88 1125 l 332 1125 q 530 1087 457 1125 q 634 972 603 1049 q 665 782 665 896 l 665 368 q 634 167 665 249 q 533 42 603 85 q 344 0 463 0 l 88 0 m 244 113 l 333 113 q 456 146 419 113 q 499 243 492 179 q 507 397 507 307 l 507 763 q 496 904 507 850 q 447 983 485 958 q 329 1008 410 1008 l 244 1008 l 244 113 m 776 0 l 776 100 l 1022 692 l 801 692 l 801 803 l 1182 803 l 1182 722 l 935 113 l 1176 113 l 1176 0 l 776 0 z "},"ǅ":{"ha":1214,"x_min":88,"x_max":1182,"o":"m 88 0 l 88 1125 l 332 1125 q 530 1087 457 1125 q 634 972 603 1049 q 665 782 665 896 l 665 368 q 634 167 665 249 q 533 42 603 85 q 344 0 463 0 l 88 0 m 244 113 l 333 113 q 456 146 419 113 q 499 243 492 179 q 507 397 507 307 l 507 763 q 496 904 507 850 q 447 983 485 958 q 329 1008 410 1008 l 244 1008 l 244 113 z "},"E":{"ha":565,"x_min":88,"x_max":526,"o":"m 88 0 l 88 1125 l 524 1125 l 524 1008 l 244 1008 l 244 636 l 471 636 l 471 525 l 244 525 l 244 113 l 526 113 l 526 0 l 88 0 z "},"É":{"ha":565,"x_min":88,"x_max":526,"o":"m 88 0 l 88 1125 l 524 1125 l 524 1008 l 244 1008 l 244 636 l 471 636 l 471 525 l 244 525 l 244 113 l 526 113 l 526 0 l 88 0 m 272 1192 l 354 1467 l 503 1467 l 347 1192 l 272 1192 z "},"Ĕ":{"ha":565,"x_min":88,"x_max":526,"o":"m 88 0 l 88 1125 l 524 1125 l 524 1008 l 244 1008 l 244 636 l 471 636 l 471 525 l 244 525 l 244 113 l 526 113 l 526 0 l 88 0 m 311 1213 q 170 1267 211 1213 q 129 1401 129 1321 l 215 1401 q 238 1324 217 1351 q 311 1297 260 1297 q 385 1325 364 1297 q 407 1401 407 1353 l 494 1401 q 453 1267 494 1321 q 311 1213 413 1213 z "},"Ě":{"ha":565,"x_min":88,"x_max":526,"o":"m 88 0 l 88 1125 l 524 1125 l 524 1008 l 244 1008 l 244 636 l 471 636 l 471 525 l 244 525 l 244 113 l 526 113 l 526 0 l 88 0 m 238 1207 l 117 1447 l 231 1447 l 311 1285 l 392 1447 l 506 1447 l 383 1207 l 238 1207 z "},"Ê":{"ha":565,"x_min":88,"x_max":526,"o":"m 88 0 l 88 1125 l 524 1125 l 524 1008 l 244 1008 l 244 636 l 471 636 l 471 525 l 244 525 l 244 113 l 526 113 l 526 0 l 88 0 m 115 1204 l 235 1447 l 386 1447 l 507 1204 l 394 1204 l 310 1372 l 226 1204 l 115 1204 z "},"Ế":{"ha":565,"x_min":88,"x_max":690,"o":"m 88 0 l 88 1125 l 524 1125 l 524 1008 l 244 1008 l 244 636 l 471 636 l 471 525 l 244 525 l 244 113 l 526 113 l 526 0 l 88 0 m 115 1204 l 235 1419 l 386 1419 l 507 1204 l 394 1204 l 310 1344 l 226 1204 l 115 1204 m 488 1349 l 561 1508 l 690 1508 l 579 1349 l 488 1349 z "},"Ệ":{"ha":565,"x_min":88,"x_max":526,"o":"m 88 0 l 88 1125 l 524 1125 l 524 1008 l 244 1008 l 244 636 l 471 636 l 471 525 l 244 525 l 244 113 l 526 113 l 526 0 l 88 0 m 115 1204 l 235 1419 l 386 1419 l 507 1204 l 394 1204 l 310 1344 l 226 1204 l 115 1204 m 208 -244 l 208 -87 l 358 -87 l 358 -244 l 208 -244 z "},"Ề":{"ha":565,"x_min":88,"x_max":614,"o":"m 88 0 l 88 1125 l 524 1125 l 524 1008 l 244 1008 l 244 636 l 471 636 l 471 525 l 244 525 l 244 113 l 526 113 l 526 0 l 88 0 m 115 1204 l 235 1419 l 386 1419 l 507 1204 l 394 1204 l 310 1344 l 226 1204 l 115 1204 m 522 1349 l 411 1508 l 540 1508 l 614 1349 l 522 1349 z "},"Ể":{"ha":565,"x_min":88,"x_max":651,"o":"m 88 0 l 88 1125 l 524 1125 l 524 1008 l 244 1008 l 244 636 l 471 636 l 471 525 l 244 525 l 244 113 l 526 113 l 526 0 l 88 0 m 521 1318 l 474 1374 q 522 1410 504 1392 q 540 1454 540 1428 q 520 1496 540 1483 q 472 1508 500 1508 q 441 1506 458 1508 q 408 1499 424 1504 l 408 1574 q 458 1584 433 1581 q 510 1588 483 1588 q 610 1558 569 1588 q 651 1467 651 1529 q 615 1374 651 1406 q 521 1318 578 1342 m 115 1204 l 235 1419 l 386 1419 l 507 1204 l 394 1204 l 310 1344 l 226 1204 l 115 1204 z "},"Ễ":{"ha":565,"x_min":88,"x_max":526,"o":"m 88 0 l 88 1125 l 524 1125 l 524 1008 l 244 1008 l 244 636 l 471 636 l 471 525 l 244 525 l 244 113 l 526 113 l 526 0 l 88 0 z "},"Ȅ":{"ha":565,"x_min":38,"x_max":526,"o":"m 88 0 l 88 1125 l 524 1125 l 524 1008 l 244 1008 l 244 636 l 471 636 l 471 525 l 244 525 l 244 113 l 526 113 l 526 0 l 88 0 m 193 1211 l 38 1447 l 188 1447 l 268 1211 l 193 1211 m 371 1211 l 268 1447 l 390 1447 l 446 1211 l 371 1211 z "},"Ë":{"ha":565,"x_min":88,"x_max":526,"o":"m 88 0 l 88 1125 l 524 1125 l 524 1008 l 244 1008 l 244 636 l 471 636 l 471 525 l 244 525 l 244 113 l 526 113 l 526 0 l 88 0 m 356 1293 l 356 1447 l 506 1447 l 506 1293 l 356 1293 m 117 1293 l 117 1447 l 267 1447 l 267 1293 l 117 1293 z "},"Ė":{"ha":565,"x_min":88,"x_max":526,"o":"m 88 0 l 88 1125 l 524 1125 l 524 1008 l 244 1008 l 244 636 l 471 636 l 471 525 l 244 525 l 244 113 l 526 113 l 526 0 l 88 0 m 236 1254 l 236 1419 l 386 1419 l 386 1254 l 236 1254 z "},"Ẹ":{"ha":565,"x_min":88,"x_max":526,"o":"m 88 0 l 88 1125 l 524 1125 l 524 1008 l 244 1008 l 244 636 l 471 636 l 471 525 l 244 525 l 244 113 l 526 113 l 526 0 l 88 0 m 208 -244 l 208 -87 l 358 -87 l 358 -244 l 208 -244 z "},"È":{"ha":565,"x_min":88,"x_max":526,"o":"m 88 0 l 88 1125 l 524 1125 l 524 1008 l 244 1008 l 244 636 l 471 636 l 471 525 l 244 525 l 244 113 l 526 113 l 526 0 l 88 0 m 276 1192 l 122 1467 l 271 1467 l 350 1192 l 276 1192 z "},"Ẻ":{"ha":565,"x_min":88,"x_max":526,"o":"m 88 0 l 88 1125 l 524 1125 l 524 1008 l 244 1008 l 244 636 l 471 636 l 471 525 l 244 525 l 244 113 l 526 113 l 526 0 l 88 0 m 313 1206 l 265 1261 q 331 1297 306 1279 q 356 1342 356 1315 q 331 1383 356 1371 q 271 1396 307 1396 q 236 1394 254 1396 q 200 1386 218 1392 l 200 1461 q 313 1475 254 1475 q 390 1463 356 1475 q 446 1423 425 1450 q 467 1354 467 1396 q 447 1286 467 1314 q 392 1240 426 1258 q 313 1206 357 1221 z "},"Ȇ":{"ha":565,"x_min":88,"x_max":526,"o":"m 88 0 l 88 1125 l 524 1125 l 524 1008 l 244 1008 l 244 636 l 471 636 l 471 525 l 244 525 l 244 113 l 526 113 l 526 0 l 88 0 m 128 1240 q 144 1345 129 1299 q 198 1419 158 1392 q 311 1447 238 1447 q 424 1419 385 1447 q 479 1345 464 1392 q 494 1240 494 1299 l 407 1240 q 385 1335 407 1307 q 311 1363 364 1363 q 238 1334 260 1363 q 215 1240 217 1306 l 128 1240 z "},"Ē":{"ha":565,"x_min":88,"x_max":526,"o":"m 88 0 l 88 1125 l 524 1125 l 524 1008 l 244 1008 l 244 636 l 471 636 l 471 525 l 244 525 l 244 113 l 526 113 l 526 0 l 88 0 m 178 1274 l 178 1364 l 444 1364 l 444 1274 l 178 1274 z "},"Ę":{"ha":565,"x_min":88,"x_max":526,"o":"m 88 0 l 88 1125 l 524 1125 l 524 1008 l 244 1008 l 244 636 l 471 636 l 471 525 l 244 525 l 244 113 l 526 113 l 526 0 l 88 0 m 442 -321 q 369 -317 404 -321 q 308 -300 335 -312 q 265 -264 281 -287 q 249 -201 249 -240 q 272 -114 249 -156 q 331 -42 296 -72 q 403 0 367 -11 l 478 0 q 426 -52 453 -22 q 380 -115 399 -82 q 361 -179 361 -147 q 397 -234 361 -222 q 472 -246 433 -246 q 495 -245 483 -246 q 517 -243 507 -244 l 492 -317 q 467 -319 481 -318 q 442 -321 453 -321 z "},"Ẽ":{"ha":565,"x_min":88,"x_max":526,"o":"m 88 0 l 88 1125 l 524 1125 l 524 1008 l 244 1008 l 244 636 l 471 636 l 471 525 l 244 525 l 244 113 l 526 113 l 526 0 l 88 0 m 417 1294 q 348 1312 378 1294 q 292 1346 318 1329 q 235 1363 265 1363 q 199 1350 211 1363 q 188 1306 188 1338 l 103 1306 q 113 1381 103 1347 q 148 1435 124 1415 q 214 1456 172 1456 q 277 1439 249 1456 q 333 1406 306 1422 q 390 1389 361 1389 q 425 1401 414 1389 q 436 1447 436 1414 l 519 1447 q 511 1371 519 1406 q 481 1315 503 1336 q 417 1294 458 1294 z "},"Ʒ":{"ha":633,"x_min":42,"x_max":594,"o":"m 317 -12 q 164 22 225 -12 q 72 122 103 57 q 42 276 42 188 l 42 314 l 189 314 q 189 302 189 308 q 189 289 189 296 q 215 162 189 213 q 317 111 240 111 q 382 126 357 111 q 421 168 407 140 q 440 234 435 196 q 446 318 446 272 q 427 478 446 415 q 363 571 408 540 q 236 601 317 601 l 118 601 l 118 693 l 356 1013 l 65 1013 l 65 1125 l 544 1125 l 544 1057 l 244 639 l 218 690 l 308 690 q 482 644 419 690 q 569 515 544 599 q 594 318 594 432 q 567 144 594 218 q 478 28 539 69 q 317 -12 417 -12 z "},"Ǯ":{"ha":633,"x_min":42,"x_max":594,"o":"m 317 -12 q 164 22 225 -12 q 72 122 103 57 q 42 276 42 188 l 42 314 l 189 314 q 189 302 189 308 q 189 289 189 296 q 215 162 189 213 q 317 111 240 111 q 382 126 357 111 q 421 168 407 140 q 440 234 435 196 q 446 318 446 272 q 427 478 446 415 q 363 571 408 540 q 236 601 317 601 l 118 601 l 118 693 l 356 1013 l 65 1013 l 65 1125 l 544 1125 l 544 1057 l 244 639 l 218 690 l 308 690 q 482 644 419 690 q 569 515 544 599 q 594 318 594 432 q 567 144 594 218 q 478 28 539 69 q 317 -12 417 -12 m 243 1207 l 122 1447 l 236 1447 l 317 1285 l 397 1447 l 511 1447 l 389 1207 l 243 1207 z "},"F":{"ha":543,"x_min":88,"x_max":522,"o":"m 88 0 l 88 1125 l 522 1125 l 522 1013 l 244 1013 l 244 638 l 460 638 l 460 526 l 244 526 l 244 0 l 88 0 z "},"Ḟ":{"ha":543,"x_min":88,"x_max":522,"o":"m 88 0 l 88 1125 l 522 1125 l 522 1013 l 244 1013 l 244 638 l 460 638 l 460 526 l 244 526 l 244 0 l 88 0 m 197 1254 l 197 1419 l 347 1419 l 347 1254 l 197 1254 z "},"G":{"ha":743,"x_min":67,"x_max":669,"o":"m 356 -14 q 187 31 250 -14 q 95 163 124 76 q 67 369 67 249 l 67 746 q 92 956 67 869 q 184 1089 118 1043 q 368 1135 250 1135 q 538 1099 474 1135 q 632 991 603 1064 q 661 807 661 918 l 661 765 l 514 765 l 514 800 q 504 920 514 874 q 465 990 494 967 q 371 1013 435 1013 q 270 981 301 1013 q 231 894 239 949 q 224 769 224 839 l 224 353 q 235 218 224 272 q 281 138 247 164 q 375 111 314 111 q 469 140 436 111 q 515 226 503 169 q 528 368 528 283 l 528 446 l 385 446 l 385 557 l 669 557 l 669 0 l 571 0 l 556 129 q 486 26 533 67 q 356 -14 439 -14 z "},"Ǵ":{"ha":743,"x_min":67,"x_max":669,"o":"m 356 -14 q 187 31 250 -14 q 95 163 124 76 q 67 369 67 249 l 67 746 q 92 956 67 869 q 184 1089 118 1043 q 368 1135 250 1135 q 538 1099 474 1135 q 632 991 603 1064 q 661 807 661 918 l 661 765 l 514 765 l 514 800 q 504 920 514 874 q 465 990 494 967 q 371 1013 435 1013 q 270 981 301 1013 q 231 894 239 949 q 224 769 224 839 l 224 353 q 235 218 224 272 q 281 138 247 164 q 375 111 314 111 q 469 140 436 111 q 515 226 503 169 q 528 368 528 283 l 528 446 l 385 446 l 385 557 l 669 557 l 669 0 l 571 0 l 556 129 q 486 26 533 67 q 356 -14 439 -14 m 333 1192 l 415 1467 l 564 1467 l 408 1192 l 333 1192 z "},"Ğ":{"ha":743,"x_min":67,"x_max":669,"o":"m 356 -14 q 187 31 250 -14 q 95 163 124 76 q 67 369 67 249 l 67 746 q 92 956 67 869 q 184 1089 118 1043 q 368 1135 250 1135 q 538 1099 474 1135 q 632 991 603 1064 q 661 807 661 918 l 661 765 l 514 765 l 514 800 q 504 920 514 874 q 465 990 494 967 q 371 1013 435 1013 q 270 981 301 1013 q 231 894 239 949 q 224 769 224 839 l 224 353 q 235 218 224 272 q 281 138 247 164 q 375 111 314 111 q 469 140 436 111 q 515 226 503 169 q 528 368 528 283 l 528 446 l 385 446 l 385 557 l 669 557 l 669 0 l 571 0 l 556 129 q 486 26 533 67 q 356 -14 439 -14 m 372 1213 q 231 1267 272 1213 q 190 1401 190 1321 l 276 1401 q 299 1324 278 1351 q 372 1297 321 1297 q 447 1325 425 1297 q 468 1401 468 1353 l 556 1401 q 515 1267 556 1321 q 372 1213 474 1213 z "},"Ǧ":{"ha":743,"x_min":67,"x_max":669,"o":"m 356 -14 q 187 31 250 -14 q 95 163 124 76 q 67 369 67 249 l 67 746 q 92 956 67 869 q 184 1089 118 1043 q 368 1135 250 1135 q 538 1099 474 1135 q 632 991 603 1064 q 661 807 661 918 l 661 765 l 514 765 l 514 800 q 504 920 514 874 q 465 990 494 967 q 371 1013 435 1013 q 270 981 301 1013 q 231 894 239 949 q 224 769 224 839 l 224 353 q 235 218 224 272 q 281 138 247 164 q 375 111 314 111 q 469 140 436 111 q 515 226 503 169 q 528 368 528 283 l 528 446 l 385 446 l 385 557 l 669 557 l 669 0 l 571 0 l 556 129 q 486 26 533 67 q 356 -14 439 -14 m 299 1207 l 178 1447 l 292 1447 l 372 1285 l 453 1447 l 567 1447 l 444 1207 l 299 1207 z "},"Ĝ":{"ha":743,"x_min":67,"x_max":669,"o":"m 356 -14 q 187 31 250 -14 q 95 163 124 76 q 67 369 67 249 l 67 746 q 92 956 67 869 q 184 1089 118 1043 q 368 1135 250 1135 q 538 1099 474 1135 q 632 991 603 1064 q 661 807 661 918 l 661 765 l 514 765 l 514 800 q 504 920 514 874 q 465 990 494 967 q 371 1013 435 1013 q 270 981 301 1013 q 231 894 239 949 q 224 769 224 839 l 224 353 q 235 218 224 272 q 281 138 247 164 q 375 111 314 111 q 469 140 436 111 q 515 226 503 169 q 528 368 528 283 l 528 446 l 385 446 l 385 557 l 669 557 l 669 0 l 571 0 l 556 129 q 486 26 533 67 q 356 -14 439 -14 m 176 1204 l 296 1447 l 447 1447 l 568 1204 l 456 1204 l 371 1372 l 288 1204 l 176 1204 z "},"Ģ":{"ha":743,"x_min":67,"x_max":669,"o":"m 356 -14 q 187 31 250 -14 q 95 163 124 76 q 67 369 67 249 l 67 746 q 92 956 67 869 q 184 1089 118 1043 q 368 1135 250 1135 q 538 1099 474 1135 q 632 991 603 1064 q 661 807 661 918 l 661 765 l 514 765 l 514 800 q 504 920 514 874 q 465 990 494 967 q 371 1013 435 1013 q 270 981 301 1013 q 231 894 239 949 q 224 769 224 839 l 224 353 q 235 218 224 272 q 281 138 247 164 q 375 111 314 111 q 469 140 436 111 q 515 226 503 169 q 528 368 528 283 l 528 446 l 385 446 l 385 557 l 669 557 l 669 0 l 571 0 l 556 129 q 486 26 533 67 q 356 -14 439 -14 m 333 -399 l 296 -325 q 356 -301 339 -322 q 374 -239 374 -279 l 297 -239 l 297 -87 l 449 -87 l 447 -231 q 426 -350 446 -304 q 333 -399 406 -396 z "},"Ġ":{"ha":743,"x_min":67,"x_max":669,"o":"m 356 -14 q 187 31 250 -14 q 95 163 124 76 q 67 369 67 249 l 67 746 q 92 956 67 869 q 184 1089 118 1043 q 368 1135 250 1135 q 538 1099 474 1135 q 632 991 603 1064 q 661 807 661 918 l 661 765 l 514 765 l 514 800 q 504 920 514 874 q 465 990 494 967 q 371 1013 435 1013 q 270 981 301 1013 q 231 894 239 949 q 224 769 224 839 l 224 353 q 235 218 224 272 q 281 138 247 164 q 375 111 314 111 q 469 140 436 111 q 515 226 503 169 q 528 368 528 283 l 528 446 l 385 446 l 385 557 l 669 557 l 669 0 l 571 0 l 556 129 q 486 26 533 67 q 356 -14 439 -14 m 297 1254 l 297 1419 l 447 1419 l 447 1254 l 297 1254 z "},"Ǥ":{"ha":743,"x_min":67,"x_max":746,"o":"m 436 289 l 436 379 l 746 379 l 746 289 l 436 289 m 356 -14 q 187 31 250 -14 q 95 163 124 76 q 67 369 67 249 l 67 746 q 92 956 67 869 q 184 1089 118 1043 q 368 1135 250 1135 q 538 1099 474 1135 q 632 991 603 1064 q 661 807 661 918 l 661 765 l 514 765 l 514 800 q 504 920 514 874 q 465 990 494 967 q 371 1013 435 1013 q 270 981 301 1013 q 231 894 239 949 q 224 769 224 839 l 224 353 q 235 218 224 272 q 281 138 247 164 q 375 111 314 111 q 469 140 436 111 q 515 226 503 169 q 528 368 528 283 l 528 446 l 385 446 l 385 557 l 669 557 l 669 0 l 571 0 l 556 129 q 486 26 533 67 q 356 -14 439 -14 z "},"H":{"ha":779,"x_min":88,"x_max":690,"o":"m 88 0 l 88 1125 l 244 1125 l 244 639 l 533 639 l 533 1125 l 690 1125 l 690 0 l 533 0 l 533 526 l 244 526 l 244 0 l 88 0 z "},"Ħ":{"ha":779,"x_min":22,"x_max":756,"o":"m 88 0 l 88 860 l 22 860 l 22 940 l 88 940 l 88 1125 l 244 1125 l 244 940 l 533 940 l 533 1125 l 690 1125 l 690 940 l 756 940 l 756 860 l 690 860 l 690 0 l 533 0 l 533 526 l 244 526 l 244 0 l 88 0 m 244 639 l 533 639 l 533 860 l 244 860 l 244 639 z "},"Ȟ":{"ha":779,"x_min":88,"x_max":690,"o":"m 88 0 l 88 1125 l 244 1125 l 244 639 l 533 639 l 533 1125 l 690 1125 l 690 0 l 533 0 l 533 526 l 244 526 l 244 0 l 88 0 m 317 1207 l 196 1447 l 310 1447 l 390 1285 l 471 1447 l 585 1447 l 463 1207 l 317 1207 z "},"Ĥ":{"ha":779,"x_min":88,"x_max":690,"o":"m 88 0 l 88 1125 l 244 1125 l 244 639 l 533 639 l 533 1125 l 690 1125 l 690 0 l 533 0 l 533 526 l 244 526 l 244 0 l 88 0 m 194 1204 l 314 1447 l 465 1447 l 586 1204 l 474 1204 l 389 1372 l 306 1204 l 194 1204 z "},"I":{"ha":344,"x_min":96,"x_max":250,"o":"m 96 0 l 96 1125 l 250 1125 l 250 0 l 96 0 z "},"Ĳ":{"ha":763,"x_min":96,"x_max":674,"o":"m 96 0 l 96 1125 l 250 1125 l 250 0 l 96 0 m 354 -26 l 354 86 q 438 93 406 86 q 487 118 469 100 q 511 170 504 136 q 518 257 518 204 l 518 1125 l 674 1125 l 674 254 q 653 95 674 157 q 579 3 632 33 q 429 -26 526 -26 l 354 -26 z "},"Í":{"ha":344,"x_min":96,"x_max":364,"o":"m 96 0 l 96 1125 l 250 1125 l 250 0 l 96 0 m 133 1192 l 215 1467 l 364 1467 l 208 1192 l 133 1192 z "},"Ĭ":{"ha":344,"x_min":-10,"x_max":356,"o":"m 96 0 l 96 1125 l 250 1125 l 250 0 l 96 0 m 172 1213 q 31 1267 72 1213 q -10 1401 -10 1321 l 76 1401 q 99 1324 78 1351 q 172 1297 121 1297 q 247 1325 225 1297 q 268 1401 268 1353 l 356 1401 q 315 1267 356 1321 q 172 1213 274 1213 z "},"Î":{"ha":344,"x_min":-24,"x_max":368,"o":"m 96 0 l 96 1125 l 250 1125 l 250 0 l 96 0 m -24 1204 l 96 1447 l 247 1447 l 368 1204 l 256 1204 l 171 1372 l 88 1204 l -24 1204 z "},"Ȉ":{"ha":344,"x_min":-101,"x_max":307,"o":"m 96 0 l 96 1125 l 250 1125 l 250 0 l 96 0 m 54 1211 l -101 1447 l 49 1447 l 129 1211 l 54 1211 m 232 1211 l 129 1447 l 251 1447 l 307 1211 l 232 1211 z "},"Ï":{"ha":344,"x_min":-22,"x_max":367,"o":"m 96 0 l 96 1125 l 250 1125 l 250 0 l 96 0 m 217 1293 l 217 1447 l 367 1447 l 367 1293 l 217 1293 m -22 1293 l -22 1447 l 128 1447 l 128 1293 l -22 1293 z "},"İ":{"ha":344,"x_min":96,"x_max":250,"o":"m 96 0 l 96 1125 l 250 1125 l 250 0 l 96 0 m 97 1254 l 97 1419 l 247 1419 l 247 1254 l 97 1254 z "},"Ị":{"ha":344,"x_min":96,"x_max":250,"o":"m 96 0 l 96 1125 l 250 1125 l 250 0 l 96 0 m 97 -244 l 97 -87 l 247 -87 l 247 -244 l 97 -244 z "},"Ì":{"ha":344,"x_min":-17,"x_max":250,"o":"m 96 0 l 96 1125 l 250 1125 l 250 0 l 96 0 m 138 1192 l -17 1467 l 132 1467 l 211 1192 l 138 1192 z "},"Ỉ":{"ha":344,"x_min":61,"x_max":328,"o":"m 96 0 l 96 1125 l 250 1125 l 250 0 l 96 0 m 174 1206 l 126 1261 q 192 1297 167 1279 q 217 1342 217 1315 q 192 1383 217 1371 q 132 1396 168 1396 q 97 1394 115 1396 q 61 1386 79 1392 l 61 1461 q 174 1475 115 1475 q 251 1463 217 1475 q 307 1423 286 1450 q 328 1354 328 1396 q 308 1286 328 1314 q 253 1240 288 1258 q 174 1206 218 1221 z "},"Ȋ":{"ha":344,"x_min":-11,"x_max":356,"o":"m 96 0 l 96 1125 l 250 1125 l 250 0 l 96 0 m -11 1240 q 5 1345 -10 1299 q 59 1419 19 1392 q 172 1447 99 1447 q 285 1419 246 1447 q 340 1345 325 1392 q 356 1240 356 1299 l 268 1240 q 247 1335 268 1307 q 172 1363 225 1363 q 99 1334 121 1363 q 76 1240 78 1306 l -11 1240 z "},"Ī":{"ha":344,"x_min":39,"x_max":306,"o":"m 96 0 l 96 1125 l 250 1125 l 250 0 l 96 0 m 39 1274 l 39 1364 l 306 1364 l 306 1274 l 39 1274 z "},"Į":{"ha":344,"x_min":-17,"x_max":251,"o":"m 96 0 l 96 1125 l 250 1125 l 250 0 l 96 0 m 176 -321 q 104 -317 139 -321 q 42 -300 69 -312 q -1 -264 15 -287 q -17 -201 -17 -240 q 7 -114 -17 -156 q 66 -42 31 -72 q 138 0 101 -11 l 213 0 q 160 -52 188 -22 q 115 -115 133 -82 q 96 -179 96 -147 q 132 -234 96 -222 q 207 -246 168 -246 q 230 -245 218 -246 q 251 -243 242 -244 l 226 -317 q 201 -319 215 -318 q 176 -321 188 -321 z "},"Ĩ":{"ha":344,"x_min":-36,"x_max":381,"o":"m 96 0 l 96 1125 l 250 1125 l 250 0 l 96 0 m 278 1294 q 209 1312 239 1294 q 153 1346 179 1329 q 96 1363 126 1363 q 60 1350 72 1363 q 49 1306 49 1338 l -36 1306 q -26 1381 -36 1347 q 9 1435 -15 1415 q 75 1456 33 1456 q 138 1439 110 1456 q 194 1406 167 1422 q 251 1389 222 1389 q 286 1401 275 1389 q 297 1447 297 1414 l 381 1447 q 372 1371 381 1406 q 342 1315 364 1336 q 278 1294 319 1294 z "},"J":{"ha":418,"x_min":10,"x_max":329,"o":"m 10 -26 l 10 86 q 93 93 61 86 q 142 118 125 100 q 167 170 160 136 q 174 257 174 204 l 174 1125 l 329 1125 l 329 254 q 308 95 329 157 q 235 3 288 33 q 85 -26 182 -26 l 10 -26 z "},"Ĵ":{"ha":418,"x_min":10,"x_max":447,"o":"m 10 -26 l 10 86 q 93 93 61 86 q 142 118 125 100 q 167 170 160 136 q 174 257 174 204 l 174 1125 l 329 1125 l 329 254 q 308 95 329 157 q 235 3 288 33 q 85 -26 182 -26 l 10 -26 m 56 1204 l 175 1447 l 326 1447 l 447 1204 l 335 1204 l 250 1372 l 167 1204 l 56 1204 z "},"K":{"ha":688,"x_min":88,"x_max":685,"o":"m 88 0 l 88 1125 l 244 1125 l 244 594 l 503 1125 l 649 1125 l 426 629 l 685 0 l 532 0 l 317 528 l 244 397 l 244 0 l 88 0 z "},"Ǩ":{"ha":688,"x_min":88,"x_max":685,"o":"m 88 0 l 88 1125 l 244 1125 l 244 594 l 503 1125 l 649 1125 l 426 629 l 685 0 l 532 0 l 317 528 l 244 397 l 244 0 l 88 0 m 271 1207 l 150 1447 l 264 1447 l 344 1285 l 425 1447 l 539 1447 l 417 1207 l 271 1207 z "},"Ķ":{"ha":688,"x_min":88,"x_max":685,"o":"m 88 0 l 88 1125 l 244 1125 l 244 594 l 503 1125 l 649 1125 l 426 629 l 685 0 l 532 0 l 317 528 l 244 397 l 244 0 l 88 0 m 306 -399 l 268 -325 q 328 -301 311 -322 q 346 -239 346 -279 l 269 -239 l 269 -87 l 421 -87 l 419 -231 q 398 -350 418 -304 q 306 -399 378 -396 z "},"L":{"ha":551,"x_min":88,"x_max":532,"o":"m 88 0 l 88 1125 l 244 1125 l 244 113 l 532 113 l 532 0 l 88 0 z "},"Ǉ":{"ha":969,"x_min":88,"x_max":881,"o":"m 88 0 l 88 1125 l 244 1125 l 244 113 l 532 113 l 532 0 l 88 0 m 561 -26 l 561 86 q 644 93 613 86 q 694 118 676 100 q 718 170 711 136 q 725 257 725 204 l 725 1125 l 881 1125 l 881 254 q 860 95 881 157 q 786 3 839 33 q 636 -26 733 -26 l 561 -26 z "},"Ĺ":{"ha":551,"x_min":88,"x_max":532,"o":"m 88 0 l 88 1125 l 244 1125 l 244 113 l 532 113 l 532 0 l 88 0 m 128 1192 l 210 1467 l 358 1467 l 203 1192 l 128 1192 z "},"Ľ":{"ha":551,"x_min":88,"x_max":533,"o":"m 88 0 l 88 1125 l 244 1125 l 244 113 l 532 113 l 532 0 l 88 0 m 403 783 l 379 847 q 438 891 417 860 q 460 965 460 922 l 381 965 l 381 1125 l 533 1125 l 533 968 q 501 851 533 894 q 403 783 469 807 z "},"Ļ":{"ha":551,"x_min":88,"x_max":532,"o":"m 88 0 l 88 1125 l 244 1125 l 244 113 l 532 113 l 532 0 l 88 0 m 271 -399 l 233 -325 q 294 -301 276 -322 q 311 -239 311 -279 l 235 -239 l 235 -87 l 386 -87 l 385 -231 q 363 -350 383 -304 q 271 -399 343 -396 z "},"Ŀ":{"ha":551,"x_min":88,"x_max":532,"o":"m 88 0 l 88 1125 l 244 1125 l 244 113 l 532 113 l 532 0 l 88 0 m 388 529 l 388 682 l 496 682 l 496 529 l 388 529 z "},"ǈ":{"ha":871,"x_min":88,"x_max":797,"o":"m 88 0 l 88 1125 l 244 1125 l 244 113 l 532 113 l 532 0 l 88 0 m 601 -203 q 562 -201 583 -203 q 525 -193 540 -199 l 525 -86 q 544 -89 532 -87 q 564 -90 557 -90 q 614 -78 596 -90 q 640 -43 632 -65 q 647 7 647 -21 l 647 803 l 796 803 l 796 -8 q 744 -153 796 -103 q 601 -203 692 -203 m 647 922 l 647 1078 l 797 1078 l 797 922 l 647 922 z "},"Ł":{"ha":551,"x_min":-8,"x_max":532,"o":"m 88 0 l 88 524 l -8 471 l -8 592 l 88 644 l 88 1125 l 244 1125 l 244 732 l 390 811 l 390 692 l 244 611 l 244 113 l 532 113 l 532 0 l 88 0 z "},"M":{"ha":917,"x_min":85,"x_max":832,"o":"m 85 0 l 106 1125 l 260 1125 l 458 213 l 658 1125 l 811 1125 l 832 0 l 706 0 l 693 817 l 503 0 l 414 0 l 225 817 l 213 0 l 85 0 z "},"Ṁ":{"ha":917,"x_min":85,"x_max":832,"o":"m 85 0 l 106 1125 l 260 1125 l 458 213 l 658 1125 l 811 1125 l 832 0 l 706 0 l 693 817 l 503 0 l 414 0 l 225 817 l 213 0 l 85 0 m 383 1254 l 383 1419 l 533 1419 l 533 1254 l 383 1254 z "},"N":{"ha":733,"x_min":88,"x_max":644,"o":"m 88 0 l 88 1125 l 194 1125 l 514 378 l 514 1125 l 644 1125 l 644 0 l 544 0 l 221 768 l 221 0 l 88 0 z "},"Ǌ":{"ha":1151,"x_min":88,"x_max":1063,"o":"m 88 0 l 88 1125 l 194 1125 l 514 378 l 514 1125 l 644 1125 l 644 0 l 544 0 l 221 768 l 221 0 l 88 0 m 743 -26 l 743 86 q 826 93 794 86 q 876 118 858 100 q 900 170 893 136 q 907 257 907 204 l 907 1125 l 1063 1125 l 1063 254 q 1042 95 1063 157 q 968 3 1021 33 q 818 -26 915 -26 l 743 -26 z "},"Ń":{"ha":733,"x_min":88,"x_max":644,"o":"m 88 0 l 88 1125 l 194 1125 l 514 378 l 514 1125 l 644 1125 l 644 0 l 544 0 l 221 768 l 221 0 l 88 0 m 328 1192 l 410 1467 l 558 1467 l 403 1192 l 328 1192 z "},"Ň":{"ha":733,"x_min":88,"x_max":644,"o":"m 88 0 l 88 1125 l 194 1125 l 514 378 l 514 1125 l 644 1125 l 644 0 l 544 0 l 221 768 l 221 0 l 88 0 m 293 1207 l 172 1447 l 286 1447 l 367 1285 l 447 1447 l 561 1447 l 439 1207 l 293 1207 z "},"Ņ":{"ha":733,"x_min":88,"x_max":644,"o":"m 88 0 l 88 1125 l 194 1125 l 514 378 l 514 1125 l 644 1125 l 644 0 l 544 0 l 221 768 l 221 0 l 88 0 m 328 -399 l 290 -325 q 351 -301 333 -322 q 368 -239 368 -279 l 292 -239 l 292 -87 l 443 -87 l 442 -231 q 420 -350 440 -304 q 328 -399 400 -396 z "},"Ŋ":{"ha":738,"x_min":88,"x_max":644,"o":"m 371 -254 l 371 -147 q 473 -133 442 -147 q 513 -83 504 -118 q 521 13 521 -47 l 521 58 l 213 768 l 213 0 l 88 0 l 88 1125 l 194 1125 l 522 378 l 522 1125 l 644 1125 l 644 0 q 626 -140 644 -83 q 561 -225 608 -196 q 424 -254 514 -254 l 371 -254 z "},"ǋ":{"ha":1053,"x_min":88,"x_max":979,"o":"m 88 0 l 88 1125 l 194 1125 l 514 378 l 514 1125 l 644 1125 l 644 0 l 544 0 l 221 768 l 221 0 l 88 0 m 783 -203 q 744 -201 765 -203 q 707 -193 722 -199 l 707 -86 q 726 -89 714 -87 q 746 -90 739 -90 q 796 -78 778 -90 q 822 -43 814 -65 q 829 7 829 -21 l 829 803 l 978 803 l 978 -8 q 926 -153 978 -103 q 783 -203 874 -203 m 829 922 l 829 1078 l 979 1078 l 979 922 l 829 922 z "},"Ñ":{"ha":733,"x_min":88,"x_max":644,"o":"m 88 0 l 88 1125 l 194 1125 l 514 378 l 514 1125 l 644 1125 l 644 0 l 544 0 l 221 768 l 221 0 l 88 0 m 472 1294 q 403 1312 433 1294 q 347 1346 374 1329 q 290 1363 321 1363 q 255 1350 267 1363 q 243 1306 243 1338 l 158 1306 q 169 1381 158 1347 q 203 1435 179 1415 q 269 1456 228 1456 q 333 1439 304 1456 q 389 1406 361 1422 q 446 1389 417 1389 q 481 1401 469 1389 q 492 1447 492 1414 l 575 1447 q 567 1371 575 1406 q 536 1315 558 1336 q 472 1294 514 1294 z "},"O":{"ha":749,"x_min":67,"x_max":682,"o":"m 375 -12 q 193 32 261 -12 q 96 159 125 76 q 67 353 67 242 l 67 779 q 97 970 67 890 q 194 1092 126 1050 q 375 1135 261 1135 q 556 1092 489 1135 q 652 969 622 1049 q 682 779 682 890 l 682 351 q 652 160 682 242 q 556 33 622 78 q 375 -12 489 -12 m 375 111 q 469 137 438 111 q 513 209 501 163 q 524 318 524 256 l 524 811 q 513 919 524 874 q 469 988 501 964 q 375 1013 438 1013 q 280 988 313 1013 q 236 919 247 964 q 225 811 225 874 l 225 318 q 236 209 225 256 q 280 137 247 163 q 375 111 313 111 z "},"Ó":{"ha":749,"x_min":67,"x_max":682,"o":"m 375 -12 q 193 32 261 -12 q 96 159 125 76 q 67 353 67 242 l 67 779 q 97 970 67 890 q 194 1092 126 1050 q 375 1135 261 1135 q 556 1092 489 1135 q 652 969 622 1049 q 682 779 682 890 l 682 351 q 652 160 682 242 q 556 33 622 78 q 375 -12 489 -12 m 375 111 q 469 137 438 111 q 513 209 501 163 q 524 318 524 256 l 524 811 q 513 919 524 874 q 469 988 501 964 q 375 1013 438 1013 q 280 988 313 1013 q 236 919 247 964 q 225 811 225 874 l 225 318 q 236 209 225 256 q 280 137 247 163 q 375 111 313 111 m 336 1192 l 418 1467 l 567 1467 l 411 1192 l 336 1192 z "},"Ŏ":{"ha":749,"x_min":67,"x_max":682,"o":"m 375 -12 q 193 32 261 -12 q 96 159 125 76 q 67 353 67 242 l 67 779 q 97 970 67 890 q 194 1092 126 1050 q 375 1135 261 1135 q 556 1092 489 1135 q 652 969 622 1049 q 682 779 682 890 l 682 351 q 652 160 682 242 q 556 33 622 78 q 375 -12 489 -12 m 375 111 q 469 137 438 111 q 513 209 501 163 q 524 318 524 256 l 524 811 q 513 919 524 874 q 469 988 501 964 q 375 1013 438 1013 q 280 988 313 1013 q 236 919 247 964 q 225 811 225 874 l 225 318 q 236 209 225 256 q 280 137 247 163 q 375 111 313 111 m 375 1213 q 234 1267 275 1213 q 193 1401 193 1321 l 279 1401 q 302 1324 281 1351 q 375 1297 324 1297 q 449 1325 428 1297 q 471 1401 471 1353 l 558 1401 q 517 1267 558 1321 q 375 1213 476 1213 z "},"Ô":{"ha":749,"x_min":67,"x_max":682,"o":"m 375 -12 q 193 32 261 -12 q 96 159 125 76 q 67 353 67 242 l 67 779 q 97 970 67 890 q 194 1092 126 1050 q 375 1135 261 1135 q 556 1092 489 1135 q 652 969 622 1049 q 682 779 682 890 l 682 351 q 652 160 682 242 q 556 33 622 78 q 375 -12 489 -12 m 375 111 q 469 137 438 111 q 513 209 501 163 q 524 318 524 256 l 524 811 q 513 919 524 874 q 469 988 501 964 q 375 1013 438 1013 q 280 988 313 1013 q 236 919 247 964 q 225 811 225 874 l 225 318 q 236 209 225 256 q 280 137 247 163 q 375 111 313 111 m 179 1204 l 299 1447 l 450 1447 l 571 1204 l 458 1204 l 374 1372 l 290 1204 l 179 1204 z "},"Ố":{"ha":749,"x_min":67,"x_max":754,"o":"m 375 -12 q 193 32 261 -12 q 96 159 125 76 q 67 353 67 242 l 67 779 q 97 970 67 890 q 194 1092 126 1050 q 375 1135 261 1135 q 556 1092 489 1135 q 652 969 622 1049 q 682 779 682 890 l 682 351 q 652 160 682 242 q 556 33 622 78 q 375 -12 489 -12 m 375 111 q 469 137 438 111 q 513 209 501 163 q 524 318 524 256 l 524 811 q 513 919 524 874 q 469 988 501 964 q 375 1013 438 1013 q 280 988 313 1013 q 236 919 247 964 q 225 811 225 874 l 225 318 q 236 209 225 256 q 280 137 247 163 q 375 111 313 111 m 179 1204 l 299 1419 l 450 1419 l 571 1204 l 458 1204 l 374 1344 l 290 1204 l 179 1204 m 551 1349 l 625 1508 l 754 1508 l 643 1349 l 551 1349 z "},"Ộ":{"ha":749,"x_min":67,"x_max":682,"o":"m 375 -12 q 193 32 261 -12 q 96 159 125 76 q 67 353 67 242 l 67 779 q 97 970 67 890 q 194 1092 126 1050 q 375 1135 261 1135 q 556 1092 489 1135 q 652 969 622 1049 q 682 779 682 890 l 682 351 q 652 160 682 242 q 556 33 622 78 q 375 -12 489 -12 m 375 111 q 469 137 438 111 q 513 209 501 163 q 524 318 524 256 l 524 811 q 513 919 524 874 q 469 988 501 964 q 375 1013 438 1013 q 280 988 313 1013 q 236 919 247 964 q 225 811 225 874 l 225 318 q 236 209 225 256 q 280 137 247 163 q 375 111 313 111 m 179 1204 l 299 1419 l 450 1419 l 571 1204 l 458 1204 l 374 1344 l 290 1204 l 179 1204 m 300 -244 l 300 -87 l 450 -87 l 450 -244 l 300 -244 z "},"Ồ":{"ha":749,"x_min":67,"x_max":682,"o":"m 375 -12 q 193 32 261 -12 q 96 159 125 76 q 67 353 67 242 l 67 779 q 97 970 67 890 q 194 1092 126 1050 q 375 1135 261 1135 q 556 1092 489 1135 q 652 969 622 1049 q 682 779 682 890 l 682 351 q 652 160 682 242 q 556 33 622 78 q 375 -12 489 -12 m 375 111 q 469 137 438 111 q 513 209 501 163 q 524 318 524 256 l 524 811 q 513 919 524 874 q 469 988 501 964 q 375 1013 438 1013 q 280 988 313 1013 q 236 919 247 964 q 225 811 225 874 l 225 318 q 236 209 225 256 q 280 137 247 163 q 375 111 313 111 m 179 1204 l 299 1419 l 450 1419 l 571 1204 l 458 1204 l 374 1344 l 290 1204 l 179 1204 m 586 1349 l 475 1508 l 604 1508 l 678 1349 l 586 1349 z "},"Ổ":{"ha":749,"x_min":67,"x_max":715,"o":"m 375 -12 q 193 32 261 -12 q 96 159 125 76 q 67 353 67 242 l 67 779 q 97 970 67 890 q 194 1092 126 1050 q 375 1135 261 1135 q 556 1092 489 1135 q 652 969 622 1049 q 682 779 682 890 l 682 351 q 652 160 682 242 q 556 33 622 78 q 375 -12 489 -12 m 375 111 q 469 137 438 111 q 513 209 501 163 q 524 318 524 256 l 524 811 q 513 919 524 874 q 469 988 501 964 q 375 1013 438 1013 q 280 988 313 1013 q 236 919 247 964 q 225 811 225 874 l 225 318 q 236 209 225 256 q 280 137 247 163 q 375 111 313 111 m 585 1318 l 538 1374 q 586 1410 568 1392 q 604 1454 604 1428 q 584 1496 604 1483 q 536 1508 564 1508 q 505 1506 522 1508 q 472 1499 488 1504 l 472 1574 q 522 1584 497 1581 q 574 1588 547 1588 q 674 1558 633 1588 q 715 1467 715 1529 q 678 1374 715 1406 q 585 1318 642 1342 m 179 1204 l 299 1419 l 450 1419 l 571 1204 l 458 1204 l 374 1344 l 290 1204 l 179 1204 z "},"Ỗ":{"ha":749,"x_min":67,"x_max":682,"o":"m 375 -12 q 193 32 261 -12 q 96 159 125 76 q 67 353 67 242 l 67 779 q 97 970 67 890 q 194 1092 126 1050 q 375 1135 261 1135 q 556 1092 489 1135 q 652 969 622 1049 q 682 779 682 890 l 682 351 q 652 160 682 242 q 556 33 622 78 q 375 -12 489 -12 m 375 111 q 469 137 438 111 q 513 209 501 163 q 524 318 524 256 l 524 811 q 513 919 524 874 q 469 988 501 964 q 375 1013 438 1013 q 280 988 313 1013 q 236 919 247 964 q 225 811 225 874 l 225 318 q 236 209 225 256 q 280 137 247 163 q 375 111 313 111 z "},"Ȍ":{"ha":749,"x_min":67,"x_max":682,"o":"m 375 -12 q 193 32 261 -12 q 96 159 125 76 q 67 353 67 242 l 67 779 q 97 970 67 890 q 194 1092 126 1050 q 375 1135 261 1135 q 556 1092 489 1135 q 652 969 622 1049 q 682 779 682 890 l 682 351 q 652 160 682 242 q 556 33 622 78 q 375 -12 489 -12 m 375 111 q 469 137 438 111 q 513 209 501 163 q 524 318 524 256 l 524 811 q 513 919 524 874 q 469 988 501 964 q 375 1013 438 1013 q 280 988 313 1013 q 236 919 247 964 q 225 811 225 874 l 225 318 q 236 209 225 256 q 280 137 247 163 q 375 111 313 111 m 257 1211 l 101 1447 l 251 1447 l 332 1211 l 257 1211 m 435 1211 l 332 1447 l 454 1447 l 510 1211 l 435 1211 z "},"Ö":{"ha":749,"x_min":67,"x_max":682,"o":"m 375 -12 q 193 32 261 -12 q 96 159 125 76 q 67 353 67 242 l 67 779 q 97 970 67 890 q 194 1092 126 1050 q 375 1135 261 1135 q 556 1092 489 1135 q 652 969 622 1049 q 682 779 682 890 l 682 351 q 652 160 682 242 q 556 33 622 78 q 375 -12 489 -12 m 375 111 q 469 137 438 111 q 513 209 501 163 q 524 318 524 256 l 524 811 q 513 919 524 874 q 469 988 501 964 q 375 1013 438 1013 q 280 988 313 1013 q 236 919 247 964 q 225 811 225 874 l 225 318 q 236 209 225 256 q 280 137 247 163 q 375 111 313 111 m 419 1293 l 419 1447 l 569 1447 l 569 1293 l 419 1293 m 181 1293 l 181 1447 l 331 1447 l 331 1293 l 181 1293 z "},"Ȫ":{"ha":749,"x_min":67,"x_max":682,"o":"m 375 -12 q 193 32 261 -12 q 96 159 125 76 q 67 353 67 242 l 67 779 q 97 970 67 890 q 194 1092 126 1050 q 375 1135 261 1135 q 556 1092 489 1135 q 652 969 622 1049 q 682 779 682 890 l 682 351 q 652 160 682 242 q 556 33 622 78 q 375 -12 489 -12 m 375 111 q 469 137 438 111 q 513 209 501 163 q 524 318 524 256 l 524 811 q 513 919 524 874 q 469 988 501 964 q 375 1013 438 1013 q 280 988 313 1013 q 236 919 247 964 q 225 811 225 874 l 225 318 q 236 209 225 256 q 280 137 247 163 q 375 111 313 111 m 419 1293 l 419 1447 l 569 1447 l 569 1293 l 419 1293 m 181 1293 l 181 1447 l 331 1447 l 331 1293 l 181 1293 m 242 1596 l 242 1686 l 508 1686 l 508 1596 l 242 1596 z "},"Ȱ":{"ha":749,"x_min":67,"x_max":682,"o":"m 375 -12 q 193 32 261 -12 q 96 159 125 76 q 67 353 67 242 l 67 779 q 97 970 67 890 q 194 1092 126 1050 q 375 1135 261 1135 q 556 1092 489 1135 q 652 969 622 1049 q 682 779 682 890 l 682 351 q 652 160 682 242 q 556 33 622 78 q 375 -12 489 -12 m 375 111 q 469 137 438 111 q 513 209 501 163 q 524 318 524 256 l 524 811 q 513 919 524 874 q 469 988 501 964 q 375 1013 438 1013 q 280 988 313 1013 q 236 919 247 964 q 225 811 225 874 l 225 318 q 236 209 225 256 q 280 137 247 163 q 375 111 313 111 m 300 1254 l 300 1419 l 450 1419 l 450 1254 l 300 1254 m 242 1568 l 242 1658 l 508 1658 l 508 1568 l 242 1568 z "},"Ọ":{"ha":749,"x_min":67,"x_max":682,"o":"m 375 -12 q 193 32 261 -12 q 96 159 125 76 q 67 353 67 242 l 67 779 q 97 970 67 890 q 194 1092 126 1050 q 375 1135 261 1135 q 556 1092 489 1135 q 652 969 622 1049 q 682 779 682 890 l 682 351 q 652 160 682 242 q 556 33 622 78 q 375 -12 489 -12 m 375 111 q 469 137 438 111 q 513 209 501 163 q 524 318 524 256 l 524 811 q 513 919 524 874 q 469 988 501 964 q 375 1013 438 1013 q 280 988 313 1013 q 236 919 247 964 q 225 811 225 874 l 225 318 q 236 209 225 256 q 280 137 247 163 q 375 111 313 111 m 300 -244 l 300 -87 l 450 -87 l 450 -244 l 300 -244 z "},"Ò":{"ha":749,"x_min":67,"x_max":682,"o":"m 375 -12 q 193 32 261 -12 q 96 159 125 76 q 67 353 67 242 l 67 779 q 97 970 67 890 q 194 1092 126 1050 q 375 1135 261 1135 q 556 1092 489 1135 q 652 969 622 1049 q 682 779 682 890 l 682 351 q 652 160 682 242 q 556 33 622 78 q 375 -12 489 -12 m 375 111 q 469 137 438 111 q 513 209 501 163 q 524 318 524 256 l 524 811 q 513 919 524 874 q 469 988 501 964 q 375 1013 438 1013 q 280 988 313 1013 q 236 919 247 964 q 225 811 225 874 l 225 318 q 236 209 225 256 q 280 137 247 163 q 375 111 313 111 m 340 1192 l 186 1467 l 335 1467 l 414 1192 l 340 1192 z "},"Ỏ":{"ha":749,"x_min":67,"x_max":682,"o":"m 375 -12 q 193 32 261 -12 q 96 159 125 76 q 67 353 67 242 l 67 779 q 97 970 67 890 q 194 1092 126 1050 q 375 1135 261 1135 q 556 1092 489 1135 q 652 969 622 1049 q 682 779 682 890 l 682 351 q 652 160 682 242 q 556 33 622 78 q 375 -12 489 -12 m 375 111 q 469 137 438 111 q 513 209 501 163 q 524 318 524 256 l 524 811 q 513 919 524 874 q 469 988 501 964 q 375 1013 438 1013 q 280 988 313 1013 q 236 919 247 964 q 225 811 225 874 l 225 318 q 236 209 225 256 q 280 137 247 163 q 375 111 313 111 m 376 1206 l 329 1261 q 394 1297 369 1279 q 419 1342 419 1315 q 395 1383 419 1371 q 335 1396 371 1396 q 300 1394 318 1396 q 264 1386 282 1392 l 264 1461 q 376 1475 318 1475 q 454 1463 419 1475 q 510 1423 489 1450 q 531 1354 531 1396 q 510 1286 531 1314 q 456 1240 490 1258 q 376 1206 421 1221 z "},"Ơ":{"ha":749,"x_min":67,"x_max":682,"o":"m 375 -12 q 193 32 261 -12 q 96 159 125 76 q 67 353 67 242 l 67 779 q 97 970 67 890 q 194 1092 126 1050 q 375 1135 261 1135 q 556 1092 489 1135 q 652 969 622 1049 q 682 779 682 890 l 682 351 q 652 160 682 242 q 556 33 622 78 q 375 -12 489 -12 m 375 111 q 469 137 438 111 q 513 209 501 163 q 524 318 524 256 l 524 811 q 513 919 524 874 q 469 988 501 964 q 375 1013 438 1013 q 280 988 313 1013 q 236 919 247 964 q 225 811 225 874 l 225 318 q 236 209 225 256 q 280 137 247 163 q 375 111 313 111 m 436 1047 l 436 1125 l 464 1125 q 522 1151 506 1125 q 539 1228 539 1176 l 654 1228 q 606 1092 654 1138 q 467 1047 557 1047 l 436 1047 z "},"Ớ":{"ha":749,"x_min":67,"x_max":682,"o":"m 375 -12 q 193 32 261 -12 q 96 159 125 76 q 67 353 67 242 l 67 779 q 97 970 67 890 q 194 1092 126 1050 q 375 1135 261 1135 q 556 1092 489 1135 q 652 969 622 1049 q 682 779 682 890 l 682 351 q 652 160 682 242 q 556 33 622 78 q 375 -12 489 -12 m 375 111 q 469 137 438 111 q 513 209 501 163 q 524 318 524 256 l 524 811 q 513 919 524 874 q 469 988 501 964 q 375 1013 438 1013 q 280 988 313 1013 q 236 919 247 964 q 225 811 225 874 l 225 318 q 236 209 225 256 q 280 137 247 163 q 375 111 313 111 m 436 1047 l 436 1125 l 464 1125 q 522 1151 506 1125 q 539 1228 539 1176 l 654 1228 q 606 1092 654 1138 q 467 1047 557 1047 l 436 1047 m 336 1192 l 418 1467 l 567 1467 l 411 1192 l 336 1192 z "},"Ợ":{"ha":749,"x_min":67,"x_max":682,"o":"m 375 -12 q 193 32 261 -12 q 96 159 125 76 q 67 353 67 242 l 67 779 q 97 970 67 890 q 194 1092 126 1050 q 375 1135 261 1135 q 556 1092 489 1135 q 652 969 622 1049 q 682 779 682 890 l 682 351 q 652 160 682 242 q 556 33 622 78 q 375 -12 489 -12 m 375 111 q 469 137 438 111 q 513 209 501 163 q 524 318 524 256 l 524 811 q 513 919 524 874 q 469 988 501 964 q 375 1013 438 1013 q 280 988 313 1013 q 236 919 247 964 q 225 811 225 874 l 225 318 q 236 209 225 256 q 280 137 247 163 q 375 111 313 111 m 436 1047 l 436 1125 l 464 1125 q 522 1151 506 1125 q 539 1228 539 1176 l 654 1228 q 606 1092 654 1138 q 467 1047 557 1047 l 436 1047 m 300 -244 l 300 -87 l 450 -87 l 450 -244 l 300 -244 z "},"Ờ":{"ha":749,"x_min":67,"x_max":682,"o":"m 375 -12 q 193 32 261 -12 q 96 159 125 76 q 67 353 67 242 l 67 779 q 97 970 67 890 q 194 1092 126 1050 q 375 1135 261 1135 q 556 1092 489 1135 q 652 969 622 1049 q 682 779 682 890 l 682 351 q 652 160 682 242 q 556 33 622 78 q 375 -12 489 -12 m 375 111 q 469 137 438 111 q 513 209 501 163 q 524 318 524 256 l 524 811 q 513 919 524 874 q 469 988 501 964 q 375 1013 438 1013 q 280 988 313 1013 q 236 919 247 964 q 225 811 225 874 l 225 318 q 236 209 225 256 q 280 137 247 163 q 375 111 313 111 m 436 1047 l 436 1125 l 464 1125 q 522 1151 506 1125 q 539 1228 539 1176 l 654 1228 q 606 1092 654 1138 q 467 1047 557 1047 l 436 1047 m 340 1192 l 186 1467 l 335 1467 l 414 1192 l 340 1192 z "},"Ở":{"ha":749,"x_min":67,"x_max":682,"o":"m 375 -12 q 193 32 261 -12 q 96 159 125 76 q 67 353 67 242 l 67 779 q 97 970 67 890 q 194 1092 126 1050 q 375 1135 261 1135 q 556 1092 489 1135 q 652 969 622 1049 q 682 779 682 890 l 682 351 q 652 160 682 242 q 556 33 622 78 q 375 -12 489 -12 m 375 111 q 469 137 438 111 q 513 209 501 163 q 524 318 524 256 l 524 811 q 513 919 524 874 q 469 988 501 964 q 375 1013 438 1013 q 280 988 313 1013 q 236 919 247 964 q 225 811 225 874 l 225 318 q 236 209 225 256 q 280 137 247 163 q 375 111 313 111 m 436 1047 l 436 1125 l 464 1125 q 522 1151 506 1125 q 539 1228 539 1176 l 654 1228 q 606 1092 654 1138 q 467 1047 557 1047 l 436 1047 m 376 1206 l 329 1261 q 394 1297 369 1279 q 419 1342 419 1315 q 395 1383 419 1371 q 335 1396 371 1396 q 300 1394 318 1396 q 264 1386 282 1392 l 264 1461 q 376 1475 318 1475 q 454 1463 419 1475 q 510 1423 489 1450 q 531 1354 531 1396 q 510 1286 531 1314 q 456 1240 490 1258 q 376 1206 421 1221 z "},"Ỡ":{"ha":749,"x_min":67,"x_max":682,"o":"m 375 -12 q 193 32 261 -12 q 96 159 125 76 q 67 353 67 242 l 67 779 q 97 970 67 890 q 194 1092 126 1050 q 375 1135 261 1135 q 556 1092 489 1135 q 652 969 622 1049 q 682 779 682 890 l 682 351 q 652 160 682 242 q 556 33 622 78 q 375 -12 489 -12 m 375 111 q 469 137 438 111 q 513 209 501 163 q 524 318 524 256 l 524 811 q 513 919 524 874 q 469 988 501 964 q 375 1013 438 1013 q 280 988 313 1013 q 236 919 247 964 q 225 811 225 874 l 225 318 q 236 209 225 256 q 280 137 247 163 q 375 111 313 111 m 436 1047 l 436 1125 l 464 1125 q 522 1151 506 1125 q 539 1228 539 1176 l 654 1228 q 606 1092 654 1138 q 467 1047 557 1047 l 436 1047 m 481 1294 q 412 1312 442 1294 q 356 1346 382 1329 q 299 1363 329 1363 q 263 1350 275 1363 q 251 1306 251 1338 l 167 1306 q 177 1381 167 1347 q 212 1435 188 1415 q 278 1456 236 1456 q 341 1439 313 1456 q 397 1406 369 1422 q 454 1389 425 1389 q 489 1401 478 1389 q 500 1447 500 1414 l 583 1447 q 575 1371 583 1406 q 544 1315 567 1336 q 481 1294 522 1294 z "},"Ő":{"ha":749,"x_min":67,"x_max":682,"o":"m 375 -12 q 193 32 261 -12 q 96 159 125 76 q 67 353 67 242 l 67 779 q 97 970 67 890 q 194 1092 126 1050 q 375 1135 261 1135 q 556 1092 489 1135 q 652 969 622 1049 q 682 779 682 890 l 682 351 q 652 160 682 242 q 556 33 622 78 q 375 -12 489 -12 m 375 111 q 469 137 438 111 q 513 209 501 163 q 524 318 524 256 l 524 811 q 513 919 524 874 q 469 988 501 964 q 375 1013 438 1013 q 280 988 313 1013 q 236 919 247 964 q 225 811 225 874 l 225 318 q 236 209 225 256 q 280 137 247 163 q 375 111 313 111 m 431 1211 l 511 1449 l 661 1449 l 507 1211 l 431 1211 m 256 1211 l 310 1449 l 432 1449 l 331 1211 l 256 1211 z "},"Ȏ":{"ha":749,"x_min":67,"x_max":682,"o":"m 375 -12 q 193 32 261 -12 q 96 159 125 76 q 67 353 67 242 l 67 779 q 97 970 67 890 q 194 1092 126 1050 q 375 1135 261 1135 q 556 1092 489 1135 q 652 969 622 1049 q 682 779 682 890 l 682 351 q 652 160 682 242 q 556 33 622 78 q 375 -12 489 -12 m 375 111 q 469 137 438 111 q 513 209 501 163 q 524 318 524 256 l 524 811 q 513 919 524 874 q 469 988 501 964 q 375 1013 438 1013 q 280 988 313 1013 q 236 919 247 964 q 225 811 225 874 l 225 318 q 236 209 225 256 q 280 137 247 163 q 375 111 313 111 m 192 1240 q 208 1345 193 1299 q 262 1419 222 1392 q 375 1447 301 1447 q 488 1419 449 1447 q 543 1345 528 1392 q 558 1240 558 1299 l 471 1240 q 449 1335 471 1307 q 375 1363 428 1363 q 302 1334 324 1363 q 279 1240 281 1306 l 192 1240 z "},"Ō":{"ha":749,"x_min":67,"x_max":682,"o":"m 375 -12 q 193 32 261 -12 q 96 159 125 76 q 67 353 67 242 l 67 779 q 97 970 67 890 q 194 1092 126 1050 q 375 1135 261 1135 q 556 1092 489 1135 q 652 969 622 1049 q 682 779 682 890 l 682 351 q 652 160 682 242 q 556 33 622 78 q 375 -12 489 -12 m 375 111 q 469 137 438 111 q 513 209 501 163 q 524 318 524 256 l 524 811 q 513 919 524 874 q 469 988 501 964 q 375 1013 438 1013 q 280 988 313 1013 q 236 919 247 964 q 225 811 225 874 l 225 318 q 236 209 225 256 q 280 137 247 163 q 375 111 313 111 m 242 1274 l 242 1364 l 508 1364 l 508 1274 l 242 1274 z "},"Ǫ":{"ha":749,"x_min":67,"x_max":682,"o":"m 375 -12 q 193 32 261 -12 q 96 159 125 76 q 67 353 67 242 l 67 779 q 97 970 67 890 q 194 1092 126 1050 q 375 1135 261 1135 q 556 1092 489 1135 q 652 969 622 1049 q 682 779 682 890 l 682 351 q 652 160 682 242 q 556 33 622 78 q 375 -12 489 -12 m 375 111 q 469 137 438 111 q 513 209 501 163 q 524 318 524 256 l 524 811 q 513 919 524 874 q 469 988 501 964 q 375 1013 438 1013 q 280 988 313 1013 q 236 919 247 964 q 225 811 225 874 l 225 318 q 236 209 225 256 q 280 137 247 163 q 375 111 313 111 m 433 -321 q 361 -317 396 -321 q 299 -300 326 -312 q 256 -264 272 -287 q 240 -201 240 -240 q 264 -114 240 -156 q 323 -42 288 -72 q 394 0 358 -11 l 469 0 q 417 -52 444 -22 q 372 -115 390 -82 q 353 -179 353 -147 q 389 -234 353 -222 q 464 -246 425 -246 q 487 -245 475 -246 q 508 -243 499 -244 l 483 -317 q 458 -319 472 -318 q 433 -321 444 -321 z "},"Ø":{"ha":750,"x_min":67,"x_max":682,"o":"m 222 -103 l 168 -86 l 518 1222 l 574 1208 l 222 -103 m 375 -12 q 193 32 261 -12 q 96 159 125 76 q 67 353 67 242 l 67 779 q 97 970 67 890 q 194 1092 126 1050 q 375 1135 261 1135 q 556 1092 489 1135 q 652 969 622 1049 q 682 779 682 890 l 682 351 q 652 160 682 242 q 556 33 622 78 q 375 -12 489 -12 m 375 111 q 469 137 438 111 q 513 209 501 163 q 524 318 524 256 l 524 811 q 513 919 524 874 q 469 988 501 964 q 375 1013 438 1013 q 280 988 313 1013 q 236 919 247 964 q 225 811 225 874 l 225 318 q 236 209 225 256 q 280 137 247 163 q 375 111 313 111 z "},"Ǿ":{"ha":750,"x_min":67,"x_max":682,"o":"m 222 -103 l 168 -86 l 518 1222 l 574 1208 l 222 -103 m 375 -12 q 193 32 261 -12 q 96 159 125 76 q 67 353 67 242 l 67 779 q 97 970 67 890 q 194 1092 126 1050 q 375 1135 261 1135 q 556 1092 489 1135 q 652 969 622 1049 q 682 779 682 890 l 682 351 q 652 160 682 242 q 556 33 622 78 q 375 -12 489 -12 m 375 111 q 469 137 438 111 q 513 209 501 163 q 524 318 524 256 l 524 811 q 513 919 524 874 q 469 988 501 964 q 375 1013 438 1013 q 280 988 313 1013 q 236 919 247 964 q 225 811 225 874 l 225 318 q 236 209 225 256 q 280 137 247 163 q 375 111 313 111 m 336 1192 l 418 1467 l 567 1467 l 411 1192 l 336 1192 z "},"Õ":{"ha":749,"x_min":67,"x_max":682,"o":"m 375 -12 q 193 32 261 -12 q 96 159 125 76 q 67 353 67 242 l 67 779 q 97 970 67 890 q 194 1092 126 1050 q 375 1135 261 1135 q 556 1092 489 1135 q 652 969 622 1049 q 682 779 682 890 l 682 351 q 652 160 682 242 q 556 33 622 78 q 375 -12 489 -12 m 375 111 q 469 137 438 111 q 513 209 501 163 q 524 318 524 256 l 524 811 q 513 919 524 874 q 469 988 501 964 q 375 1013 438 1013 q 280 988 313 1013 q 236 919 247 964 q 225 811 225 874 l 225 318 q 236 209 225 256 q 280 137 247 163 q 375 111 313 111 m 481 1294 q 412 1312 442 1294 q 356 1346 382 1329 q 299 1363 329 1363 q 263 1350 275 1363 q 251 1306 251 1338 l 167 1306 q 177 1381 167 1347 q 212 1435 188 1415 q 278 1456 236 1456 q 341 1439 313 1456 q 397 1406 369 1422 q 454 1389 425 1389 q 489 1401 478 1389 q 500 1447 500 1414 l 583 1447 q 575 1371 583 1406 q 544 1315 567 1336 q 481 1294 522 1294 z "},"Ȭ":{"ha":749,"x_min":67,"x_max":682,"o":"m 375 -12 q 193 32 261 -12 q 96 159 125 76 q 67 353 67 242 l 67 779 q 97 970 67 890 q 194 1092 126 1050 q 375 1135 261 1135 q 556 1092 489 1135 q 652 969 622 1049 q 682 779 682 890 l 682 351 q 652 160 682 242 q 556 33 622 78 q 375 -12 489 -12 m 375 111 q 469 137 438 111 q 513 209 501 163 q 524 318 524 256 l 524 811 q 513 919 524 874 q 469 988 501 964 q 375 1013 438 1013 q 280 988 313 1013 q 236 919 247 964 q 225 811 225 874 l 225 318 q 236 209 225 256 q 280 137 247 163 q 375 111 313 111 m 481 1294 q 412 1312 442 1294 q 356 1346 382 1329 q 299 1363 329 1363 q 263 1350 275 1363 q 251 1306 251 1338 l 167 1306 q 177 1381 167 1347 q 212 1435 188 1415 q 278 1456 236 1456 q 341 1439 313 1456 q 397 1406 369 1422 q 454 1389 425 1389 q 489 1401 478 1389 q 500 1447 500 1414 l 583 1447 q 575 1371 583 1406 q 544 1315 567 1336 q 481 1294 522 1294 m 242 1604 l 242 1694 l 508 1694 l 508 1604 l 242 1604 z "},"Œ":{"ha":949,"x_min":67,"x_max":911,"o":"m 400 0 q 202 38 275 0 q 98 153 129 76 q 67 343 67 229 l 67 758 q 98 960 67 878 q 200 1083 129 1042 q 389 1125 271 1125 l 908 1125 l 908 1008 l 635 1008 l 635 638 l 857 638 l 857 525 l 635 525 l 635 113 l 911 113 l 911 0 l 400 0 m 403 117 l 478 117 l 478 1013 l 400 1013 q 278 980 315 1013 q 233 884 242 947 q 225 729 225 821 l 225 360 q 236 221 225 275 q 285 142 247 167 q 403 117 322 117 z "},"P":{"ha":667,"x_min":88,"x_max":644,"o":"m 88 0 l 88 1125 l 367 1125 q 528 1088 468 1125 q 617 982 589 1051 q 644 814 644 913 q 613 660 644 725 q 521 559 582 594 q 368 524 460 524 l 244 524 l 244 0 l 88 0 m 244 636 l 317 636 q 424 651 385 636 q 479 705 463 667 q 496 813 496 743 q 484 936 496 893 q 435 996 472 979 q 318 1013 397 1013 l 244 1013 l 244 636 z "},"Ṗ":{"ha":667,"x_min":88,"x_max":644,"o":"m 88 0 l 88 1125 l 367 1125 q 528 1088 468 1125 q 617 982 589 1051 q 644 814 644 913 q 613 660 644 725 q 521 559 582 594 q 368 524 460 524 l 244 524 l 244 0 l 88 0 m 244 636 l 317 636 q 424 651 385 636 q 479 705 463 667 q 496 813 496 743 q 484 936 496 893 q 435 996 472 979 q 318 1013 397 1013 l 244 1013 l 244 636 m 258 1254 l 258 1419 l 408 1419 l 408 1254 l 258 1254 z "},"Þ":{"ha":699,"x_min":88,"x_max":675,"o":"m 88 0 l 88 1125 l 244 1125 l 244 978 l 407 978 q 560 938 501 978 q 647 824 619 897 q 675 651 675 750 q 657 511 675 572 q 603 408 639 450 q 511 345 567 367 q 381 324 456 324 l 244 324 l 244 0 l 88 0 m 244 450 l 342 450 q 478 492 435 450 q 522 651 522 533 q 485 803 522 760 q 360 847 447 847 l 244 847 l 244 450 z "},"Q":{"ha":751,"x_min":67,"x_max":683,"o":"m 604 -228 q 530 -172 567 -208 q 460 -93 493 -136 q 401 -11 428 -50 q 389 -12 396 -12 q 375 -12 382 -12 q 193 32 261 -12 q 96 159 125 76 q 67 353 67 242 l 67 779 q 97 970 67 890 q 194 1092 126 1050 q 375 1135 261 1135 q 556 1092 489 1135 q 653 969 624 1049 q 683 779 683 890 l 683 351 q 667 202 683 269 q 614 87 650 135 q 518 14 578 39 q 554 -30 535 -7 q 593 -72 574 -53 q 629 -104 613 -92 l 604 -228 m 375 111 q 471 137 439 111 q 514 209 503 163 q 525 318 525 256 l 525 811 q 514 919 525 874 q 471 988 503 964 q 375 1013 439 1013 q 280 988 313 1013 q 236 919 247 964 q 225 811 225 874 l 225 318 q 236 209 225 256 q 280 137 247 163 q 375 111 313 111 z "},"R":{"ha":721,"x_min":88,"x_max":665,"o":"m 88 0 l 88 1125 l 314 1125 q 500 1095 426 1125 q 609 999 574 1065 q 644 826 644 933 q 631 708 644 761 q 586 617 617 654 q 506 564 556 581 l 665 0 l 514 0 l 367 528 l 244 528 l 244 0 l 88 0 m 244 640 l 304 640 q 413 657 371 640 q 474 714 454 674 q 493 826 493 754 q 457 969 493 925 q 314 1013 421 1013 l 244 1013 l 244 640 z "},"Ŕ":{"ha":721,"x_min":88,"x_max":665,"o":"m 88 0 l 88 1125 l 314 1125 q 500 1095 426 1125 q 609 999 574 1065 q 644 826 644 933 q 631 708 644 761 q 586 617 617 654 q 506 564 556 581 l 665 0 l 514 0 l 367 528 l 244 528 l 244 0 l 88 0 m 244 640 l 304 640 q 413 657 371 640 q 474 714 454 674 q 493 826 493 754 q 457 969 493 925 q 314 1013 421 1013 l 244 1013 l 244 640 m 322 1192 l 404 1467 l 553 1467 l 397 1192 l 322 1192 z "},"Ř":{"ha":721,"x_min":88,"x_max":665,"o":"m 88 0 l 88 1125 l 314 1125 q 500 1095 426 1125 q 609 999 574 1065 q 644 826 644 933 q 631 708 644 761 q 586 617 617 654 q 506 564 556 581 l 665 0 l 514 0 l 367 528 l 244 528 l 244 0 l 88 0 m 244 640 l 304 640 q 413 657 371 640 q 474 714 454 674 q 493 826 493 754 q 457 969 493 925 q 314 1013 421 1013 l 244 1013 l 244 640 m 288 1207 l 167 1447 l 281 1447 l 361 1285 l 442 1447 l 556 1447 l 433 1207 l 288 1207 z "},"Ŗ":{"ha":721,"x_min":88,"x_max":665,"o":"m 88 0 l 88 1125 l 314 1125 q 500 1095 426 1125 q 609 999 574 1065 q 644 826 644 933 q 631 708 644 761 q 586 617 617 654 q 506 564 556 581 l 665 0 l 514 0 l 367 528 l 244 528 l 244 0 l 88 0 m 244 640 l 304 640 q 413 657 371 640 q 474 714 454 674 q 493 826 493 754 q 457 969 493 925 q 314 1013 421 1013 l 244 1013 l 244 640 m 322 -399 l 285 -325 q 345 -301 328 -322 q 363 -239 363 -279 l 286 -239 l 286 -87 l 438 -87 l 436 -231 q 415 -350 435 -304 q 322 -399 394 -396 z "},"Ȑ":{"ha":721,"x_min":88,"x_max":665,"o":"m 88 0 l 88 1125 l 314 1125 q 500 1095 426 1125 q 609 999 574 1065 q 644 826 644 933 q 631 708 644 761 q 586 617 617 654 q 506 564 556 581 l 665 0 l 514 0 l 367 528 l 244 528 l 244 0 l 88 0 m 244 640 l 304 640 q 413 657 371 640 q 474 714 454 674 q 493 826 493 754 q 457 969 493 925 q 314 1013 421 1013 l 244 1013 l 244 640 m 243 1211 l 88 1447 l 238 1447 l 318 1211 l 243 1211 m 421 1211 l 318 1447 l 440 1447 l 496 1211 l 421 1211 z "},"Ȓ":{"ha":721,"x_min":88,"x_max":665,"o":"m 88 0 l 88 1125 l 314 1125 q 500 1095 426 1125 q 609 999 574 1065 q 644 826 644 933 q 631 708 644 761 q 586 617 617 654 q 506 564 556 581 l 665 0 l 514 0 l 367 528 l 244 528 l 244 0 l 88 0 m 244 640 l 304 640 q 413 657 371 640 q 474 714 454 674 q 493 826 493 754 q 457 969 493 925 q 314 1013 421 1013 l 244 1013 l 244 640 m 178 1240 q 194 1345 179 1299 q 248 1419 208 1392 q 361 1447 288 1447 q 474 1419 435 1447 q 529 1345 514 1392 q 544 1240 544 1299 l 457 1240 q 435 1335 457 1307 q 361 1363 414 1363 q 288 1334 310 1363 q 265 1240 267 1306 l 178 1240 z "},"S":{"ha":657,"x_min":54,"x_max":622,"o":"m 353 -12 q 191 29 256 -12 q 93 144 126 71 q 54 315 60 218 l 193 353 q 212 238 197 293 q 260 147 226 182 q 353 111 293 111 q 445 145 414 111 q 476 243 476 179 q 442 366 476 319 q 354 460 407 413 l 165 626 q 83 733 110 675 q 57 875 57 790 q 128 1067 57 999 q 321 1135 199 1135 q 438 1117 388 1135 q 523 1064 489 1100 q 577 973 557 1028 q 604 844 597 918 l 471 808 q 454 910 467 864 q 410 985 442 957 q 321 1014 379 1014 q 230 983 263 1014 q 197 890 197 951 q 215 806 197 839 q 271 738 232 772 l 461 571 q 574 438 525 515 q 622 256 622 361 q 588 112 622 172 q 492 19 553 51 q 353 -12 432 -12 z "},"Ś":{"ha":657,"x_min":54,"x_max":622,"o":"m 353 -12 q 191 29 256 -12 q 93 144 126 71 q 54 315 60 218 l 193 353 q 212 238 197 293 q 260 147 226 182 q 353 111 293 111 q 445 145 414 111 q 476 243 476 179 q 442 366 476 319 q 354 460 407 413 l 165 626 q 83 733 110 675 q 57 875 57 790 q 128 1067 57 999 q 321 1135 199 1135 q 438 1117 388 1135 q 523 1064 489 1100 q 577 973 557 1028 q 604 844 597 918 l 471 808 q 454 910 467 864 q 410 985 442 957 q 321 1014 379 1014 q 230 983 263 1014 q 197 890 197 951 q 215 806 197 839 q 271 738 232 772 l 461 571 q 574 438 525 515 q 622 256 622 361 q 588 112 622 172 q 492 19 553 51 q 353 -12 432 -12 m 290 1192 l 372 1467 l 521 1467 l 365 1192 l 290 1192 z "},"Š":{"ha":657,"x_min":54,"x_max":622,"o":"m 353 -12 q 191 29 256 -12 q 93 144 126 71 q 54 315 60 218 l 193 353 q 212 238 197 293 q 260 147 226 182 q 353 111 293 111 q 445 145 414 111 q 476 243 476 179 q 442 366 476 319 q 354 460 407 413 l 165 626 q 83 733 110 675 q 57 875 57 790 q 128 1067 57 999 q 321 1135 199 1135 q 438 1117 388 1135 q 523 1064 489 1100 q 577 973 557 1028 q 604 844 597 918 l 471 808 q 454 910 467 864 q 410 985 442 957 q 321 1014 379 1014 q 230 983 263 1014 q 197 890 197 951 q 215 806 197 839 q 271 738 232 772 l 461 571 q 574 438 525 515 q 622 256 622 361 q 588 112 622 172 q 492 19 553 51 q 353 -12 432 -12 m 256 1207 l 135 1447 l 249 1447 l 329 1285 l 410 1447 l 524 1447 l 401 1207 l 256 1207 z "},"Ş":{"ha":657,"x_min":54,"x_max":622,"o":"m 353 -12 q 191 29 256 -12 q 93 144 126 71 q 54 315 60 218 l 193 353 q 212 238 197 293 q 260 147 226 182 q 353 111 293 111 q 445 145 414 111 q 476 243 476 179 q 442 366 476 319 q 354 460 407 413 l 165 626 q 83 733 110 675 q 57 875 57 790 q 128 1067 57 999 q 321 1135 199 1135 q 438 1117 388 1135 q 523 1064 489 1100 q 577 973 557 1028 q 604 844 597 918 l 471 808 q 454 910 467 864 q 410 985 442 957 q 321 1014 379 1014 q 230 983 263 1014 q 197 890 197 951 q 215 806 197 839 q 271 738 232 772 l 461 571 q 574 438 525 515 q 622 256 622 361 q 588 112 622 172 q 492 19 553 51 q 353 -12 432 -12 m 347 -326 q 301 -322 325 -326 q 254 -312 278 -318 l 254 -237 q 290 -245 272 -243 q 325 -247 308 -247 q 385 -235 361 -247 q 410 -193 410 -222 q 396 -153 410 -168 q 356 -130 382 -139 q 292 -115 329 -121 l 292 0 l 367 0 l 367 -78 q 478 -110 436 -78 q 521 -197 521 -142 q 498 -270 521 -242 q 435 -312 475 -299 q 347 -326 396 -326 z "},"Ŝ":{"ha":657,"x_min":54,"x_max":622,"o":"m 353 -12 q 191 29 256 -12 q 93 144 126 71 q 54 315 60 218 l 193 353 q 212 238 197 293 q 260 147 226 182 q 353 111 293 111 q 445 145 414 111 q 476 243 476 179 q 442 366 476 319 q 354 460 407 413 l 165 626 q 83 733 110 675 q 57 875 57 790 q 128 1067 57 999 q 321 1135 199 1135 q 438 1117 388 1135 q 523 1064 489 1100 q 577 973 557 1028 q 604 844 597 918 l 471 808 q 454 910 467 864 q 410 985 442 957 q 321 1014 379 1014 q 230 983 263 1014 q 197 890 197 951 q 215 806 197 839 q 271 738 232 772 l 461 571 q 574 438 525 515 q 622 256 622 361 q 588 112 622 172 q 492 19 553 51 q 353 -12 432 -12 m 133 1204 l 253 1447 l 404 1447 l 525 1204 l 413 1204 l 328 1372 l 244 1204 l 133 1204 z "},"Ș":{"ha":657,"x_min":54,"x_max":622,"o":"m 353 -12 q 191 29 256 -12 q 93 144 126 71 q 54 315 60 218 l 193 353 q 212 238 197 293 q 260 147 226 182 q 353 111 293 111 q 445 145 414 111 q 476 243 476 179 q 442 366 476 319 q 354 460 407 413 l 165 626 q 83 733 110 675 q 57 875 57 790 q 128 1067 57 999 q 321 1135 199 1135 q 438 1117 388 1135 q 523 1064 489 1100 q 577 973 557 1028 q 604 844 597 918 l 471 808 q 454 910 467 864 q 410 985 442 957 q 321 1014 379 1014 q 230 983 263 1014 q 197 890 197 951 q 215 806 197 839 q 271 738 232 772 l 461 571 q 574 438 525 515 q 622 256 622 361 q 588 112 622 172 q 492 19 553 51 q 353 -12 432 -12 m 290 -399 l 253 -325 q 313 -301 296 -322 q 331 -239 331 -279 l 254 -239 l 254 -87 l 406 -87 l 404 -231 q 383 -350 403 -304 q 290 -399 363 -396 z "},"Ṡ":{"ha":657,"x_min":54,"x_max":622,"o":"m 353 -12 q 191 29 256 -12 q 93 144 126 71 q 54 315 60 218 l 193 353 q 212 238 197 293 q 260 147 226 182 q 353 111 293 111 q 445 145 414 111 q 476 243 476 179 q 442 366 476 319 q 354 460 407 413 l 165 626 q 83 733 110 675 q 57 875 57 790 q 128 1067 57 999 q 321 1135 199 1135 q 438 1117 388 1135 q 523 1064 489 1100 q 577 973 557 1028 q 604 844 597 918 l 471 808 q 454 910 467 864 q 410 985 442 957 q 321 1014 379 1014 q 230 983 263 1014 q 197 890 197 951 q 215 806 197 839 q 271 738 232 772 l 461 571 q 574 438 525 515 q 622 256 622 361 q 588 112 622 172 q 492 19 553 51 q 353 -12 432 -12 m 254 1254 l 254 1419 l 404 1419 l 404 1254 l 254 1254 z "},"ẞ":{"ha":749,"x_min":78,"x_max":707,"o":"m 353 -12 l 353 100 l 400 100 q 518 149 479 100 q 557 315 557 199 q 518 485 557 435 q 400 536 479 536 l 367 536 l 367 656 l 551 994 q 497 1008 528 1003 q 429 1013 465 1013 q 282 953 329 1013 q 235 781 235 894 l 235 0 l 78 0 l 78 774 q 114 962 78 881 q 226 1089 150 1043 q 422 1135 303 1135 q 556 1119 497 1135 q 667 1078 615 1104 l 667 954 l 456 565 l 435 629 q 640 550 572 629 q 707 319 707 471 q 635 66 707 144 q 428 -12 563 -12 l 353 -12 z "},"Ə":{"ha":743,"x_min":61,"x_max":676,"o":"m 369 -12 q 188 32 256 -12 q 90 159 119 76 q 61 353 61 242 l 61 585 l 518 585 l 518 811 q 507 919 518 874 q 465 988 496 964 q 369 1013 433 1013 q 274 988 307 1013 q 231 919 242 964 q 219 811 219 874 l 219 714 l 61 714 l 61 779 q 90 970 61 890 q 187 1092 119 1050 q 369 1135 254 1135 q 550 1092 483 1135 q 647 969 617 1049 q 676 779 676 890 l 676 351 q 647 160 676 242 q 550 33 617 78 q 369 -12 483 -12 m 369 111 q 464 137 432 111 q 507 209 496 163 q 518 318 518 256 l 518 461 l 219 461 l 219 318 q 231 209 219 256 q 274 137 242 163 q 369 111 307 111 z "},"T":{"ha":574,"x_min":21,"x_max":553,"o":"m 211 0 l 211 1008 l 21 1008 l 21 1125 l 553 1125 l 553 1008 l 368 1008 l 368 0 l 211 0 z "},"Ŧ":{"ha":556,"x_min":21,"x_max":553,"o":"m 57 543 l 57 632 l 499 632 l 499 543 l 57 543 m 211 0 l 211 1008 l 21 1008 l 21 1125 l 553 1125 l 553 1008 l 368 1008 l 368 0 l 211 0 z "},"Ť":{"ha":556,"x_min":21,"x_max":553,"o":"m 211 0 l 211 1008 l 21 1008 l 21 1125 l 553 1125 l 553 1008 l 368 1008 l 368 0 l 211 0 m 204 1207 l 83 1447 l 197 1447 l 278 1285 l 358 1447 l 472 1447 l 350 1207 l 204 1207 z "},"Ţ":{"ha":556,"x_min":21,"x_max":553,"o":"m 211 0 l 211 1008 l 21 1008 l 21 1125 l 553 1125 l 553 1008 l 368 1008 l 368 0 l 211 0 m 296 -326 q 250 -322 274 -326 q 203 -312 226 -318 l 203 -237 q 239 -245 221 -243 q 274 -247 257 -247 q 334 -235 310 -247 q 358 -193 358 -222 q 344 -153 358 -168 q 304 -130 331 -139 q 240 -115 278 -121 l 240 0 l 315 0 l 315 -78 q 427 -110 385 -78 q 469 -197 469 -142 q 447 -270 469 -242 q 384 -312 424 -299 q 296 -326 344 -326 z "},"Ț":{"ha":556,"x_min":21,"x_max":553,"o":"m 211 0 l 211 1008 l 21 1008 l 21 1125 l 553 1125 l 553 1008 l 368 1008 l 368 0 l 211 0 m 239 -399 l 201 -325 q 262 -301 244 -322 q 279 -239 279 -279 l 203 -239 l 203 -87 l 354 -87 l 353 -231 q 331 -350 351 -304 q 239 -399 311 -396 z "},"Ṫ":{"ha":556,"x_min":21,"x_max":553,"o":"m 211 0 l 211 1008 l 21 1008 l 21 1125 l 553 1125 l 553 1008 l 368 1008 l 368 0 l 211 0 m 203 1254 l 203 1419 l 353 1419 l 353 1254 l 203 1254 z "},"U":{"ha":754,"x_min":78,"x_max":676,"o":"m 378 -12 q 190 36 256 -12 q 101 173 125 85 q 78 379 78 261 l 78 1125 l 228 1125 l 228 372 q 238 240 228 300 q 280 146 247 181 q 378 111 313 111 q 476 146 444 111 q 518 240 508 181 q 528 372 528 300 l 528 1125 l 676 1125 l 676 379 q 653 173 676 261 q 565 36 629 85 q 378 -12 500 -12 z "},"Ú":{"ha":754,"x_min":78,"x_max":676,"o":"m 378 -12 q 190 36 256 -12 q 101 173 125 85 q 78 379 78 261 l 78 1125 l 228 1125 l 228 372 q 238 240 228 300 q 280 146 247 181 q 378 111 313 111 q 476 146 444 111 q 518 240 508 181 q 528 372 528 300 l 528 1125 l 676 1125 l 676 379 q 653 173 676 261 q 565 36 629 85 q 378 -12 500 -12 m 339 1192 l 421 1467 l 569 1467 l 414 1192 l 339 1192 z "},"Ŭ":{"ha":754,"x_min":78,"x_max":676,"o":"m 378 -12 q 190 36 256 -12 q 101 173 125 85 q 78 379 78 261 l 78 1125 l 228 1125 l 228 372 q 238 240 228 300 q 280 146 247 181 q 378 111 313 111 q 476 146 444 111 q 518 240 508 181 q 528 372 528 300 l 528 1125 l 676 1125 l 676 379 q 653 173 676 261 q 565 36 629 85 q 378 -12 500 -12 m 378 1213 q 237 1267 278 1213 q 196 1401 196 1321 l 282 1401 q 305 1324 283 1351 q 378 1297 326 1297 q 452 1325 431 1297 q 474 1401 474 1353 l 561 1401 q 520 1267 561 1321 q 378 1213 479 1213 z "},"Ǔ":{"ha":754,"x_min":78,"x_max":676,"o":"m 378 -12 q 190 36 256 -12 q 101 173 125 85 q 78 379 78 261 l 78 1125 l 228 1125 l 228 372 q 238 240 228 300 q 280 146 247 181 q 378 111 313 111 q 476 146 444 111 q 518 240 508 181 q 528 372 528 300 l 528 1125 l 676 1125 l 676 379 q 653 173 676 261 q 565 36 629 85 q 378 -12 500 -12 m 304 1207 l 183 1447 l 297 1447 l 378 1285 l 458 1447 l 572 1447 l 450 1207 l 304 1207 z "},"Û":{"ha":754,"x_min":78,"x_max":676,"o":"m 378 -12 q 190 36 256 -12 q 101 173 125 85 q 78 379 78 261 l 78 1125 l 228 1125 l 228 372 q 238 240 228 300 q 280 146 247 181 q 378 111 313 111 q 476 146 444 111 q 518 240 508 181 q 528 372 528 300 l 528 1125 l 676 1125 l 676 379 q 653 173 676 261 q 565 36 629 85 q 378 -12 500 -12 m 182 1204 l 301 1447 l 453 1447 l 574 1204 l 461 1204 l 376 1372 l 293 1204 l 182 1204 z "},"Ȕ":{"ha":754,"x_min":78,"x_max":676,"o":"m 378 -12 q 190 36 256 -12 q 101 173 125 85 q 78 379 78 261 l 78 1125 l 228 1125 l 228 372 q 238 240 228 300 q 280 146 247 181 q 378 111 313 111 q 476 146 444 111 q 518 240 508 181 q 528 372 528 300 l 528 1125 l 676 1125 l 676 379 q 653 173 676 261 q 565 36 629 85 q 378 -12 500 -12 m 260 1211 l 104 1447 l 254 1447 l 335 1211 l 260 1211 m 438 1211 l 335 1447 l 457 1447 l 513 1211 l 438 1211 z "},"Ü":{"ha":754,"x_min":78,"x_max":676,"o":"m 378 -12 q 190 36 256 -12 q 101 173 125 85 q 78 379 78 261 l 78 1125 l 228 1125 l 228 372 q 238 240 228 300 q 280 146 247 181 q 378 111 313 111 q 476 146 444 111 q 518 240 508 181 q 528 372 528 300 l 528 1125 l 676 1125 l 676 379 q 653 173 676 261 q 565 36 629 85 q 378 -12 500 -12 m 422 1293 l 422 1447 l 572 1447 l 572 1293 l 422 1293 m 183 1293 l 183 1447 l 333 1447 l 333 1293 l 183 1293 z "},"Ụ":{"ha":754,"x_min":78,"x_max":676,"o":"m 378 -12 q 190 36 256 -12 q 101 173 125 85 q 78 379 78 261 l 78 1125 l 228 1125 l 228 372 q 238 240 228 300 q 280 146 247 181 q 378 111 313 111 q 476 146 444 111 q 518 240 508 181 q 528 372 528 300 l 528 1125 l 676 1125 l 676 379 q 653 173 676 261 q 565 36 629 85 q 378 -12 500 -12 m 303 -244 l 303 -87 l 453 -87 l 453 -244 l 303 -244 z "},"Ù":{"ha":754,"x_min":78,"x_max":676,"o":"m 378 -12 q 190 36 256 -12 q 101 173 125 85 q 78 379 78 261 l 78 1125 l 228 1125 l 228 372 q 238 240 228 300 q 280 146 247 181 q 378 111 313 111 q 476 146 444 111 q 518 240 508 181 q 528 372 528 300 l 528 1125 l 676 1125 l 676 379 q 653 173 676 261 q 565 36 629 85 q 378 -12 500 -12 m 343 1192 l 189 1467 l 338 1467 l 417 1192 l 343 1192 z "},"Ủ":{"ha":754,"x_min":78,"x_max":676,"o":"m 378 -12 q 190 36 256 -12 q 101 173 125 85 q 78 379 78 261 l 78 1125 l 228 1125 l 228 372 q 238 240 228 300 q 280 146 247 181 q 378 111 313 111 q 476 146 444 111 q 518 240 508 181 q 528 372 528 300 l 528 1125 l 676 1125 l 676 379 q 653 173 676 261 q 565 36 629 85 q 378 -12 500 -12 m 379 1206 l 332 1261 q 397 1297 372 1279 q 422 1342 422 1315 q 398 1383 422 1371 q 338 1396 374 1396 q 303 1394 321 1396 q 267 1386 285 1392 l 267 1461 q 379 1475 321 1475 q 457 1463 422 1475 q 513 1423 492 1450 q 533 1354 533 1396 q 513 1286 533 1314 q 458 1240 493 1258 q 379 1206 424 1221 z "},"Ư":{"ha":754,"x_min":78,"x_max":776,"o":"m 378 -12 q 190 36 256 -12 q 101 173 125 85 q 78 379 78 261 l 78 1125 l 228 1125 l 228 372 q 238 240 228 300 q 280 146 247 181 q 378 111 313 111 q 476 146 444 111 q 518 240 508 181 q 528 372 528 300 l 528 1125 l 676 1125 l 676 379 q 653 173 676 261 q 565 36 629 85 q 378 -12 500 -12 m 572 1047 l 572 1125 l 586 1125 q 644 1151 628 1125 q 661 1228 661 1176 l 776 1228 q 728 1092 776 1138 q 589 1047 679 1047 l 572 1047 z "},"Ứ":{"ha":754,"x_min":78,"x_max":776,"o":"m 378 -12 q 190 36 256 -12 q 101 173 125 85 q 78 379 78 261 l 78 1125 l 228 1125 l 228 372 q 238 240 228 300 q 280 146 247 181 q 378 111 313 111 q 476 146 444 111 q 518 240 508 181 q 528 372 528 300 l 528 1125 l 676 1125 l 676 379 q 653 173 676 261 q 565 36 629 85 q 378 -12 500 -12 m 572 1047 l 572 1125 l 586 1125 q 644 1151 628 1125 q 661 1228 661 1176 l 776 1228 q 728 1092 776 1138 q 589 1047 679 1047 l 572 1047 m 339 1192 l 421 1467 l 569 1467 l 414 1192 l 339 1192 z "},"Ự":{"ha":754,"x_min":78,"x_max":776,"o":"m 378 -12 q 190 36 256 -12 q 101 173 125 85 q 78 379 78 261 l 78 1125 l 228 1125 l 228 372 q 238 240 228 300 q 280 146 247 181 q 378 111 313 111 q 476 146 444 111 q 518 240 508 181 q 528 372 528 300 l 528 1125 l 676 1125 l 676 379 q 653 173 676 261 q 565 36 629 85 q 378 -12 500 -12 m 572 1047 l 572 1125 l 586 1125 q 644 1151 628 1125 q 661 1228 661 1176 l 776 1228 q 728 1092 776 1138 q 589 1047 679 1047 l 572 1047 m 303 -244 l 303 -87 l 453 -87 l 453 -244 l 303 -244 z "},"Ừ":{"ha":754,"x_min":78,"x_max":776,"o":"m 378 -12 q 190 36 256 -12 q 101 173 125 85 q 78 379 78 261 l 78 1125 l 228 1125 l 228 372 q 238 240 228 300 q 280 146 247 181 q 378 111 313 111 q 476 146 444 111 q 518 240 508 181 q 528 372 528 300 l 528 1125 l 676 1125 l 676 379 q 653 173 676 261 q 565 36 629 85 q 378 -12 500 -12 m 572 1047 l 572 1125 l 586 1125 q 644 1151 628 1125 q 661 1228 661 1176 l 776 1228 q 728 1092 776 1138 q 589 1047 679 1047 l 572 1047 m 343 1192 l 189 1467 l 338 1467 l 417 1192 l 343 1192 z "},"Ử":{"ha":754,"x_min":78,"x_max":776,"o":"m 378 -12 q 190 36 256 -12 q 101 173 125 85 q 78 379 78 261 l 78 1125 l 228 1125 l 228 372 q 238 240 228 300 q 280 146 247 181 q 378 111 313 111 q 476 146 444 111 q 518 240 508 181 q 528 372 528 300 l 528 1125 l 676 1125 l 676 379 q 653 173 676 261 q 565 36 629 85 q 378 -12 500 -12 m 572 1047 l 572 1125 l 586 1125 q 644 1151 628 1125 q 661 1228 661 1176 l 776 1228 q 728 1092 776 1138 q 589 1047 679 1047 l 572 1047 m 379 1206 l 332 1261 q 397 1297 372 1279 q 422 1342 422 1315 q 398 1383 422 1371 q 338 1396 374 1396 q 303 1394 321 1396 q 267 1386 285 1392 l 267 1461 q 379 1475 321 1475 q 457 1463 422 1475 q 513 1423 492 1450 q 533 1354 533 1396 q 513 1286 533 1314 q 458 1240 493 1258 q 379 1206 424 1221 z "},"Ữ":{"ha":754,"x_min":78,"x_max":776,"o":"m 378 -12 q 190 36 256 -12 q 101 173 125 85 q 78 379 78 261 l 78 1125 l 228 1125 l 228 372 q 238 240 228 300 q 280 146 247 181 q 378 111 313 111 q 476 146 444 111 q 518 240 508 181 q 528 372 528 300 l 528 1125 l 676 1125 l 676 379 q 653 173 676 261 q 565 36 629 85 q 378 -12 500 -12 m 572 1047 l 572 1125 l 586 1125 q 644 1151 628 1125 q 661 1228 661 1176 l 776 1228 q 728 1092 776 1138 q 589 1047 679 1047 l 572 1047 m 483 1294 q 415 1312 444 1294 q 358 1346 385 1329 q 301 1363 332 1363 q 266 1350 278 1363 q 254 1306 254 1338 l 169 1306 q 180 1381 169 1347 q 215 1435 190 1415 q 281 1456 239 1456 q 344 1439 315 1456 q 400 1406 372 1422 q 457 1389 428 1389 q 492 1401 481 1389 q 503 1447 503 1414 l 586 1447 q 578 1371 586 1406 q 547 1315 569 1336 q 483 1294 525 1294 z "},"Ű":{"ha":754,"x_min":78,"x_max":676,"o":"m 378 -12 q 190 36 256 -12 q 101 173 125 85 q 78 379 78 261 l 78 1125 l 228 1125 l 228 372 q 238 240 228 300 q 280 146 247 181 q 378 111 313 111 q 476 146 444 111 q 518 240 508 181 q 528 372 528 300 l 528 1125 l 676 1125 l 676 379 q 653 173 676 261 q 565 36 629 85 q 378 -12 500 -12 m 433 1211 l 514 1449 l 664 1449 l 510 1211 l 433 1211 m 258 1211 l 313 1449 l 435 1449 l 333 1211 l 258 1211 z "},"Ȗ":{"ha":754,"x_min":78,"x_max":676,"o":"m 378 -12 q 190 36 256 -12 q 101 173 125 85 q 78 379 78 261 l 78 1125 l 228 1125 l 228 372 q 238 240 228 300 q 280 146 247 181 q 378 111 313 111 q 476 146 444 111 q 518 240 508 181 q 528 372 528 300 l 528 1125 l 676 1125 l 676 379 q 653 173 676 261 q 565 36 629 85 q 378 -12 500 -12 m 194 1240 q 210 1345 196 1299 q 265 1419 225 1392 q 378 1447 304 1447 q 491 1419 451 1447 q 546 1345 531 1392 q 561 1240 561 1299 l 474 1240 q 452 1335 474 1307 q 378 1363 431 1363 q 305 1334 326 1363 q 282 1240 283 1306 l 194 1240 z "},"Ū":{"ha":754,"x_min":78,"x_max":676,"o":"m 378 -12 q 190 36 256 -12 q 101 173 125 85 q 78 379 78 261 l 78 1125 l 228 1125 l 228 372 q 238 240 228 300 q 280 146 247 181 q 378 111 313 111 q 476 146 444 111 q 518 240 508 181 q 528 372 528 300 l 528 1125 l 676 1125 l 676 379 q 653 173 676 261 q 565 36 629 85 q 378 -12 500 -12 m 244 1274 l 244 1364 l 511 1364 l 511 1274 l 244 1274 z "},"Ų":{"ha":754,"x_min":78,"x_max":676,"o":"m 378 -12 q 190 36 256 -12 q 101 173 125 85 q 78 379 78 261 l 78 1125 l 228 1125 l 228 372 q 238 240 228 300 q 280 146 247 181 q 378 111 313 111 q 476 146 444 111 q 518 240 508 181 q 528 372 528 300 l 528 1125 l 676 1125 l 676 379 q 653 173 676 261 q 565 36 629 85 q 378 -12 500 -12 m 436 -321 q 364 -317 399 -321 q 302 -300 329 -312 q 259 -264 275 -287 q 243 -201 243 -240 q 267 -114 243 -156 q 326 -42 290 -72 q 397 0 361 -11 l 472 0 q 420 -52 447 -22 q 374 -115 393 -82 q 356 -179 356 -147 q 392 -234 356 -222 q 467 -246 428 -246 q 490 -245 478 -246 q 511 -243 501 -244 l 486 -317 q 461 -319 475 -318 q 436 -321 447 -321 z "},"Ů":{"ha":754,"x_min":78,"x_max":676,"o":"m 378 -12 q 190 36 256 -12 q 101 173 125 85 q 78 379 78 261 l 78 1125 l 228 1125 l 228 372 q 238 240 228 300 q 280 146 247 181 q 378 111 313 111 q 476 146 444 111 q 518 240 508 181 q 528 372 528 300 l 528 1125 l 676 1125 l 676 379 q 653 173 676 261 q 565 36 629 85 q 378 -12 500 -12 m 378 1150 q 265 1192 308 1150 q 222 1306 222 1235 q 265 1418 222 1376 q 378 1460 308 1460 q 490 1418 447 1460 q 533 1306 533 1376 q 490 1192 533 1235 q 378 1150 447 1150 m 378 1225 q 436 1247 414 1225 q 458 1306 458 1268 q 436 1365 458 1344 q 378 1386 414 1386 q 319 1365 340 1386 q 297 1306 297 1344 q 319 1247 297 1268 q 378 1225 340 1225 z "},"Ũ":{"ha":754,"x_min":78,"x_max":676,"o":"m 378 -12 q 190 36 256 -12 q 101 173 125 85 q 78 379 78 261 l 78 1125 l 228 1125 l 228 372 q 238 240 228 300 q 280 146 247 181 q 378 111 313 111 q 476 146 444 111 q 518 240 508 181 q 528 372 528 300 l 528 1125 l 676 1125 l 676 379 q 653 173 676 261 q 565 36 629 85 q 378 -12 500 -12 m 483 1294 q 415 1312 444 1294 q 358 1346 385 1329 q 301 1363 332 1363 q 266 1350 278 1363 q 254 1306 254 1338 l 169 1306 q 180 1381 169 1347 q 215 1435 190 1415 q 281 1456 239 1456 q 344 1439 315 1456 q 400 1406 372 1422 q 457 1389 428 1389 q 492 1401 481 1389 q 503 1447 503 1414 l 586 1447 q 578 1371 586 1406 q 547 1315 569 1336 q 483 1294 525 1294 z "},"V":{"ha":701,"x_min":32,"x_max":669,"o":"m 283 0 l 32 1125 l 179 1125 l 357 296 l 526 1125 l 669 1125 l 421 0 l 283 0 z "},"W":{"ha":1013,"x_min":50,"x_max":963,"o":"m 233 0 l 50 1125 l 181 1125 l 301 317 l 453 1121 l 564 1121 l 717 313 l 835 1125 l 963 1125 l 782 0 l 668 0 l 511 833 l 353 0 l 233 0 z "},"Ẃ":{"ha":1013,"x_min":50,"x_max":963,"o":"m 233 0 l 50 1125 l 181 1125 l 301 317 l 453 1121 l 564 1121 l 717 313 l 835 1125 l 963 1125 l 782 0 l 668 0 l 511 833 l 353 0 l 233 0 m 468 1192 l 550 1467 l 699 1467 l 543 1192 l 468 1192 z "},"Ŵ":{"ha":1013,"x_min":50,"x_max":963,"o":"m 233 0 l 50 1125 l 181 1125 l 301 317 l 453 1121 l 564 1121 l 717 313 l 835 1125 l 963 1125 l 782 0 l 668 0 l 511 833 l 353 0 l 233 0 m 311 1204 l 431 1447 l 582 1447 l 703 1204 l 590 1204 l 506 1372 l 422 1204 l 311 1204 z "},"Ẅ":{"ha":1013,"x_min":50,"x_max":963,"o":"m 233 0 l 50 1125 l 181 1125 l 301 317 l 453 1121 l 564 1121 l 717 313 l 835 1125 l 963 1125 l 782 0 l 668 0 l 511 833 l 353 0 l 233 0 m 551 1293 l 551 1447 l 701 1447 l 701 1293 l 551 1293 m 313 1293 l 313 1447 l 463 1447 l 463 1293 l 313 1293 z "},"Ẁ":{"ha":1013,"x_min":50,"x_max":963,"o":"m 233 0 l 50 1125 l 181 1125 l 301 317 l 453 1121 l 564 1121 l 717 313 l 835 1125 l 963 1125 l 782 0 l 668 0 l 511 833 l 353 0 l 233 0 m 472 1192 l 318 1467 l 467 1467 l 546 1192 l 472 1192 z "},"X":{"ha":669,"x_min":18,"x_max":651,"o":"m 18 0 l 253 589 l 22 1125 l 168 1125 l 339 728 l 494 1125 l 640 1125 l 404 576 l 651 0 l 506 0 l 322 424 l 164 0 l 18 0 z "},"Y":{"ha":668,"x_min":17,"x_max":651,"o":"m 260 0 l 260 397 l 17 1125 l 163 1125 l 335 582 l 504 1125 l 651 1125 l 410 397 l 410 0 l 260 0 z "},"Ý":{"ha":668,"x_min":17,"x_max":651,"o":"m 260 0 l 260 397 l 17 1125 l 163 1125 l 335 582 l 504 1125 l 651 1125 l 410 397 l 410 0 l 260 0 m 296 1192 l 378 1467 l 526 1467 l 371 1192 l 296 1192 z "},"Ŷ":{"ha":668,"x_min":17,"x_max":651,"o":"m 260 0 l 260 397 l 17 1125 l 163 1125 l 335 582 l 504 1125 l 651 1125 l 410 397 l 410 0 l 260 0 m 139 1204 l 258 1447 l 410 1447 l 531 1204 l 418 1204 l 333 1372 l 250 1204 l 139 1204 z "},"Ÿ":{"ha":668,"x_min":17,"x_max":651,"o":"m 260 0 l 260 397 l 17 1125 l 163 1125 l 335 582 l 504 1125 l 651 1125 l 410 397 l 410 0 l 260 0 m 379 1293 l 379 1447 l 529 1447 l 529 1293 l 379 1293 m 140 1293 l 140 1447 l 290 1447 l 290 1293 l 140 1293 z "},"Ỵ":{"ha":668,"x_min":17,"x_max":651,"o":"m 260 0 l 260 397 l 17 1125 l 163 1125 l 335 582 l 504 1125 l 651 1125 l 410 397 l 410 0 l 260 0 m 260 -244 l 260 -87 l 410 -87 l 410 -244 l 260 -244 z "},"Ỳ":{"ha":668,"x_min":17,"x_max":651,"o":"m 260 0 l 260 397 l 17 1125 l 163 1125 l 335 582 l 504 1125 l 651 1125 l 410 397 l 410 0 l 260 0 m 300 1192 l 146 1467 l 294 1467 l 374 1192 l 300 1192 z "},"Ỷ":{"ha":668,"x_min":17,"x_max":651,"o":"m 260 0 l 260 397 l 17 1125 l 163 1125 l 335 582 l 504 1125 l 651 1125 l 410 397 l 410 0 l 260 0 m 336 1206 l 289 1261 q 354 1297 329 1279 q 379 1342 379 1315 q 355 1383 379 1371 q 294 1396 331 1396 q 260 1394 278 1396 q 224 1386 242 1392 l 224 1461 q 336 1475 278 1475 q 414 1463 379 1475 q 469 1423 449 1450 q 490 1354 490 1396 q 470 1286 490 1314 q 415 1240 450 1258 q 336 1206 381 1221 z "},"Ȳ":{"ha":668,"x_min":17,"x_max":651,"o":"m 260 0 l 260 397 l 17 1125 l 163 1125 l 335 582 l 504 1125 l 651 1125 l 410 397 l 410 0 l 260 0 m 201 1274 l 201 1364 l 468 1364 l 468 1274 l 201 1274 z "},"Ỹ":{"ha":668,"x_min":17,"x_max":651,"o":"m 260 0 l 260 397 l 17 1125 l 163 1125 l 335 582 l 504 1125 l 651 1125 l 410 397 l 410 0 l 260 0 m 440 1294 q 372 1312 401 1294 q 315 1346 342 1329 q 258 1363 289 1363 q 223 1350 235 1363 q 211 1306 211 1338 l 126 1306 q 137 1381 126 1347 q 172 1435 147 1415 q 238 1456 196 1456 q 301 1439 272 1456 q 357 1406 329 1422 q 414 1389 385 1389 q 449 1401 438 1389 q 460 1447 460 1414 l 543 1447 q 535 1371 543 1406 q 504 1315 526 1336 q 440 1294 482 1294 z "},"Z":{"ha":579,"x_min":53,"x_max":550,"o":"m 53 0 l 53 113 l 383 1013 l 74 1013 l 74 1125 l 550 1125 l 550 1057 l 201 113 l 550 113 l 550 0 l 53 0 z "},"Ź":{"ha":579,"x_min":53,"x_max":550,"o":"m 53 0 l 53 113 l 383 1013 l 74 1013 l 74 1125 l 550 1125 l 550 1057 l 201 113 l 550 113 l 550 0 l 53 0 m 251 1192 l 333 1467 l 482 1467 l 326 1192 l 251 1192 z "},"Ž":{"ha":579,"x_min":53,"x_max":550,"o":"m 53 0 l 53 113 l 383 1013 l 74 1013 l 74 1125 l 550 1125 l 550 1057 l 201 113 l 550 113 l 550 0 l 53 0 m 217 1207 l 96 1447 l 210 1447 l 290 1285 l 371 1447 l 485 1447 l 363 1207 l 217 1207 z "},"Ż":{"ha":579,"x_min":53,"x_max":550,"o":"m 53 0 l 53 113 l 383 1013 l 74 1013 l 74 1125 l 550 1125 l 550 1057 l 201 113 l 550 113 l 550 0 l 53 0 m 215 1254 l 215 1419 l 365 1419 l 365 1254 l 215 1254 z "},"a":{"ha":592,"x_min":58,"x_max":538,"o":"m 219 -11 q 136 16 172 -11 q 79 85 100 43 q 58 175 58 128 q 83 301 58 250 q 152 388 108 353 q 253 450 196 424 q 375 501 311 476 l 375 558 q 369 639 375 607 q 347 687 364 671 q 294 703 329 703 q 245 689 264 703 q 218 649 226 675 q 210 589 210 624 l 210 549 l 63 554 q 124 751 65 688 q 304 814 182 814 q 474 749 424 814 q 524 560 524 683 l 524 193 q 526 121 524 156 q 531 56 528 86 q 538 0 535 26 l 401 0 q 391 56 397 22 q 382 118 385 90 q 328 30 368 71 q 219 -11 289 -11 m 278 117 q 319 129 300 117 q 354 158 339 142 q 375 183 369 174 l 375 411 q 310 372 340 392 q 256 331 279 353 q 220 283 233 310 q 207 221 207 256 q 225 144 207 172 q 278 117 243 117 z "},"á":{"ha":592,"x_min":58,"x_max":538,"o":"m 219 -11 q 136 16 172 -11 q 79 85 100 43 q 58 175 58 128 q 83 301 58 250 q 152 388 108 353 q 253 450 196 424 q 375 501 311 476 l 375 558 q 369 639 375 607 q 347 687 364 671 q 294 703 329 703 q 245 689 264 703 q 218 649 226 675 q 210 589 210 624 l 210 549 l 63 554 q 124 751 65 688 q 304 814 182 814 q 474 749 424 814 q 524 560 524 683 l 524 193 q 526 121 524 156 q 531 56 528 86 q 538 0 535 26 l 401 0 q 391 56 397 22 q 382 118 385 90 q 328 30 368 71 q 219 -11 289 -11 m 278 117 q 319 129 300 117 q 354 158 339 142 q 375 183 369 174 l 375 411 q 310 372 340 392 q 256 331 279 353 q 220 283 233 310 q 207 221 207 256 q 225 144 207 172 q 278 117 243 117 m 265 869 l 347 1144 l 496 1144 l 340 869 l 265 869 z "},"ă":{"ha":592,"x_min":58,"x_max":538,"o":"m 219 -11 q 136 16 172 -11 q 79 85 100 43 q 58 175 58 128 q 83 301 58 250 q 152 388 108 353 q 253 450 196 424 q 375 501 311 476 l 375 558 q 369 639 375 607 q 347 687 364 671 q 294 703 329 703 q 245 689 264 703 q 218 649 226 675 q 210 589 210 624 l 210 549 l 63 554 q 124 751 65 688 q 304 814 182 814 q 474 749 424 814 q 524 560 524 683 l 524 193 q 526 121 524 156 q 531 56 528 86 q 538 0 535 26 l 401 0 q 391 56 397 22 q 382 118 385 90 q 328 30 368 71 q 219 -11 289 -11 m 278 117 q 319 129 300 117 q 354 158 339 142 q 375 183 369 174 l 375 411 q 310 372 340 392 q 256 331 279 353 q 220 283 233 310 q 207 221 207 256 q 225 144 207 172 q 278 117 243 117 m 304 890 q 163 944 204 890 q 122 1079 122 999 l 208 1079 q 231 1002 210 1029 q 304 975 253 975 q 378 1003 357 975 q 400 1079 400 1031 l 488 1079 q 447 944 488 999 q 304 890 406 890 z "},"ắ":{"ha":592,"x_min":58,"x_max":538,"o":"m 219 -11 q 136 16 172 -11 q 79 85 100 43 q 58 175 58 128 q 83 301 58 250 q 152 388 108 353 q 253 450 196 424 q 375 501 311 476 l 375 558 q 369 639 375 607 q 347 687 364 671 q 294 703 329 703 q 245 689 264 703 q 218 649 226 675 q 210 589 210 624 l 210 549 l 63 554 q 124 751 65 688 q 304 814 182 814 q 474 749 424 814 q 524 560 524 683 l 524 193 q 526 121 524 156 q 531 56 528 86 q 538 0 535 26 l 401 0 q 391 56 397 22 q 382 118 385 90 q 328 30 368 71 q 219 -11 289 -11 m 278 117 q 319 129 300 117 q 354 158 339 142 q 375 183 369 174 l 375 411 q 310 372 340 392 q 256 331 279 353 q 220 283 233 310 q 207 221 207 256 q 225 144 207 172 q 278 117 243 117 m 233 1121 l 322 1285 l 471 1285 l 322 1121 l 233 1121 m 304 864 q 163 918 204 864 q 122 1053 122 972 l 208 1053 q 231 976 210 1003 q 304 949 253 949 q 378 976 357 949 q 400 1053 400 1004 l 488 1053 q 447 918 488 972 q 304 864 406 864 z "},"ặ":{"ha":592,"x_min":58,"x_max":538,"o":"m 219 -11 q 136 16 172 -11 q 79 85 100 43 q 58 175 58 128 q 83 301 58 250 q 152 388 108 353 q 253 450 196 424 q 375 501 311 476 l 375 558 q 369 639 375 607 q 347 687 364 671 q 294 703 329 703 q 245 689 264 703 q 218 649 226 675 q 210 589 210 624 l 210 549 l 63 554 q 124 751 65 688 q 304 814 182 814 q 474 749 424 814 q 524 560 524 683 l 524 193 q 526 121 524 156 q 531 56 528 86 q 538 0 535 26 l 401 0 q 391 56 397 22 q 382 118 385 90 q 328 30 368 71 q 219 -11 289 -11 m 278 117 q 319 129 300 117 q 354 158 339 142 q 375 183 369 174 l 375 411 q 310 372 340 392 q 256 331 279 353 q 220 283 233 310 q 207 221 207 256 q 225 144 207 172 q 278 117 243 117 m 221 -244 l 221 -87 l 371 -87 l 371 -244 l 221 -244 m 304 890 q 163 944 204 890 q 122 1079 122 999 l 208 1079 q 231 1002 210 1029 q 304 975 253 975 q 378 1003 357 975 q 400 1079 400 1031 l 488 1079 q 447 944 488 999 q 304 890 406 890 z "},"ằ":{"ha":592,"x_min":58,"x_max":538,"o":"m 219 -11 q 136 16 172 -11 q 79 85 100 43 q 58 175 58 128 q 83 301 58 250 q 152 388 108 353 q 253 450 196 424 q 375 501 311 476 l 375 558 q 369 639 375 607 q 347 687 364 671 q 294 703 329 703 q 245 689 264 703 q 218 649 226 675 q 210 589 210 624 l 210 549 l 63 554 q 124 751 65 688 q 304 814 182 814 q 474 749 424 814 q 524 560 524 683 l 524 193 q 526 121 524 156 q 531 56 528 86 q 538 0 535 26 l 401 0 q 391 56 397 22 q 382 118 385 90 q 328 30 368 71 q 219 -11 289 -11 m 278 117 q 319 129 300 117 q 354 158 339 142 q 375 183 369 174 l 375 411 q 310 372 340 392 q 256 331 279 353 q 220 283 233 310 q 207 221 207 256 q 225 144 207 172 q 278 117 243 117 m 281 1121 l 132 1285 l 281 1285 l 369 1121 l 281 1121 m 304 864 q 163 918 204 864 q 122 1053 122 972 l 208 1053 q 231 976 210 1003 q 304 949 253 949 q 378 976 357 949 q 400 1053 400 1004 l 488 1053 q 447 918 488 972 q 304 864 406 864 z "},"ẳ":{"ha":592,"x_min":58,"x_max":538,"o":"m 219 -11 q 136 16 172 -11 q 79 85 100 43 q 58 175 58 128 q 83 301 58 250 q 152 388 108 353 q 253 450 196 424 q 375 501 311 476 l 375 558 q 369 639 375 607 q 347 687 364 671 q 294 703 329 703 q 245 689 264 703 q 218 649 226 675 q 210 589 210 624 l 210 549 l 63 554 q 124 751 65 688 q 304 814 182 814 q 474 749 424 814 q 524 560 524 683 l 524 193 q 526 121 524 156 q 531 56 528 86 q 538 0 535 26 l 401 0 q 391 56 397 22 q 382 118 385 90 q 328 30 368 71 q 219 -11 289 -11 m 278 117 q 319 129 300 117 q 354 158 339 142 q 375 183 369 174 l 375 411 q 310 372 340 392 q 256 331 279 353 q 220 283 233 310 q 207 221 207 256 q 225 144 207 172 q 278 117 243 117 m 310 1081 l 263 1136 q 311 1172 293 1154 q 329 1217 329 1190 q 309 1258 329 1246 q 261 1271 289 1271 q 230 1269 247 1271 q 197 1261 213 1267 l 197 1336 q 247 1347 222 1343 q 299 1350 272 1350 q 399 1321 358 1350 q 440 1229 440 1292 q 403 1139 440 1174 q 310 1081 367 1104 m 304 890 q 163 944 204 890 q 122 1079 122 999 l 208 1079 q 231 1002 210 1029 q 304 975 253 975 q 378 1003 357 975 q 400 1079 400 1031 l 488 1079 q 447 944 488 999 q 304 890 406 890 z "},"ẵ":{"ha":592,"x_min":58,"x_max":538,"o":"m 219 -11 q 136 16 172 -11 q 79 85 100 43 q 58 175 58 128 q 83 301 58 250 q 152 388 108 353 q 253 450 196 424 q 375 501 311 476 l 375 558 q 369 639 375 607 q 347 687 364 671 q 294 703 329 703 q 245 689 264 703 q 218 649 226 675 q 210 589 210 624 l 210 549 l 63 554 q 124 751 65 688 q 304 814 182 814 q 474 749 424 814 q 524 560 524 683 l 524 193 q 526 121 524 156 q 531 56 528 86 q 538 0 535 26 l 401 0 q 391 56 397 22 q 382 118 385 90 q 328 30 368 71 q 219 -11 289 -11 m 278 117 q 319 129 300 117 q 354 158 339 142 q 375 183 369 174 l 375 411 q 310 372 340 392 q 256 331 279 353 q 220 283 233 310 q 207 221 207 256 q 225 144 207 172 q 278 117 243 117 z "},"ǎ":{"ha":592,"x_min":58,"x_max":538,"o":"m 219 -11 q 136 16 172 -11 q 79 85 100 43 q 58 175 58 128 q 83 301 58 250 q 152 388 108 353 q 253 450 196 424 q 375 501 311 476 l 375 558 q 369 639 375 607 q 347 687 364 671 q 294 703 329 703 q 245 689 264 703 q 218 649 226 675 q 210 589 210 624 l 210 549 l 63 554 q 124 751 65 688 q 304 814 182 814 q 474 749 424 814 q 524 560 524 683 l 524 193 q 526 121 524 156 q 531 56 528 86 q 538 0 535 26 l 401 0 q 391 56 397 22 q 382 118 385 90 q 328 30 368 71 q 219 -11 289 -11 m 278 117 q 319 129 300 117 q 354 158 339 142 q 375 183 369 174 l 375 411 q 310 372 340 392 q 256 331 279 353 q 220 283 233 310 q 207 221 207 256 q 225 144 207 172 q 278 117 243 117 m 231 885 l 110 1125 l 224 1125 l 304 963 l 385 1125 l 499 1125 l 376 885 l 231 885 z "},"â":{"ha":592,"x_min":58,"x_max":538,"o":"m 219 -11 q 136 16 172 -11 q 79 85 100 43 q 58 175 58 128 q 83 301 58 250 q 152 388 108 353 q 253 450 196 424 q 375 501 311 476 l 375 558 q 369 639 375 607 q 347 687 364 671 q 294 703 329 703 q 245 689 264 703 q 218 649 226 675 q 210 589 210 624 l 210 549 l 63 554 q 124 751 65 688 q 304 814 182 814 q 474 749 424 814 q 524 560 524 683 l 524 193 q 526 121 524 156 q 531 56 528 86 q 538 0 535 26 l 401 0 q 391 56 397 22 q 382 118 385 90 q 328 30 368 71 q 219 -11 289 -11 m 278 117 q 319 129 300 117 q 354 158 339 142 q 375 183 369 174 l 375 411 q 310 372 340 392 q 256 331 279 353 q 220 283 233 310 q 207 221 207 256 q 225 144 207 172 q 278 117 243 117 m 108 882 l 228 1125 l 379 1125 l 500 882 l 388 882 l 303 1050 l 219 882 l 108 882 z "},"ấ":{"ha":592,"x_min":58,"x_max":683,"o":"m 219 -11 q 136 16 172 -11 q 79 85 100 43 q 58 175 58 128 q 83 301 58 250 q 152 388 108 353 q 253 450 196 424 q 375 501 311 476 l 375 558 q 369 639 375 607 q 347 687 364 671 q 294 703 329 703 q 245 689 264 703 q 218 649 226 675 q 210 589 210 624 l 210 549 l 63 554 q 124 751 65 688 q 304 814 182 814 q 474 749 424 814 q 524 560 524 683 l 524 193 q 526 121 524 156 q 531 56 528 86 q 538 0 535 26 l 401 0 q 391 56 397 22 q 382 118 385 90 q 328 30 368 71 q 219 -11 289 -11 m 278 117 q 319 129 300 117 q 354 158 339 142 q 375 183 369 174 l 375 411 q 310 372 340 392 q 256 331 279 353 q 220 283 233 310 q 207 221 207 256 q 225 144 207 172 q 278 117 243 117 m 108 882 l 228 1097 l 379 1097 l 500 882 l 388 882 l 303 1022 l 219 882 l 108 882 m 481 1026 l 554 1186 l 683 1186 l 572 1026 l 481 1026 z "},"ậ":{"ha":592,"x_min":58,"x_max":538,"o":"m 219 -11 q 136 16 172 -11 q 79 85 100 43 q 58 175 58 128 q 83 301 58 250 q 152 388 108 353 q 253 450 196 424 q 375 501 311 476 l 375 558 q 369 639 375 607 q 347 687 364 671 q 294 703 329 703 q 245 689 264 703 q 218 649 226 675 q 210 589 210 624 l 210 549 l 63 554 q 124 751 65 688 q 304 814 182 814 q 474 749 424 814 q 524 560 524 683 l 524 193 q 526 121 524 156 q 531 56 528 86 q 538 0 535 26 l 401 0 q 391 56 397 22 q 382 118 385 90 q 328 30 368 71 q 219 -11 289 -11 m 278 117 q 319 129 300 117 q 354 158 339 142 q 375 183 369 174 l 375 411 q 310 372 340 392 q 256 331 279 353 q 220 283 233 310 q 207 221 207 256 q 225 144 207 172 q 278 117 243 117 m 221 -244 l 221 -87 l 371 -87 l 371 -244 l 221 -244 m 108 882 l 228 1097 l 379 1097 l 500 882 l 388 882 l 303 1022 l 219 882 l 108 882 z "},"ầ":{"ha":592,"x_min":58,"x_max":607,"o":"m 219 -11 q 136 16 172 -11 q 79 85 100 43 q 58 175 58 128 q 83 301 58 250 q 152 388 108 353 q 253 450 196 424 q 375 501 311 476 l 375 558 q 369 639 375 607 q 347 687 364 671 q 294 703 329 703 q 245 689 264 703 q 218 649 226 675 q 210 589 210 624 l 210 549 l 63 554 q 124 751 65 688 q 304 814 182 814 q 474 749 424 814 q 524 560 524 683 l 524 193 q 526 121 524 156 q 531 56 528 86 q 538 0 535 26 l 401 0 q 391 56 397 22 q 382 118 385 90 q 328 30 368 71 q 219 -11 289 -11 m 278 117 q 319 129 300 117 q 354 158 339 142 q 375 183 369 174 l 375 411 q 310 372 340 392 q 256 331 279 353 q 220 283 233 310 q 207 221 207 256 q 225 144 207 172 q 278 117 243 117 m 108 882 l 228 1097 l 379 1097 l 500 882 l 388 882 l 303 1022 l 219 882 l 108 882 m 515 1026 l 404 1186 l 533 1186 l 607 1026 l 515 1026 z "},"ẩ":{"ha":592,"x_min":58,"x_max":644,"o":"m 219 -11 q 136 16 172 -11 q 79 85 100 43 q 58 175 58 128 q 83 301 58 250 q 152 388 108 353 q 253 450 196 424 q 375 501 311 476 l 375 558 q 369 639 375 607 q 347 687 364 671 q 294 703 329 703 q 245 689 264 703 q 218 649 226 675 q 210 589 210 624 l 210 549 l 63 554 q 124 751 65 688 q 304 814 182 814 q 474 749 424 814 q 524 560 524 683 l 524 193 q 526 121 524 156 q 531 56 528 86 q 538 0 535 26 l 401 0 q 391 56 397 22 q 382 118 385 90 q 328 30 368 71 q 219 -11 289 -11 m 278 117 q 319 129 300 117 q 354 158 339 142 q 375 183 369 174 l 375 411 q 310 372 340 392 q 256 331 279 353 q 220 283 233 310 q 207 221 207 256 q 225 144 207 172 q 278 117 243 117 m 514 996 l 467 1051 q 515 1088 497 1069 q 533 1132 533 1106 q 513 1174 533 1161 q 465 1186 493 1186 q 434 1184 451 1186 q 401 1176 417 1182 l 401 1251 q 451 1262 426 1258 q 503 1265 476 1265 q 603 1236 563 1265 q 644 1144 644 1207 q 608 1051 644 1083 q 514 996 571 1019 m 108 882 l 228 1097 l 379 1097 l 500 882 l 388 882 l 303 1022 l 219 882 l 108 882 z "},"ẫ":{"ha":592,"x_min":58,"x_max":538,"o":"m 219 -11 q 136 16 172 -11 q 79 85 100 43 q 58 175 58 128 q 83 301 58 250 q 152 388 108 353 q 253 450 196 424 q 375 501 311 476 l 375 558 q 369 639 375 607 q 347 687 364 671 q 294 703 329 703 q 245 689 264 703 q 218 649 226 675 q 210 589 210 624 l 210 549 l 63 554 q 124 751 65 688 q 304 814 182 814 q 474 749 424 814 q 524 560 524 683 l 524 193 q 526 121 524 156 q 531 56 528 86 q 538 0 535 26 l 401 0 q 391 56 397 22 q 382 118 385 90 q 328 30 368 71 q 219 -11 289 -11 m 278 117 q 319 129 300 117 q 354 158 339 142 q 375 183 369 174 l 375 411 q 310 372 340 392 q 256 331 279 353 q 220 283 233 310 q 207 221 207 256 q 225 144 207 172 q 278 117 243 117 z "},"ȁ":{"ha":592,"x_min":31,"x_max":538,"o":"m 219 -11 q 136 16 172 -11 q 79 85 100 43 q 58 175 58 128 q 83 301 58 250 q 152 388 108 353 q 253 450 196 424 q 375 501 311 476 l 375 558 q 369 639 375 607 q 347 687 364 671 q 294 703 329 703 q 245 689 264 703 q 218 649 226 675 q 210 589 210 624 l 210 549 l 63 554 q 124 751 65 688 q 304 814 182 814 q 474 749 424 814 q 524 560 524 683 l 524 193 q 526 121 524 156 q 531 56 528 86 q 538 0 535 26 l 401 0 q 391 56 397 22 q 382 118 385 90 q 328 30 368 71 q 219 -11 289 -11 m 278 117 q 319 129 300 117 q 354 158 339 142 q 375 183 369 174 l 375 411 q 310 372 340 392 q 256 331 279 353 q 220 283 233 310 q 207 221 207 256 q 225 144 207 172 q 278 117 243 117 m 186 889 l 31 1125 l 181 1125 l 261 889 l 186 889 m 364 889 l 261 1125 l 383 1125 l 439 889 l 364 889 z "},"ä":{"ha":592,"x_min":58,"x_max":538,"o":"m 219 -11 q 136 16 172 -11 q 79 85 100 43 q 58 175 58 128 q 83 301 58 250 q 152 388 108 353 q 253 450 196 424 q 375 501 311 476 l 375 558 q 369 639 375 607 q 347 687 364 671 q 294 703 329 703 q 245 689 264 703 q 218 649 226 675 q 210 589 210 624 l 210 549 l 63 554 q 124 751 65 688 q 304 814 182 814 q 474 749 424 814 q 524 560 524 683 l 524 193 q 526 121 524 156 q 531 56 528 86 q 538 0 535 26 l 401 0 q 391 56 397 22 q 382 118 385 90 q 328 30 368 71 q 219 -11 289 -11 m 278 117 q 319 129 300 117 q 354 158 339 142 q 375 183 369 174 l 375 411 q 310 372 340 392 q 256 331 279 353 q 220 283 233 310 q 207 221 207 256 q 225 144 207 172 q 278 117 243 117 m 349 971 l 349 1125 l 499 1125 l 499 971 l 349 971 m 110 971 l 110 1125 l 260 1125 l 260 971 l 110 971 z "},"ạ":{"ha":592,"x_min":58,"x_max":538,"o":"m 219 -11 q 136 16 172 -11 q 79 85 100 43 q 58 175 58 128 q 83 301 58 250 q 152 388 108 353 q 253 450 196 424 q 375 501 311 476 l 375 558 q 369 639 375 607 q 347 687 364 671 q 294 703 329 703 q 245 689 264 703 q 218 649 226 675 q 210 589 210 624 l 210 549 l 63 554 q 124 751 65 688 q 304 814 182 814 q 474 749 424 814 q 524 560 524 683 l 524 193 q 526 121 524 156 q 531 56 528 86 q 538 0 535 26 l 401 0 q 391 56 397 22 q 382 118 385 90 q 328 30 368 71 q 219 -11 289 -11 m 278 117 q 319 129 300 117 q 354 158 339 142 q 375 183 369 174 l 375 411 q 310 372 340 392 q 256 331 279 353 q 220 283 233 310 q 207 221 207 256 q 225 144 207 172 q 278 117 243 117 m 221 -244 l 221 -87 l 371 -87 l 371 -244 l 221 -244 z "},"à":{"ha":592,"x_min":58,"x_max":538,"o":"m 219 -11 q 136 16 172 -11 q 79 85 100 43 q 58 175 58 128 q 83 301 58 250 q 152 388 108 353 q 253 450 196 424 q 375 501 311 476 l 375 558 q 369 639 375 607 q 347 687 364 671 q 294 703 329 703 q 245 689 264 703 q 218 649 226 675 q 210 589 210 624 l 210 549 l 63 554 q 124 751 65 688 q 304 814 182 814 q 474 749 424 814 q 524 560 524 683 l 524 193 q 526 121 524 156 q 531 56 528 86 q 538 0 535 26 l 401 0 q 391 56 397 22 q 382 118 385 90 q 328 30 368 71 q 219 -11 289 -11 m 278 117 q 319 129 300 117 q 354 158 339 142 q 375 183 369 174 l 375 411 q 310 372 340 392 q 256 331 279 353 q 220 283 233 310 q 207 221 207 256 q 225 144 207 172 q 278 117 243 117 m 269 869 l 115 1144 l 264 1144 l 343 869 l 269 869 z "},"ả":{"ha":592,"x_min":58,"x_max":538,"o":"m 219 -11 q 136 16 172 -11 q 79 85 100 43 q 58 175 58 128 q 83 301 58 250 q 152 388 108 353 q 253 450 196 424 q 375 501 311 476 l 375 558 q 369 639 375 607 q 347 687 364 671 q 294 703 329 703 q 245 689 264 703 q 218 649 226 675 q 210 589 210 624 l 210 549 l 63 554 q 124 751 65 688 q 304 814 182 814 q 474 749 424 814 q 524 560 524 683 l 524 193 q 526 121 524 156 q 531 56 528 86 q 538 0 535 26 l 401 0 q 391 56 397 22 q 382 118 385 90 q 328 30 368 71 q 219 -11 289 -11 m 278 117 q 319 129 300 117 q 354 158 339 142 q 375 183 369 174 l 375 411 q 310 372 340 392 q 256 331 279 353 q 220 283 233 310 q 207 221 207 256 q 225 144 207 172 q 278 117 243 117 m 306 883 l 258 939 q 324 975 299 957 q 349 1019 349 993 q 324 1061 349 1049 q 264 1074 300 1074 q 229 1072 247 1074 q 193 1064 211 1069 l 193 1139 q 306 1153 247 1153 q 383 1140 349 1153 q 439 1101 418 1128 q 460 1032 460 1074 q 440 964 460 992 q 385 917 419 936 q 306 883 350 899 z "},"ȃ":{"ha":592,"x_min":58,"x_max":538,"o":"m 219 -11 q 136 16 172 -11 q 79 85 100 43 q 58 175 58 128 q 83 301 58 250 q 152 388 108 353 q 253 450 196 424 q 375 501 311 476 l 375 558 q 369 639 375 607 q 347 687 364 671 q 294 703 329 703 q 245 689 264 703 q 218 649 226 675 q 210 589 210 624 l 210 549 l 63 554 q 124 751 65 688 q 304 814 182 814 q 474 749 424 814 q 524 560 524 683 l 524 193 q 526 121 524 156 q 531 56 528 86 q 538 0 535 26 l 401 0 q 391 56 397 22 q 382 118 385 90 q 328 30 368 71 q 219 -11 289 -11 m 278 117 q 319 129 300 117 q 354 158 339 142 q 375 183 369 174 l 375 411 q 310 372 340 392 q 256 331 279 353 q 220 283 233 310 q 207 221 207 256 q 225 144 207 172 q 278 117 243 117 m 121 918 q 137 1023 122 976 q 191 1097 151 1069 q 304 1125 231 1125 q 417 1097 378 1125 q 472 1023 457 1069 q 488 918 488 976 l 400 918 q 378 1013 400 985 q 304 1040 357 1040 q 231 1012 253 1040 q 208 918 210 983 l 121 918 z "},"ā":{"ha":592,"x_min":58,"x_max":538,"o":"m 219 -11 q 136 16 172 -11 q 79 85 100 43 q 58 175 58 128 q 83 301 58 250 q 152 388 108 353 q 253 450 196 424 q 375 501 311 476 l 375 558 q 369 639 375 607 q 347 687 364 671 q 294 703 329 703 q 245 689 264 703 q 218 649 226 675 q 210 589 210 624 l 210 549 l 63 554 q 124 751 65 688 q 304 814 182 814 q 474 749 424 814 q 524 560 524 683 l 524 193 q 526 121 524 156 q 531 56 528 86 q 538 0 535 26 l 401 0 q 391 56 397 22 q 382 118 385 90 q 328 30 368 71 q 219 -11 289 -11 m 278 117 q 319 129 300 117 q 354 158 339 142 q 375 183 369 174 l 375 411 q 310 372 340 392 q 256 331 279 353 q 220 283 233 310 q 207 221 207 256 q 225 144 207 172 q 278 117 243 117 m 171 951 l 171 1042 l 438 1042 l 438 951 l 171 951 z "},"ą":{"ha":592,"x_min":58,"x_max":554,"o":"m 219 -11 q 136 16 172 -11 q 79 85 100 43 q 58 175 58 128 q 83 301 58 250 q 152 388 108 353 q 253 450 196 424 q 375 501 311 476 l 375 558 q 369 639 375 607 q 347 687 364 671 q 294 703 329 703 q 245 689 264 703 q 218 649 226 675 q 210 589 210 624 l 210 549 l 63 554 q 124 751 65 688 q 304 814 182 814 q 474 749 424 814 q 524 560 524 683 l 524 193 q 526 121 524 156 q 531 56 528 86 q 538 0 535 26 l 401 0 q 391 56 397 22 q 382 118 385 90 q 328 30 368 71 q 219 -11 289 -11 m 278 117 q 319 129 300 117 q 354 158 339 142 q 375 183 369 174 l 375 411 q 310 372 340 392 q 256 331 279 353 q 220 283 233 310 q 207 221 207 256 q 225 144 207 172 q 278 117 243 117 m 479 -321 q 407 -317 442 -321 q 345 -300 372 -312 q 302 -264 318 -287 q 286 -201 286 -240 q 310 -114 286 -156 q 369 -42 333 -72 q 440 0 404 -11 l 515 0 q 463 -52 490 -22 q 417 -115 436 -82 q 399 -179 399 -147 q 435 -234 399 -222 q 510 -246 471 -246 q 533 -245 521 -246 q 554 -243 544 -244 l 529 -317 q 504 -319 518 -318 q 479 -321 490 -321 z "},"å":{"ha":592,"x_min":58,"x_max":538,"o":"m 219 -11 q 136 16 172 -11 q 79 85 100 43 q 58 175 58 128 q 83 301 58 250 q 152 388 108 353 q 253 450 196 424 q 375 501 311 476 l 375 558 q 369 639 375 607 q 347 687 364 671 q 294 703 329 703 q 245 689 264 703 q 218 649 226 675 q 210 589 210 624 l 210 549 l 63 554 q 124 751 65 688 q 304 814 182 814 q 474 749 424 814 q 524 560 524 683 l 524 193 q 526 121 524 156 q 531 56 528 86 q 538 0 535 26 l 401 0 q 391 56 397 22 q 382 118 385 90 q 328 30 368 71 q 219 -11 289 -11 m 278 117 q 319 129 300 117 q 354 158 339 142 q 375 183 369 174 l 375 411 q 310 372 340 392 q 256 331 279 353 q 220 283 233 310 q 207 221 207 256 q 225 144 207 172 q 278 117 243 117 m 304 828 q 192 870 235 828 q 149 983 149 913 q 192 1096 149 1054 q 304 1138 235 1138 q 417 1096 374 1138 q 460 983 460 1054 q 417 870 460 913 q 304 828 374 828 m 304 903 q 363 924 340 903 q 385 983 385 946 q 363 1043 385 1022 q 304 1064 340 1064 q 245 1043 267 1064 q 224 983 224 1022 q 245 924 224 946 q 304 903 267 903 z "},"ǻ":{"ha":592,"x_min":58,"x_max":538,"o":"m 219 -11 q 136 16 172 -11 q 79 85 100 43 q 58 175 58 128 q 83 301 58 250 q 152 388 108 353 q 253 450 196 424 q 375 501 311 476 l 375 558 q 369 639 375 607 q 347 687 364 671 q 294 703 329 703 q 245 689 264 703 q 218 649 226 675 q 210 589 210 624 l 210 549 l 63 554 q 124 751 65 688 q 304 814 182 814 q 474 749 424 814 q 524 560 524 683 l 524 193 q 526 121 524 156 q 531 56 528 86 q 538 0 535 26 l 401 0 q 391 56 397 22 q 382 118 385 90 q 328 30 368 71 q 219 -11 289 -11 m 278 117 q 319 129 300 117 q 354 158 339 142 q 375 183 369 174 l 375 411 q 310 372 340 392 q 256 331 279 353 q 220 283 233 310 q 207 221 207 256 q 225 144 207 172 q 278 117 243 117 m 304 828 q 192 870 235 828 q 149 983 149 913 q 192 1096 149 1054 q 304 1138 235 1138 q 417 1096 374 1138 q 460 983 460 1054 q 417 870 460 913 q 304 828 374 828 m 304 903 q 363 924 340 903 q 385 983 385 946 q 363 1043 385 1022 q 304 1064 340 1064 q 245 1043 267 1064 q 224 983 224 1022 q 245 924 224 946 q 304 903 267 903 m 265 1204 l 347 1479 l 496 1479 l 340 1204 l 265 1204 z "},"ã":{"ha":592,"x_min":58,"x_max":538,"o":"m 219 -11 q 136 16 172 -11 q 79 85 100 43 q 58 175 58 128 q 83 301 58 250 q 152 388 108 353 q 253 450 196 424 q 375 501 311 476 l 375 558 q 369 639 375 607 q 347 687 364 671 q 294 703 329 703 q 245 689 264 703 q 218 649 226 675 q 210 589 210 624 l 210 549 l 63 554 q 124 751 65 688 q 304 814 182 814 q 474 749 424 814 q 524 560 524 683 l 524 193 q 526 121 524 156 q 531 56 528 86 q 538 0 535 26 l 401 0 q 391 56 397 22 q 382 118 385 90 q 328 30 368 71 q 219 -11 289 -11 m 278 117 q 319 129 300 117 q 354 158 339 142 q 375 183 369 174 l 375 411 q 310 372 340 392 q 256 331 279 353 q 220 283 233 310 q 207 221 207 256 q 225 144 207 172 q 278 117 243 117 m 410 972 q 341 990 371 972 q 285 1024 311 1007 q 228 1040 258 1040 q 192 1028 204 1040 q 181 983 181 1015 l 96 983 q 106 1059 96 1025 q 141 1113 117 1093 q 207 1133 165 1133 q 270 1117 242 1133 q 326 1083 299 1100 q 383 1067 354 1067 q 418 1079 407 1067 q 429 1125 429 1092 l 513 1125 q 504 1049 513 1083 q 474 993 496 1014 q 410 972 451 972 z "},"æ":{"ha":904,"x_min":58,"x_max":844,"o":"m 250 -11 q 106 42 153 -11 q 58 175 58 96 q 84 297 58 249 q 158 376 110 346 q 272 425 207 407 l 381 454 l 381 558 q 365 661 381 622 q 296 700 349 700 q 244 683 264 700 q 217 637 225 667 q 208 568 208 607 l 61 568 q 124 747 63 681 q 296 814 185 814 q 410 774 368 814 q 463 675 453 733 l 442 675 q 476 745 449 714 q 546 795 503 776 q 642 814 589 814 q 789 764 740 814 q 838 629 838 714 q 808 508 838 551 q 730 445 778 465 q 628 413 682 425 l 529 392 l 529 215 q 546 139 529 171 q 611 107 563 107 q 664 125 646 107 q 689 174 682 143 q 696 244 696 206 l 696 279 l 844 279 l 844 246 q 822 108 844 165 q 753 20 800 51 q 631 -11 706 -11 q 526 9 567 -11 q 465 66 486 29 q 436 151 444 103 q 401 66 425 103 q 341 9 378 29 q 250 -11 304 -11 m 288 104 q 340 119 319 104 q 370 163 360 133 q 381 238 381 193 l 381 368 l 317 347 q 257 317 282 336 q 219 270 232 297 q 207 207 207 243 q 215 153 207 176 q 242 117 224 131 q 288 104 260 104 m 529 472 l 606 490 q 678 526 654 501 q 701 606 701 551 q 683 667 701 642 q 619 693 665 693 q 565 675 585 693 q 538 626 546 657 q 529 551 529 594 l 529 472 z "},"ǽ":{"ha":904,"x_min":58,"x_max":844,"o":"m 250 -11 q 106 42 153 -11 q 58 175 58 96 q 84 297 58 249 q 158 376 110 346 q 272 425 207 407 l 381 454 l 381 558 q 365 661 381 622 q 296 700 349 700 q 244 683 264 700 q 217 637 225 667 q 208 568 208 607 l 61 568 q 124 747 63 681 q 296 814 185 814 q 410 774 368 814 q 463 675 453 733 l 442 675 q 476 745 449 714 q 546 795 503 776 q 642 814 589 814 q 789 764 740 814 q 838 629 838 714 q 808 508 838 551 q 730 445 778 465 q 628 413 682 425 l 529 392 l 529 215 q 546 139 529 171 q 611 107 563 107 q 664 125 646 107 q 689 174 682 143 q 696 244 696 206 l 696 279 l 844 279 l 844 246 q 822 108 844 165 q 753 20 800 51 q 631 -11 706 -11 q 526 9 567 -11 q 465 66 486 29 q 436 151 444 103 q 401 66 425 103 q 341 9 378 29 q 250 -11 304 -11 m 288 104 q 340 119 319 104 q 370 163 360 133 q 381 238 381 193 l 381 368 l 317 347 q 257 317 282 336 q 219 270 232 297 q 207 207 207 243 q 215 153 207 176 q 242 117 224 131 q 288 104 260 104 m 529 472 l 606 490 q 678 526 654 501 q 701 606 701 551 q 683 667 701 642 q 619 693 665 693 q 565 675 585 693 q 538 626 546 657 q 529 551 529 594 l 529 472 m 413 869 l 494 1144 l 643 1144 l 488 869 l 413 869 z "},"b":{"ha":621,"x_min":78,"x_max":561,"o":"m 363 -11 q 285 10 319 -11 q 226 58 251 32 l 226 0 l 78 0 l 78 1125 l 226 1125 l 226 739 q 290 792 253 769 q 378 814 326 814 q 477 781 440 814 q 532 699 514 749 q 556 599 550 650 q 561 513 561 549 l 561 318 q 544 158 561 233 q 485 35 528 82 q 363 -11 442 -11 m 332 106 q 388 134 371 106 q 408 211 404 163 q 413 318 413 260 l 413 513 q 407 605 413 563 q 383 672 401 647 q 326 697 365 697 q 272 685 297 697 q 226 657 246 672 l 226 142 q 273 116 246 126 q 332 106 300 106 z "},"ḃ":{"ha":621,"x_min":78,"x_max":561,"o":"m 363 -11 q 285 10 319 -11 q 226 58 251 32 l 226 0 l 78 0 l 78 1125 l 226 1125 l 226 739 q 290 792 253 769 q 378 814 326 814 q 477 781 440 814 q 532 699 514 749 q 556 599 550 650 q 561 513 561 549 l 561 318 q 544 158 561 233 q 485 35 528 82 q 363 -11 442 -11 m 332 106 q 388 134 371 106 q 408 211 404 163 q 413 318 413 260 l 413 513 q 407 605 413 563 q 383 672 401 647 q 326 697 365 697 q 272 685 297 697 q 226 657 246 672 l 226 142 q 273 116 246 126 q 332 106 300 106 m 78 1254 l 78 1419 l 228 1419 l 228 1254 l 78 1254 z "},"c":{"ha":571,"x_min":60,"x_max":514,"o":"m 294 -11 q 145 28 196 -11 q 77 140 94 68 q 60 308 60 213 l 60 493 q 78 666 60 594 q 147 776 96 738 q 294 814 197 814 q 430 785 382 814 q 496 701 478 757 q 514 561 514 644 l 514 514 l 379 514 l 379 563 q 372 646 379 615 q 347 690 365 676 q 296 704 329 704 q 240 688 260 704 q 215 631 221 671 q 208 524 208 592 l 208 271 q 228 133 208 168 q 297 99 247 99 q 352 116 335 99 q 374 165 369 133 q 379 238 379 197 l 379 303 l 514 303 l 514 247 q 495 108 514 167 q 428 19 476 50 q 294 -11 381 -11 z "},"ć":{"ha":571,"x_min":60,"x_max":514,"o":"m 294 -11 q 145 28 196 -11 q 77 140 94 68 q 60 308 60 213 l 60 493 q 78 666 60 594 q 147 776 96 738 q 294 814 197 814 q 430 785 382 814 q 496 701 478 757 q 514 561 514 644 l 514 514 l 379 514 l 379 563 q 372 646 379 615 q 347 690 365 676 q 296 704 329 704 q 240 688 260 704 q 215 631 221 671 q 208 524 208 592 l 208 271 q 228 133 208 168 q 297 99 247 99 q 352 116 335 99 q 374 165 369 133 q 379 238 379 197 l 379 303 l 514 303 l 514 247 q 495 108 514 167 q 428 19 476 50 q 294 -11 381 -11 m 247 869 l 329 1144 l 478 1144 l 322 869 l 247 869 z "},"č":{"ha":571,"x_min":60,"x_max":514,"o":"m 294 -11 q 145 28 196 -11 q 77 140 94 68 q 60 308 60 213 l 60 493 q 78 666 60 594 q 147 776 96 738 q 294 814 197 814 q 430 785 382 814 q 496 701 478 757 q 514 561 514 644 l 514 514 l 379 514 l 379 563 q 372 646 379 615 q 347 690 365 676 q 296 704 329 704 q 240 688 260 704 q 215 631 221 671 q 208 524 208 592 l 208 271 q 228 133 208 168 q 297 99 247 99 q 352 116 335 99 q 374 165 369 133 q 379 238 379 197 l 379 303 l 514 303 l 514 247 q 495 108 514 167 q 428 19 476 50 q 294 -11 381 -11 m 213 885 l 92 1125 l 206 1125 l 286 963 l 367 1125 l 481 1125 l 358 885 l 213 885 z "},"ç":{"ha":571,"x_min":60,"x_max":514,"o":"m 294 -11 q 145 28 196 -11 q 77 140 94 68 q 60 308 60 213 l 60 493 q 78 666 60 594 q 147 776 96 738 q 294 814 197 814 q 430 785 382 814 q 496 701 478 757 q 514 561 514 644 l 514 514 l 379 514 l 379 563 q 372 646 379 615 q 347 690 365 676 q 296 704 329 704 q 240 688 260 704 q 215 631 221 671 q 208 524 208 592 l 208 271 q 228 133 208 168 q 297 99 247 99 q 352 116 335 99 q 374 165 369 133 q 379 238 379 197 l 379 303 l 514 303 l 514 247 q 495 108 514 167 q 428 19 476 50 q 294 -11 381 -11 m 304 -326 q 258 -322 282 -326 q 211 -312 235 -318 l 211 -237 q 247 -245 229 -243 q 282 -247 265 -247 q 342 -235 318 -247 q 367 -193 367 -222 q 353 -153 367 -168 q 313 -130 339 -139 q 249 -115 286 -121 l 249 0 l 324 0 l 324 -78 q 435 -110 393 -78 q 478 -197 478 -142 q 455 -270 478 -242 q 392 -312 432 -299 q 304 -326 353 -326 z "},"ĉ":{"ha":571,"x_min":60,"x_max":514,"o":"m 294 -11 q 145 28 196 -11 q 77 140 94 68 q 60 308 60 213 l 60 493 q 78 666 60 594 q 147 776 96 738 q 294 814 197 814 q 430 785 382 814 q 496 701 478 757 q 514 561 514 644 l 514 514 l 379 514 l 379 563 q 372 646 379 615 q 347 690 365 676 q 296 704 329 704 q 240 688 260 704 q 215 631 221 671 q 208 524 208 592 l 208 271 q 228 133 208 168 q 297 99 247 99 q 352 116 335 99 q 374 165 369 133 q 379 238 379 197 l 379 303 l 514 303 l 514 247 q 495 108 514 167 q 428 19 476 50 q 294 -11 381 -11 m 90 882 l 210 1125 l 361 1125 l 482 882 l 369 882 l 285 1050 l 201 882 l 90 882 z "},"ċ":{"ha":571,"x_min":60,"x_max":514,"o":"m 294 -11 q 145 28 196 -11 q 77 140 94 68 q 60 308 60 213 l 60 493 q 78 666 60 594 q 147 776 96 738 q 294 814 197 814 q 430 785 382 814 q 496 701 478 757 q 514 561 514 644 l 514 514 l 379 514 l 379 563 q 372 646 379 615 q 347 690 365 676 q 296 704 329 704 q 240 688 260 704 q 215 631 221 671 q 208 524 208 592 l 208 271 q 228 133 208 168 q 297 99 247 99 q 352 116 335 99 q 374 165 369 133 q 379 238 379 197 l 379 303 l 514 303 l 514 247 q 495 108 514 167 q 428 19 476 50 q 294 -11 381 -11 m 211 932 l 211 1097 l 361 1097 l 361 932 l 211 932 z "},"d":{"ha":614,"x_min":60,"x_max":539,"o":"m 261 -11 q 110 63 160 -11 q 60 315 60 138 l 60 471 q 75 641 60 563 q 133 767 90 719 q 257 814 175 814 q 331 796 297 814 q 390 751 364 778 l 390 1125 l 539 1125 l 539 0 l 390 0 l 390 51 q 333 6 364 24 q 261 -11 301 -11 m 299 106 q 343 113 319 106 q 390 136 367 121 l 390 663 q 347 687 371 676 q 296 697 324 697 q 226 648 244 697 q 208 529 208 599 l 208 303 q 215 202 208 247 q 240 131 221 157 q 299 106 260 106 z "},"ð":{"ha":654,"x_min":72,"x_max":614,"o":"m 329 -12 q 185 27 243 -12 q 100 140 128 67 q 72 313 72 213 l 72 406 q 89 590 72 507 q 152 724 106 674 q 290 774 199 774 q 372 758 339 774 q 425 724 406 742 q 408 828 419 778 q 376 910 396 879 l 211 858 l 211 933 l 336 969 q 256 1021 307 1003 q 107 1040 206 1039 l 114 1138 q 328 1105 249 1136 q 453 1007 407 1074 l 614 1054 l 614 979 l 490 946 q 539 817 519 882 q 568 681 558 753 q 578 524 578 610 l 578 329 q 554 149 578 226 q 476 30 531 72 q 329 -12 421 -12 m 329 106 q 391 131 369 106 q 420 200 413 156 q 428 304 428 244 q 428 379 428 342 q 428 455 428 417 q 428 531 428 493 q 428 606 428 568 q 385 637 410 622 q 328 651 360 651 q 263 624 286 651 q 230 539 239 596 q 221 394 221 482 q 227 235 221 300 q 256 138 233 171 q 329 106 279 106 z "},"ď":{"ha":731,"x_min":60,"x_max":758,"o":"m 261 -11 q 110 63 160 -11 q 60 315 60 138 l 60 471 q 75 641 60 563 q 133 767 90 719 q 257 814 175 814 q 331 796 297 814 q 390 751 364 778 l 390 1125 l 539 1125 l 539 0 l 390 0 l 390 51 q 333 6 364 24 q 261 -11 301 -11 m 299 106 q 343 113 319 106 q 390 136 367 121 l 390 663 q 347 687 371 676 q 296 697 324 697 q 226 648 244 697 q 208 529 208 599 l 208 303 q 215 202 208 247 q 240 131 221 157 q 299 106 260 106 m 628 783 l 604 847 q 663 891 642 860 q 685 965 685 922 l 606 965 l 606 1125 l 758 1125 l 758 968 q 726 851 758 894 q 628 783 694 807 z "},"đ":{"ha":631,"x_min":60,"x_max":621,"o":"m 261 -11 q 110 63 160 -11 q 60 315 60 138 l 60 471 q 75 641 60 563 q 133 767 90 719 q 257 814 175 814 q 331 796 297 814 q 390 751 364 778 l 390 943 l 235 943 l 235 1025 l 390 1025 l 390 1125 l 539 1125 l 539 1025 l 621 1025 l 621 943 l 539 943 l 539 0 l 390 0 l 390 51 q 333 6 364 24 q 261 -11 301 -11 m 299 106 q 343 113 319 106 q 390 136 367 121 l 390 663 q 347 687 371 676 q 296 697 324 697 q 226 648 244 697 q 208 529 208 599 l 208 303 q 215 202 208 247 q 240 131 221 157 q 299 106 260 106 z "},"ḋ":{"ha":614,"x_min":60,"x_max":540,"o":"m 261 -11 q 110 63 160 -11 q 60 315 60 138 l 60 471 q 75 641 60 563 q 133 767 90 719 q 257 814 175 814 q 331 796 297 814 q 390 751 364 778 l 390 1125 l 539 1125 l 539 0 l 390 0 l 390 51 q 333 6 364 24 q 261 -11 301 -11 m 299 106 q 343 113 319 106 q 390 136 367 121 l 390 663 q 347 687 371 676 q 296 697 324 697 q 226 648 244 697 q 208 529 208 599 l 208 303 q 215 202 208 247 q 240 131 221 157 q 299 106 260 106 m 390 1254 l 390 1419 l 540 1419 l 540 1254 l 390 1254 z "},"ǳ":{"ha":1096,"x_min":60,"x_max":1064,"o":"m 261 -11 q 110 63 160 -11 q 60 315 60 138 l 60 471 q 75 641 60 563 q 133 767 90 719 q 257 814 175 814 q 331 796 297 814 q 390 751 364 778 l 390 1125 l 539 1125 l 539 0 l 390 0 l 390 51 q 333 6 364 24 q 261 -11 301 -11 m 299 106 q 343 113 319 106 q 390 136 367 121 l 390 663 q 347 687 371 676 q 296 697 324 697 q 226 648 244 697 q 208 529 208 599 l 208 303 q 215 202 208 247 q 240 131 221 157 q 299 106 260 106 m 658 0 l 658 100 l 904 692 l 683 692 l 683 803 l 1064 803 l 1064 722 l 817 113 l 1058 113 l 1058 0 l 658 0 z "},"ǆ":{"ha":1096,"x_min":60,"x_max":1064,"o":"m 261 -11 q 110 63 160 -11 q 60 315 60 138 l 60 471 q 75 641 60 563 q 133 767 90 719 q 257 814 175 814 q 331 796 297 814 q 390 751 364 778 l 390 1125 l 539 1125 l 539 0 l 390 0 l 390 51 q 333 6 364 24 q 261 -11 301 -11 m 299 106 q 343 113 319 106 q 390 136 367 121 l 390 663 q 347 687 371 676 q 296 697 324 697 q 226 648 244 697 q 208 529 208 599 l 208 303 q 215 202 208 247 q 240 131 221 157 q 299 106 260 106 z "},"e":{"ha":585,"x_min":60,"x_max":525,"o":"m 297 -11 q 151 26 203 -11 q 80 134 100 63 q 60 310 60 206 l 60 493 q 81 671 60 600 q 153 778 101 742 q 297 814 206 814 q 447 772 399 814 q 510 652 494 731 q 525 464 525 574 l 525 399 l 208 399 l 208 238 q 217 158 208 189 q 247 113 226 128 q 299 99 267 99 q 349 115 332 99 q 373 160 367 131 q 379 231 379 190 l 379 279 l 524 279 l 524 249 q 472 58 524 128 q 297 -11 421 -11 m 208 479 l 379 479 l 379 551 q 374 635 379 601 q 351 687 368 669 q 296 704 333 704 q 241 688 260 704 q 215 631 222 671 q 208 522 208 592 l 208 479 z "},"é":{"ha":585,"x_min":60,"x_max":525,"o":"m 297 -11 q 151 26 203 -11 q 80 134 100 63 q 60 310 60 206 l 60 493 q 81 671 60 600 q 153 778 101 742 q 297 814 206 814 q 447 772 399 814 q 510 652 494 731 q 525 464 525 574 l 525 399 l 208 399 l 208 238 q 217 158 208 189 q 247 113 226 128 q 299 99 267 99 q 349 115 332 99 q 373 160 367 131 q 379 231 379 190 l 379 279 l 524 279 l 524 249 q 472 58 524 128 q 297 -11 421 -11 m 208 479 l 379 479 l 379 551 q 374 635 379 601 q 351 687 368 669 q 296 704 333 704 q 241 688 260 704 q 215 631 222 671 q 208 522 208 592 l 208 479 m 254 869 l 336 1144 l 485 1144 l 329 869 l 254 869 z "},"ĕ":{"ha":585,"x_min":60,"x_max":525,"o":"m 297 -11 q 151 26 203 -11 q 80 134 100 63 q 60 310 60 206 l 60 493 q 81 671 60 600 q 153 778 101 742 q 297 814 206 814 q 447 772 399 814 q 510 652 494 731 q 525 464 525 574 l 525 399 l 208 399 l 208 238 q 217 158 208 189 q 247 113 226 128 q 299 99 267 99 q 349 115 332 99 q 373 160 367 131 q 379 231 379 190 l 379 279 l 524 279 l 524 249 q 472 58 524 128 q 297 -11 421 -11 m 208 479 l 379 479 l 379 551 q 374 635 379 601 q 351 687 368 669 q 296 704 333 704 q 241 688 260 704 q 215 631 222 671 q 208 522 208 592 l 208 479 m 293 890 q 152 944 193 890 q 111 1079 111 999 l 197 1079 q 220 1002 199 1029 q 293 975 242 975 q 367 1003 346 975 q 389 1079 389 1031 l 476 1079 q 435 944 476 999 q 293 890 394 890 z "},"ě":{"ha":585,"x_min":60,"x_max":525,"o":"m 297 -11 q 151 26 203 -11 q 80 134 100 63 q 60 310 60 206 l 60 493 q 81 671 60 600 q 153 778 101 742 q 297 814 206 814 q 447 772 399 814 q 510 652 494 731 q 525 464 525 574 l 525 399 l 208 399 l 208 238 q 217 158 208 189 q 247 113 226 128 q 299 99 267 99 q 349 115 332 99 q 373 160 367 131 q 379 231 379 190 l 379 279 l 524 279 l 524 249 q 472 58 524 128 q 297 -11 421 -11 m 208 479 l 379 479 l 379 551 q 374 635 379 601 q 351 687 368 669 q 296 704 333 704 q 241 688 260 704 q 215 631 222 671 q 208 522 208 592 l 208 479 m 219 885 l 99 1125 l 213 1125 l 293 963 l 374 1125 l 488 1125 l 365 885 l 219 885 z "},"ê":{"ha":585,"x_min":60,"x_max":525,"o":"m 297 -11 q 151 26 203 -11 q 80 134 100 63 q 60 310 60 206 l 60 493 q 81 671 60 600 q 153 778 101 742 q 297 814 206 814 q 447 772 399 814 q 510 652 494 731 q 525 464 525 574 l 525 399 l 208 399 l 208 238 q 217 158 208 189 q 247 113 226 128 q 299 99 267 99 q 349 115 332 99 q 373 160 367 131 q 379 231 379 190 l 379 279 l 524 279 l 524 249 q 472 58 524 128 q 297 -11 421 -11 m 208 479 l 379 479 l 379 551 q 374 635 379 601 q 351 687 368 669 q 296 704 333 704 q 241 688 260 704 q 215 631 222 671 q 208 522 208 592 l 208 479 m 97 882 l 217 1125 l 368 1125 l 489 882 l 376 882 l 292 1050 l 208 882 l 97 882 z "},"ế":{"ha":585,"x_min":60,"x_max":672,"o":"m 297 -11 q 151 26 203 -11 q 80 134 100 63 q 60 310 60 206 l 60 493 q 81 671 60 600 q 153 778 101 742 q 297 814 206 814 q 447 772 399 814 q 510 652 494 731 q 525 464 525 574 l 525 399 l 208 399 l 208 238 q 217 158 208 189 q 247 113 226 128 q 299 99 267 99 q 349 115 332 99 q 373 160 367 131 q 379 231 379 190 l 379 279 l 524 279 l 524 249 q 472 58 524 128 q 297 -11 421 -11 m 208 479 l 379 479 l 379 551 q 374 635 379 601 q 351 687 368 669 q 296 704 333 704 q 241 688 260 704 q 215 631 222 671 q 208 522 208 592 l 208 479 m 97 882 l 217 1097 l 368 1097 l 489 882 l 376 882 l 292 1022 l 208 882 l 97 882 m 469 1026 l 543 1186 l 672 1186 l 561 1026 l 469 1026 z "},"ệ":{"ha":585,"x_min":60,"x_max":525,"o":"m 297 -11 q 151 26 203 -11 q 80 134 100 63 q 60 310 60 206 l 60 493 q 81 671 60 600 q 153 778 101 742 q 297 814 206 814 q 447 772 399 814 q 510 652 494 731 q 525 464 525 574 l 525 399 l 208 399 l 208 238 q 217 158 208 189 q 247 113 226 128 q 299 99 267 99 q 349 115 332 99 q 373 160 367 131 q 379 231 379 190 l 379 279 l 524 279 l 524 249 q 472 58 524 128 q 297 -11 421 -11 m 208 479 l 379 479 l 379 551 q 374 635 379 601 q 351 687 368 669 q 296 704 333 704 q 241 688 260 704 q 215 631 222 671 q 208 522 208 592 l 208 479 m 218 -244 l 218 -87 l 368 -87 l 368 -244 l 218 -244 m 97 882 l 217 1097 l 368 1097 l 489 882 l 376 882 l 292 1022 l 208 882 l 97 882 z "},"ề":{"ha":585,"x_min":60,"x_max":596,"o":"m 297 -11 q 151 26 203 -11 q 80 134 100 63 q 60 310 60 206 l 60 493 q 81 671 60 600 q 153 778 101 742 q 297 814 206 814 q 447 772 399 814 q 510 652 494 731 q 525 464 525 574 l 525 399 l 208 399 l 208 238 q 217 158 208 189 q 247 113 226 128 q 299 99 267 99 q 349 115 332 99 q 373 160 367 131 q 379 231 379 190 l 379 279 l 524 279 l 524 249 q 472 58 524 128 q 297 -11 421 -11 m 208 479 l 379 479 l 379 551 q 374 635 379 601 q 351 687 368 669 q 296 704 333 704 q 241 688 260 704 q 215 631 222 671 q 208 522 208 592 l 208 479 m 97 882 l 217 1097 l 368 1097 l 489 882 l 376 882 l 292 1022 l 208 882 l 97 882 m 504 1026 l 393 1186 l 522 1186 l 596 1026 l 504 1026 z "},"ể":{"ha":585,"x_min":60,"x_max":633,"o":"m 297 -11 q 151 26 203 -11 q 80 134 100 63 q 60 310 60 206 l 60 493 q 81 671 60 600 q 153 778 101 742 q 297 814 206 814 q 447 772 399 814 q 510 652 494 731 q 525 464 525 574 l 525 399 l 208 399 l 208 238 q 217 158 208 189 q 247 113 226 128 q 299 99 267 99 q 349 115 332 99 q 373 160 367 131 q 379 231 379 190 l 379 279 l 524 279 l 524 249 q 472 58 524 128 q 297 -11 421 -11 m 208 479 l 379 479 l 379 551 q 374 635 379 601 q 351 687 368 669 q 296 704 333 704 q 241 688 260 704 q 215 631 222 671 q 208 522 208 592 l 208 479 m 503 996 l 456 1051 q 504 1088 486 1069 q 522 1132 522 1106 q 502 1174 522 1161 q 454 1186 482 1186 q 423 1184 440 1186 q 390 1176 406 1182 l 390 1251 q 440 1262 415 1258 q 492 1265 465 1265 q 592 1236 551 1265 q 633 1144 633 1207 q 597 1051 633 1083 q 503 996 560 1019 m 97 882 l 217 1097 l 368 1097 l 489 882 l 376 882 l 292 1022 l 208 882 l 97 882 z "},"ễ":{"ha":585,"x_min":60,"x_max":525,"o":"m 297 -11 q 151 26 203 -11 q 80 134 100 63 q 60 310 60 206 l 60 493 q 81 671 60 600 q 153 778 101 742 q 297 814 206 814 q 447 772 399 814 q 510 652 494 731 q 525 464 525 574 l 525 399 l 208 399 l 208 238 q 217 158 208 189 q 247 113 226 128 q 299 99 267 99 q 349 115 332 99 q 373 160 367 131 q 379 231 379 190 l 379 279 l 524 279 l 524 249 q 472 58 524 128 q 297 -11 421 -11 m 208 479 l 379 479 l 379 551 q 374 635 379 601 q 351 687 368 669 q 296 704 333 704 q 241 688 260 704 q 215 631 222 671 q 208 522 208 592 l 208 479 z "},"ȅ":{"ha":585,"x_min":19,"x_max":525,"o":"m 297 -11 q 151 26 203 -11 q 80 134 100 63 q 60 310 60 206 l 60 493 q 81 671 60 600 q 153 778 101 742 q 297 814 206 814 q 447 772 399 814 q 510 652 494 731 q 525 464 525 574 l 525 399 l 208 399 l 208 238 q 217 158 208 189 q 247 113 226 128 q 299 99 267 99 q 349 115 332 99 q 373 160 367 131 q 379 231 379 190 l 379 279 l 524 279 l 524 249 q 472 58 524 128 q 297 -11 421 -11 m 208 479 l 379 479 l 379 551 q 374 635 379 601 q 351 687 368 669 q 296 704 333 704 q 241 688 260 704 q 215 631 222 671 q 208 522 208 592 l 208 479 m 175 889 l 19 1125 l 169 1125 l 250 889 l 175 889 m 353 889 l 250 1125 l 372 1125 l 428 889 l 353 889 z "},"ë":{"ha":585,"x_min":60,"x_max":525,"o":"m 297 -11 q 151 26 203 -11 q 80 134 100 63 q 60 310 60 206 l 60 493 q 81 671 60 600 q 153 778 101 742 q 297 814 206 814 q 447 772 399 814 q 510 652 494 731 q 525 464 525 574 l 525 399 l 208 399 l 208 238 q 217 158 208 189 q 247 113 226 128 q 299 99 267 99 q 349 115 332 99 q 373 160 367 131 q 379 231 379 190 l 379 279 l 524 279 l 524 249 q 472 58 524 128 q 297 -11 421 -11 m 208 479 l 379 479 l 379 551 q 374 635 379 601 q 351 687 368 669 q 296 704 333 704 q 241 688 260 704 q 215 631 222 671 q 208 522 208 592 l 208 479 m 338 971 l 338 1125 l 488 1125 l 488 971 l 338 971 m 99 971 l 99 1125 l 249 1125 l 249 971 l 99 971 z "},"ė":{"ha":585,"x_min":60,"x_max":525,"o":"m 297 -11 q 151 26 203 -11 q 80 134 100 63 q 60 310 60 206 l 60 493 q 81 671 60 600 q 153 778 101 742 q 297 814 206 814 q 447 772 399 814 q 510 652 494 731 q 525 464 525 574 l 525 399 l 208 399 l 208 238 q 217 158 208 189 q 247 113 226 128 q 299 99 267 99 q 349 115 332 99 q 373 160 367 131 q 379 231 379 190 l 379 279 l 524 279 l 524 249 q 472 58 524 128 q 297 -11 421 -11 m 208 479 l 379 479 l 379 551 q 374 635 379 601 q 351 687 368 669 q 296 704 333 704 q 241 688 260 704 q 215 631 222 671 q 208 522 208 592 l 208 479 m 218 932 l 218 1097 l 368 1097 l 368 932 l 218 932 z "},"ẹ":{"ha":585,"x_min":60,"x_max":525,"o":"m 297 -11 q 151 26 203 -11 q 80 134 100 63 q 60 310 60 206 l 60 493 q 81 671 60 600 q 153 778 101 742 q 297 814 206 814 q 447 772 399 814 q 510 652 494 731 q 525 464 525 574 l 525 399 l 208 399 l 208 238 q 217 158 208 189 q 247 113 226 128 q 299 99 267 99 q 349 115 332 99 q 373 160 367 131 q 379 231 379 190 l 379 279 l 524 279 l 524 249 q 472 58 524 128 q 297 -11 421 -11 m 208 479 l 379 479 l 379 551 q 374 635 379 601 q 351 687 368 669 q 296 704 333 704 q 241 688 260 704 q 215 631 222 671 q 208 522 208 592 l 208 479 m 218 -244 l 218 -87 l 368 -87 l 368 -244 l 218 -244 z "},"è":{"ha":585,"x_min":60,"x_max":525,"o":"m 297 -11 q 151 26 203 -11 q 80 134 100 63 q 60 310 60 206 l 60 493 q 81 671 60 600 q 153 778 101 742 q 297 814 206 814 q 447 772 399 814 q 510 652 494 731 q 525 464 525 574 l 525 399 l 208 399 l 208 238 q 217 158 208 189 q 247 113 226 128 q 299 99 267 99 q 349 115 332 99 q 373 160 367 131 q 379 231 379 190 l 379 279 l 524 279 l 524 249 q 472 58 524 128 q 297 -11 421 -11 m 208 479 l 379 479 l 379 551 q 374 635 379 601 q 351 687 368 669 q 296 704 333 704 q 241 688 260 704 q 215 631 222 671 q 208 522 208 592 l 208 479 m 258 869 l 104 1144 l 253 1144 l 332 869 l 258 869 z "},"ẻ":{"ha":585,"x_min":60,"x_max":525,"o":"m 297 -11 q 151 26 203 -11 q 80 134 100 63 q 60 310 60 206 l 60 493 q 81 671 60 600 q 153 778 101 742 q 297 814 206 814 q 447 772 399 814 q 510 652 494 731 q 525 464 525 574 l 525 399 l 208 399 l 208 238 q 217 158 208 189 q 247 113 226 128 q 299 99 267 99 q 349 115 332 99 q 373 160 367 131 q 379 231 379 190 l 379 279 l 524 279 l 524 249 q 472 58 524 128 q 297 -11 421 -11 m 208 479 l 379 479 l 379 551 q 374 635 379 601 q 351 687 368 669 q 296 704 333 704 q 241 688 260 704 q 215 631 222 671 q 208 522 208 592 l 208 479 m 294 883 l 247 939 q 313 975 288 957 q 338 1019 338 993 q 313 1061 338 1049 q 253 1074 289 1074 q 218 1072 236 1074 q 182 1064 200 1069 l 182 1139 q 294 1153 236 1153 q 372 1140 338 1153 q 428 1101 407 1128 q 449 1032 449 1074 q 428 964 449 992 q 374 917 408 936 q 294 883 339 899 z "},"ȇ":{"ha":585,"x_min":60,"x_max":525,"o":"m 297 -11 q 151 26 203 -11 q 80 134 100 63 q 60 310 60 206 l 60 493 q 81 671 60 600 q 153 778 101 742 q 297 814 206 814 q 447 772 399 814 q 510 652 494 731 q 525 464 525 574 l 525 399 l 208 399 l 208 238 q 217 158 208 189 q 247 113 226 128 q 299 99 267 99 q 349 115 332 99 q 373 160 367 131 q 379 231 379 190 l 379 279 l 524 279 l 524 249 q 472 58 524 128 q 297 -11 421 -11 m 208 479 l 379 479 l 379 551 q 374 635 379 601 q 351 687 368 669 q 296 704 333 704 q 241 688 260 704 q 215 631 222 671 q 208 522 208 592 l 208 479 m 110 918 q 126 1023 111 976 q 180 1097 140 1069 q 293 1125 219 1125 q 406 1097 367 1125 q 461 1023 446 1069 q 476 918 476 976 l 389 918 q 367 1013 389 985 q 293 1040 346 1040 q 220 1012 242 1040 q 197 918 199 983 l 110 918 z "},"ē":{"ha":585,"x_min":60,"x_max":525,"o":"m 297 -11 q 151 26 203 -11 q 80 134 100 63 q 60 310 60 206 l 60 493 q 81 671 60 600 q 153 778 101 742 q 297 814 206 814 q 447 772 399 814 q 510 652 494 731 q 525 464 525 574 l 525 399 l 208 399 l 208 238 q 217 158 208 189 q 247 113 226 128 q 299 99 267 99 q 349 115 332 99 q 373 160 367 131 q 379 231 379 190 l 379 279 l 524 279 l 524 249 q 472 58 524 128 q 297 -11 421 -11 m 208 479 l 379 479 l 379 551 q 374 635 379 601 q 351 687 368 669 q 296 704 333 704 q 241 688 260 704 q 215 631 222 671 q 208 522 208 592 l 208 479 m 160 951 l 160 1042 l 426 1042 l 426 951 l 160 951 z "},"ę":{"ha":585,"x_min":60,"x_max":525,"o":"m 297 -11 q 151 26 203 -11 q 80 134 100 63 q 60 310 60 206 l 60 493 q 81 671 60 600 q 153 778 101 742 q 297 814 206 814 q 447 772 399 814 q 510 652 494 731 q 525 464 525 574 l 525 399 l 208 399 l 208 238 q 217 158 208 189 q 247 113 226 128 q 299 99 267 99 q 349 115 332 99 q 373 160 367 131 q 379 231 379 190 l 379 279 l 524 279 l 524 249 q 472 58 524 128 q 297 -11 421 -11 m 208 479 l 379 479 l 379 551 q 374 635 379 601 q 351 687 368 669 q 296 704 333 704 q 241 688 260 704 q 215 631 222 671 q 208 522 208 592 l 208 479 m 349 -307 q 276 -303 311 -307 q 215 -286 242 -299 q 172 -250 188 -274 q 156 -187 156 -226 q 179 -100 156 -142 q 238 -28 203 -58 q 310 14 274 3 l 385 14 q 333 -38 360 -8 q 287 -101 306 -68 q 268 -165 268 -133 q 304 -220 268 -208 q 379 -232 340 -232 q 402 -231 390 -232 q 424 -229 414 -231 l 399 -303 q 374 -306 388 -304 q 349 -307 360 -307 z "},"ẽ":{"ha":585,"x_min":60,"x_max":525,"o":"m 297 -11 q 151 26 203 -11 q 80 134 100 63 q 60 310 60 206 l 60 493 q 81 671 60 600 q 153 778 101 742 q 297 814 206 814 q 447 772 399 814 q 510 652 494 731 q 525 464 525 574 l 525 399 l 208 399 l 208 238 q 217 158 208 189 q 247 113 226 128 q 299 99 267 99 q 349 115 332 99 q 373 160 367 131 q 379 231 379 190 l 379 279 l 524 279 l 524 249 q 472 58 524 128 q 297 -11 421 -11 m 208 479 l 379 479 l 379 551 q 374 635 379 601 q 351 687 368 669 q 296 704 333 704 q 241 688 260 704 q 215 631 222 671 q 208 522 208 592 l 208 479 m 399 972 q 330 990 360 972 q 274 1024 300 1007 q 217 1040 247 1040 q 181 1028 193 1040 q 169 983 169 1015 l 85 983 q 95 1059 85 1025 q 130 1113 106 1093 q 196 1133 154 1133 q 259 1117 231 1133 q 315 1083 288 1100 q 372 1067 343 1067 q 407 1079 396 1067 q 418 1125 418 1092 l 501 1125 q 493 1049 501 1083 q 463 993 485 1014 q 399 972 440 972 z "},"ə":{"ha":585,"x_min":60,"x_max":525,"o":"m 288 -12 q 139 29 188 -12 q 75 149 90 71 q 60 338 60 228 l 60 403 l 376 403 l 376 558 q 370 632 376 599 q 346 685 364 665 q 289 704 328 704 q 236 688 254 704 q 212 643 218 672 q 206 574 206 614 l 206 525 l 61 525 l 61 556 q 113 744 61 675 q 288 814 165 814 q 433 778 382 814 q 505 670 485 742 q 525 494 525 599 l 525 308 q 504 131 525 203 q 432 24 483 60 q 288 -12 381 -12 m 289 97 q 344 114 325 97 q 369 170 363 131 q 376 279 376 210 l 376 322 l 206 322 l 206 250 q 211 167 206 201 q 235 115 217 132 q 289 97 253 97 z "},"ʒ":{"ha":636,"x_min":42,"x_max":594,"o":"m 317 -272 q 164 -237 225 -272 q 72 -137 103 -203 q 42 17 42 -72 l 42 54 l 189 54 q 189 42 189 49 q 189 29 189 36 q 215 -98 189 -47 q 317 -149 240 -149 q 399 -123 371 -149 q 436 -50 426 -97 q 446 58 446 -3 q 432 192 446 138 q 381 276 418 247 q 275 304 344 304 l 135 304 l 135 400 l 392 740 l 447 692 l 86 692 l 86 803 l 535 803 l 535 722 l 276 367 l 232 404 l 317 404 q 483 359 422 404 q 569 235 543 314 q 594 58 594 157 q 566 -116 594 -42 q 476 -231 538 -190 q 317 -272 415 -272 z "},"ǯ":{"ha":636,"x_min":42,"x_max":594,"o":"m 317 -272 q 164 -237 225 -272 q 72 -137 103 -203 q 42 17 42 -72 l 42 54 l 189 54 q 189 42 189 49 q 189 29 189 36 q 215 -98 189 -47 q 317 -149 240 -149 q 399 -123 371 -149 q 436 -50 426 -97 q 446 58 446 -3 q 432 192 446 138 q 381 276 418 247 q 275 304 344 304 l 135 304 l 135 400 l 392 740 l 447 692 l 86 692 l 86 803 l 535 803 l 535 722 l 276 367 l 232 404 l 317 404 q 483 359 422 404 q 569 235 543 314 q 594 58 594 157 q 566 -116 594 -42 q 476 -231 538 -190 q 317 -272 415 -272 m 244 885 l 124 1125 l 238 1125 l 318 963 l 399 1125 l 513 1125 l 390 885 l 244 885 z "},"f":{"ha":399,"x_min":26,"x_max":393,"o":"m 122 0 l 122 693 l 26 693 l 26 803 l 122 803 l 122 844 q 134 973 122 919 q 183 1056 146 1026 q 296 1085 221 1085 q 345 1083 324 1085 q 393 1075 367 1081 l 393 967 q 365 972 381 969 q 338 974 350 974 q 283 945 294 974 q 271 869 271 917 l 271 803 l 393 803 l 393 693 l 271 693 l 271 0 l 122 0 z "},"ḟ":{"ha":399,"x_min":26,"x_max":393,"o":"m 122 0 l 122 693 l 26 693 l 26 803 l 122 803 l 122 844 q 134 973 122 919 q 183 1056 146 1026 q 296 1085 221 1085 q 345 1083 324 1085 q 393 1075 367 1081 l 393 967 q 365 972 381 969 q 338 974 350 974 q 283 945 294 974 q 271 869 271 917 l 271 803 l 393 803 l 393 693 l 271 693 l 271 0 l 122 0 m 197 1207 l 197 1372 l 347 1372 l 347 1207 l 197 1207 z "},"g":{"ha":604,"x_min":28,"x_max":621,"o":"m 283 -249 q 153 -233 211 -249 q 61 -185 94 -218 q 28 -97 28 -151 q 44 -29 28 -58 q 88 22 61 0 q 143 57 114 43 q 85 92 104 68 q 65 143 65 117 q 89 219 65 188 q 154 289 113 251 q 85 378 108 324 q 61 528 61 432 q 87 685 61 622 q 163 781 113 749 q 288 814 214 814 q 392 792 353 814 q 453 725 432 769 q 490 763 460 736 q 561 808 521 790 l 583 818 l 621 722 q 573 709 603 719 q 517 688 543 699 q 485 671 492 678 q 502 603 494 647 q 510 524 510 558 q 489 379 510 442 q 420 281 468 317 q 288 246 372 246 q 249 249 269 246 q 211 256 228 251 q 194 226 203 243 q 185 194 185 210 q 201 170 185 179 q 251 158 217 161 l 376 147 q 517 90 471 139 q 563 -49 563 42 q 532 -159 563 -114 q 440 -226 501 -204 q 283 -249 378 -249 m 294 -132 q 411 -113 374 -132 q 449 -53 449 -94 q 440 -11 449 -28 q 407 15 431 6 q 339 29 383 25 l 213 40 q 183 10 197 25 q 161 -23 169 -6 q 153 -60 153 -40 q 183 -114 153 -96 q 294 -132 214 -132 m 288 350 q 338 362 319 350 q 367 397 357 374 q 380 453 376 419 q 383 528 383 486 q 380 603 383 569 q 367 662 376 638 q 340 699 358 686 q 289 711 321 711 q 238 699 258 711 q 208 663 218 686 q 194 606 199 640 q 190 528 190 572 q 194 458 190 490 q 208 401 197 425 q 238 364 218 378 q 288 350 257 350 z "},"ǵ":{"ha":604,"x_min":28,"x_max":621,"o":"m 283 -249 q 153 -233 211 -249 q 61 -185 94 -218 q 28 -97 28 -151 q 44 -29 28 -58 q 88 22 61 0 q 143 57 114 43 q 85 92 104 68 q 65 143 65 117 q 89 219 65 188 q 154 289 113 251 q 85 378 108 324 q 61 528 61 432 q 87 685 61 622 q 163 781 113 749 q 288 814 214 814 q 392 792 353 814 q 453 725 432 769 q 490 763 460 736 q 561 808 521 790 l 583 818 l 621 722 q 573 709 603 719 q 517 688 543 699 q 485 671 492 678 q 502 603 494 647 q 510 524 510 558 q 489 379 510 442 q 420 281 468 317 q 288 246 372 246 q 249 249 269 246 q 211 256 228 251 q 194 226 203 243 q 185 194 185 210 q 201 170 185 179 q 251 158 217 161 l 376 147 q 517 90 471 139 q 563 -49 563 42 q 532 -159 563 -114 q 440 -226 501 -204 q 283 -249 378 -249 m 294 -132 q 411 -113 374 -132 q 449 -53 449 -94 q 440 -11 449 -28 q 407 15 431 6 q 339 29 383 25 l 213 40 q 183 10 197 25 q 161 -23 169 -6 q 153 -60 153 -40 q 183 -114 153 -96 q 294 -132 214 -132 m 288 350 q 338 362 319 350 q 367 397 357 374 q 380 453 376 419 q 383 528 383 486 q 380 603 383 569 q 367 662 376 638 q 340 699 358 686 q 289 711 321 711 q 238 699 258 711 q 208 663 218 686 q 194 606 199 640 q 190 528 190 572 q 194 458 190 490 q 208 401 197 425 q 238 364 218 378 q 288 350 257 350 m 264 869 l 346 1144 l 494 1144 l 339 869 l 264 869 z "},"ğ":{"ha":604,"x_min":28,"x_max":621,"o":"m 283 -249 q 153 -233 211 -249 q 61 -185 94 -218 q 28 -97 28 -151 q 44 -29 28 -58 q 88 22 61 0 q 143 57 114 43 q 85 92 104 68 q 65 143 65 117 q 89 219 65 188 q 154 289 113 251 q 85 378 108 324 q 61 528 61 432 q 87 685 61 622 q 163 781 113 749 q 288 814 214 814 q 392 792 353 814 q 453 725 432 769 q 490 763 460 736 q 561 808 521 790 l 583 818 l 621 722 q 573 709 603 719 q 517 688 543 699 q 485 671 492 678 q 502 603 494 647 q 510 524 510 558 q 489 379 510 442 q 420 281 468 317 q 288 246 372 246 q 249 249 269 246 q 211 256 228 251 q 194 226 203 243 q 185 194 185 210 q 201 170 185 179 q 251 158 217 161 l 376 147 q 517 90 471 139 q 563 -49 563 42 q 532 -159 563 -114 q 440 -226 501 -204 q 283 -249 378 -249 m 294 -132 q 411 -113 374 -132 q 449 -53 449 -94 q 440 -11 449 -28 q 407 15 431 6 q 339 29 383 25 l 213 40 q 183 10 197 25 q 161 -23 169 -6 q 153 -60 153 -40 q 183 -114 153 -96 q 294 -132 214 -132 m 288 350 q 338 362 319 350 q 367 397 357 374 q 380 453 376 419 q 383 528 383 486 q 380 603 383 569 q 367 662 376 638 q 340 699 358 686 q 289 711 321 711 q 238 699 258 711 q 208 663 218 686 q 194 606 199 640 q 190 528 190 572 q 194 458 190 490 q 208 401 197 425 q 238 364 218 378 q 288 350 257 350 m 303 890 q 162 944 203 890 q 121 1079 121 999 l 207 1079 q 230 1002 208 1029 q 303 975 251 975 q 377 1003 356 975 q 399 1079 399 1031 l 486 1079 q 445 944 486 999 q 303 890 404 890 z "},"ǧ":{"ha":604,"x_min":28,"x_max":621,"o":"m 283 -249 q 153 -233 211 -249 q 61 -185 94 -218 q 28 -97 28 -151 q 44 -29 28 -58 q 88 22 61 0 q 143 57 114 43 q 85 92 104 68 q 65 143 65 117 q 89 219 65 188 q 154 289 113 251 q 85 378 108 324 q 61 528 61 432 q 87 685 61 622 q 163 781 113 749 q 288 814 214 814 q 392 792 353 814 q 453 725 432 769 q 490 763 460 736 q 561 808 521 790 l 583 818 l 621 722 q 573 709 603 719 q 517 688 543 699 q 485 671 492 678 q 502 603 494 647 q 510 524 510 558 q 489 379 510 442 q 420 281 468 317 q 288 246 372 246 q 249 249 269 246 q 211 256 228 251 q 194 226 203 243 q 185 194 185 210 q 201 170 185 179 q 251 158 217 161 l 376 147 q 517 90 471 139 q 563 -49 563 42 q 532 -159 563 -114 q 440 -226 501 -204 q 283 -249 378 -249 m 294 -132 q 411 -113 374 -132 q 449 -53 449 -94 q 440 -11 449 -28 q 407 15 431 6 q 339 29 383 25 l 213 40 q 183 10 197 25 q 161 -23 169 -6 q 153 -60 153 -40 q 183 -114 153 -96 q 294 -132 214 -132 m 288 350 q 338 362 319 350 q 367 397 357 374 q 380 453 376 419 q 383 528 383 486 q 380 603 383 569 q 367 662 376 638 q 340 699 358 686 q 289 711 321 711 q 238 699 258 711 q 208 663 218 686 q 194 606 199 640 q 190 528 190 572 q 194 458 190 490 q 208 401 197 425 q 238 364 218 378 q 288 350 257 350 m 229 885 l 108 1125 l 222 1125 l 303 963 l 383 1125 l 497 1125 l 375 885 l 229 885 z "},"ĝ":{"ha":604,"x_min":28,"x_max":621,"o":"m 283 -249 q 153 -233 211 -249 q 61 -185 94 -218 q 28 -97 28 -151 q 44 -29 28 -58 q 88 22 61 0 q 143 57 114 43 q 85 92 104 68 q 65 143 65 117 q 89 219 65 188 q 154 289 113 251 q 85 378 108 324 q 61 528 61 432 q 87 685 61 622 q 163 781 113 749 q 288 814 214 814 q 392 792 353 814 q 453 725 432 769 q 490 763 460 736 q 561 808 521 790 l 583 818 l 621 722 q 573 709 603 719 q 517 688 543 699 q 485 671 492 678 q 502 603 494 647 q 510 524 510 558 q 489 379 510 442 q 420 281 468 317 q 288 246 372 246 q 249 249 269 246 q 211 256 228 251 q 194 226 203 243 q 185 194 185 210 q 201 170 185 179 q 251 158 217 161 l 376 147 q 517 90 471 139 q 563 -49 563 42 q 532 -159 563 -114 q 440 -226 501 -204 q 283 -249 378 -249 m 294 -132 q 411 -113 374 -132 q 449 -53 449 -94 q 440 -11 449 -28 q 407 15 431 6 q 339 29 383 25 l 213 40 q 183 10 197 25 q 161 -23 169 -6 q 153 -60 153 -40 q 183 -114 153 -96 q 294 -132 214 -132 m 288 350 q 338 362 319 350 q 367 397 357 374 q 380 453 376 419 q 383 528 383 486 q 380 603 383 569 q 367 662 376 638 q 340 699 358 686 q 289 711 321 711 q 238 699 258 711 q 208 663 218 686 q 194 606 199 640 q 190 528 190 572 q 194 458 190 490 q 208 401 197 425 q 238 364 218 378 q 288 350 257 350 m 107 882 l 226 1125 l 378 1125 l 499 882 l 386 882 l 301 1050 l 218 882 l 107 882 z "},"ģ":{"ha":604,"x_min":28,"x_max":621,"o":"m 283 -249 q 153 -233 211 -249 q 61 -185 94 -218 q 28 -97 28 -151 q 44 -29 28 -58 q 88 22 61 0 q 143 57 114 43 q 85 92 104 68 q 65 143 65 117 q 89 219 65 188 q 154 289 113 251 q 85 378 108 324 q 61 528 61 432 q 87 685 61 622 q 163 781 113 749 q 288 814 214 814 q 392 792 353 814 q 453 725 432 769 q 490 763 460 736 q 561 808 521 790 l 583 818 l 621 722 q 573 709 603 719 q 517 688 543 699 q 485 671 492 678 q 502 603 494 647 q 510 524 510 558 q 489 379 510 442 q 420 281 468 317 q 288 246 372 246 q 249 249 269 246 q 211 256 228 251 q 194 226 203 243 q 185 194 185 210 q 201 170 185 179 q 251 158 217 161 l 376 147 q 517 90 471 139 q 563 -49 563 42 q 532 -159 563 -114 q 440 -226 501 -204 q 283 -249 378 -249 m 294 -132 q 411 -113 374 -132 q 449 -53 449 -94 q 440 -11 449 -28 q 407 15 431 6 q 339 29 383 25 l 213 40 q 183 10 197 25 q 161 -23 169 -6 q 153 -60 153 -40 q 183 -114 153 -96 q 294 -132 214 -132 m 288 350 q 338 362 319 350 q 367 397 357 374 q 380 453 376 419 q 383 528 383 486 q 380 603 383 569 q 367 662 376 638 q 340 699 358 686 q 289 711 321 711 q 238 699 258 711 q 208 663 218 686 q 194 606 199 640 q 190 528 190 572 q 194 458 190 490 q 208 401 197 425 q 238 364 218 378 q 288 350 257 350 z "},"ġ":{"ha":604,"x_min":28,"x_max":621,"o":"m 283 -249 q 153 -233 211 -249 q 61 -185 94 -218 q 28 -97 28 -151 q 44 -29 28 -58 q 88 22 61 0 q 143 57 114 43 q 85 92 104 68 q 65 143 65 117 q 89 219 65 188 q 154 289 113 251 q 85 378 108 324 q 61 528 61 432 q 87 685 61 622 q 163 781 113 749 q 288 814 214 814 q 392 792 353 814 q 453 725 432 769 q 490 763 460 736 q 561 808 521 790 l 583 818 l 621 722 q 573 709 603 719 q 517 688 543 699 q 485 671 492 678 q 502 603 494 647 q 510 524 510 558 q 489 379 510 442 q 420 281 468 317 q 288 246 372 246 q 249 249 269 246 q 211 256 228 251 q 194 226 203 243 q 185 194 185 210 q 201 170 185 179 q 251 158 217 161 l 376 147 q 517 90 471 139 q 563 -49 563 42 q 532 -159 563 -114 q 440 -226 501 -204 q 283 -249 378 -249 m 294 -132 q 411 -113 374 -132 q 449 -53 449 -94 q 440 -11 449 -28 q 407 15 431 6 q 339 29 383 25 l 213 40 q 183 10 197 25 q 161 -23 169 -6 q 153 -60 153 -40 q 183 -114 153 -96 q 294 -132 214 -132 m 288 350 q 338 362 319 350 q 367 397 357 374 q 380 453 376 419 q 383 528 383 486 q 380 603 383 569 q 367 662 376 638 q 340 699 358 686 q 289 711 321 711 q 238 699 258 711 q 208 663 218 686 q 194 606 199 640 q 190 528 190 572 q 194 458 190 490 q 208 401 197 425 q 238 364 218 378 q 288 350 257 350 m 228 932 l 228 1097 l 378 1097 l 378 932 l 228 932 z "},"ǥ":{"ha":604,"x_min":-21,"x_max":621,"o":"m 283 -249 q 153 -233 211 -249 q 61 -185 94 -218 q 28 -97 28 -151 q 44 -29 28 -58 q 88 22 61 0 q 143 57 114 43 q 85 92 104 68 q 65 143 65 117 q 89 219 65 188 q 154 289 113 251 q 85 378 108 324 q 61 528 61 432 q 87 685 61 622 q 163 781 113 749 q 288 814 214 814 q 392 792 353 814 q 453 725 432 769 q 490 763 460 736 q 561 808 521 790 l 583 818 l 621 722 q 573 709 603 719 q 517 688 543 699 q 485 671 492 678 q 502 603 494 647 q 510 524 510 558 q 489 379 510 442 q 420 281 468 317 q 288 246 372 246 q 249 249 269 246 q 211 256 228 251 q 194 226 203 243 q 185 194 185 210 q 201 170 185 179 q 251 158 217 161 l 376 147 q 517 90 471 139 q 563 -49 563 42 q 532 -159 563 -114 q 440 -226 501 -204 q 283 -249 378 -249 m -21 -86 l -21 -15 l 611 -15 l 611 -86 l -21 -86 m 294 -132 q 411 -113 374 -132 q 449 -53 449 -94 q 440 -11 449 -28 q 407 15 431 6 q 339 29 383 25 l 213 40 q 183 10 197 25 q 161 -23 169 -6 q 153 -60 153 -40 q 183 -114 153 -96 q 294 -132 214 -132 m 288 350 q 338 362 319 350 q 367 397 357 374 q 380 453 376 419 q 383 528 383 486 q 380 603 383 569 q 367 662 376 638 q 340 699 358 686 q 289 711 321 711 q 238 699 258 711 q 208 663 218 686 q 194 606 199 640 q 190 528 190 572 q 194 458 190 490 q 208 401 197 425 q 238 364 218 378 q 288 350 257 350 z "},"h":{"ha":618,"x_min":79,"x_max":549,"o":"m 79 0 l 79 1125 l 228 1125 l 228 719 q 318 786 268 758 q 429 814 368 814 q 502 789 476 814 q 538 726 528 764 q 549 650 549 689 l 549 0 l 400 0 l 400 607 q 388 674 400 650 q 336 697 375 697 q 281 682 310 697 q 228 644 253 667 l 228 0 l 79 0 z "},"ħ":{"ha":618,"x_min":-8,"x_max":549,"o":"m 79 0 l 79 958 l -8 958 l -8 1042 l 79 1042 l 79 1125 l 228 1125 l 228 1042 l 397 1042 l 397 958 l 228 958 l 228 719 q 318 786 268 758 q 428 814 368 814 q 502 789 476 814 q 538 726 528 764 q 549 650 549 689 l 549 0 l 400 0 l 400 607 q 388 674 400 650 q 336 697 375 697 q 281 682 310 697 q 228 644 253 667 l 228 0 l 79 0 z "},"ȟ":{"ha":618,"x_min":79,"x_max":596,"o":"m 79 0 l 79 1125 l 228 1125 l 228 719 q 318 786 268 758 q 429 814 368 814 q 502 789 476 814 q 538 726 528 764 q 549 650 549 689 l 549 0 l 400 0 l 400 607 q 388 674 400 650 q 336 697 375 697 q 281 682 310 697 q 228 644 253 667 l 228 0 l 79 0 m 328 1129 l 207 1369 l 321 1369 l 401 1207 l 482 1369 l 596 1369 l 474 1129 l 328 1129 z "},"ĥ":{"ha":618,"x_min":-42,"x_max":549,"o":"m 79 0 l 79 1125 l 228 1125 l 228 719 q 318 786 268 758 q 429 814 368 814 q 502 789 476 814 q 538 726 528 764 q 549 650 549 689 l 549 0 l 400 0 l 400 607 q 388 674 400 650 q 336 697 375 697 q 281 682 310 697 q 228 644 253 667 l 228 0 l 79 0 m -42 1204 l 78 1447 l 229 1447 l 350 1204 l 238 1204 l 153 1372 l 69 1204 l -42 1204 z "},"i":{"ha":318,"x_min":85,"x_max":233,"o":"m 85 0 l 85 803 l 233 803 l 233 0 l 85 0 m 85 922 l 85 1078 l 233 1078 l 233 922 l 85 922 z "},"ı":{"ha":311,"x_min":85,"x_max":233,"o":"m 85 0 l 85 803 l 233 803 l 233 0 l 85 0 z "},"í":{"ha":311,"x_min":85,"x_max":351,"o":"m 85 0 l 85 803 l 233 803 l 233 0 l 85 0 m 121 869 l 203 1144 l 351 1144 l 196 869 l 121 869 z "},"ĭ":{"ha":311,"x_min":-22,"x_max":343,"o":"m 85 0 l 85 803 l 233 803 l 233 0 l 85 0 m 160 890 q 19 944 60 890 q -22 1079 -22 999 l 64 1079 q 87 1002 65 1029 q 160 975 108 975 q 234 1003 213 975 q 256 1079 256 1031 l 343 1079 q 302 944 343 999 q 160 890 261 890 z "},"î":{"ha":311,"x_min":-36,"x_max":356,"o":"m 85 0 l 85 803 l 233 803 l 233 0 l 85 0 m -36 882 l 83 1125 l 235 1125 l 356 882 l 243 882 l 158 1050 l 75 882 l -36 882 z "},"ȉ":{"ha":311,"x_min":-114,"x_max":294,"o":"m 85 0 l 85 803 l 233 803 l 233 0 l 85 0 m 42 889 l -114 1125 l 36 1125 l 117 889 l 42 889 m 219 889 l 117 1125 l 239 1125 l 294 889 l 219 889 z "},"ï":{"ha":311,"x_min":-35,"x_max":354,"o":"m 85 0 l 85 803 l 233 803 l 233 0 l 85 0 m 204 971 l 204 1125 l 354 1125 l 354 971 l 204 971 m -35 971 l -35 1125 l 115 1125 l 115 971 l -35 971 z "},"ị":{"ha":318,"x_min":85,"x_max":235,"o":"m 85 0 l 85 803 l 233 803 l 233 0 l 85 0 m 85 922 l 85 1078 l 233 1078 l 233 922 l 85 922 m 85 -244 l 85 -87 l 235 -87 l 235 -244 l 85 -244 z "},"ì":{"ha":311,"x_min":-29,"x_max":233,"o":"m 85 0 l 85 803 l 233 803 l 233 0 l 85 0 m 125 869 l -29 1144 l 119 1144 l 199 869 l 125 869 z "},"ỉ":{"ha":311,"x_min":49,"x_max":315,"o":"m 85 0 l 85 803 l 233 803 l 233 0 l 85 0 m 161 883 l 114 939 q 179 975 154 957 q 204 1019 204 993 q 180 1061 204 1049 q 119 1074 156 1074 q 85 1072 103 1074 q 49 1064 67 1069 l 49 1139 q 161 1153 103 1153 q 239 1140 204 1153 q 294 1101 274 1128 q 315 1032 315 1074 q 295 964 315 992 q 240 917 275 936 q 161 883 206 899 z "},"ȋ":{"ha":311,"x_min":-24,"x_max":343,"o":"m 85 0 l 85 803 l 233 803 l 233 0 l 85 0 m -24 918 q -8 1023 -22 976 q 47 1097 7 1069 q 160 1125 86 1125 q 273 1097 233 1125 q 328 1023 313 1069 q 343 918 343 976 l 256 918 q 234 1013 256 985 q 160 1040 213 1040 q 87 1012 108 1040 q 64 918 65 983 l -24 918 z "},"ĳ":{"ha":638,"x_min":85,"x_max":564,"o":"m 85 0 l 85 803 l 233 803 l 233 0 l 85 0 m 85 922 l 85 1078 l 233 1078 l 233 922 l 85 922 m 368 -203 q 328 -201 350 -203 q 292 -193 307 -199 l 292 -86 q 311 -89 299 -87 q 331 -90 324 -90 q 381 -78 363 -90 q 406 -43 399 -65 q 414 7 414 -21 l 414 803 l 563 803 l 563 -8 q 510 -153 563 -103 q 368 -203 458 -203 m 414 922 l 414 1078 l 564 1078 l 564 922 l 414 922 z "},"ī":{"ha":311,"x_min":26,"x_max":293,"o":"m 85 0 l 85 803 l 233 803 l 233 0 l 85 0 m 26 951 l 26 1042 l 293 1042 l 293 951 l 26 951 z "},"į":{"ha":318,"x_min":-31,"x_max":238,"o":"m 85 0 l 85 803 l 233 803 l 233 0 l 85 0 m 85 922 l 85 1078 l 233 1078 l 233 922 l 85 922 m 163 -321 q 90 -317 125 -321 q 28 -300 56 -312 q -15 -264 1 -287 q -31 -201 -31 -240 q -7 -114 -31 -156 q 52 -42 17 -72 q 124 0 88 -11 l 199 0 q 147 -52 174 -22 q 101 -115 119 -82 q 82 -179 82 -147 q 118 -234 82 -222 q 193 -246 154 -246 q 216 -245 204 -246 q 238 -243 228 -244 l 213 -317 q 188 -319 201 -318 q 163 -321 174 -321 z "},"ĩ":{"ha":311,"x_min":-49,"x_max":368,"o":"m 85 0 l 85 803 l 233 803 l 233 0 l 85 0 m 265 972 q 197 990 226 972 q 140 1024 167 1007 q 83 1040 114 1040 q 48 1028 60 1040 q 36 983 36 1015 l -49 983 q -38 1059 -49 1025 q -3 1113 -28 1093 q 63 1133 21 1133 q 126 1117 97 1133 q 182 1083 154 1100 q 239 1067 210 1067 q 274 1079 263 1067 q 285 1125 285 1092 l 368 1125 q 360 1049 368 1083 q 329 993 351 1014 q 265 972 307 972 z "},"j":{"ha":319,"x_min":-26,"x_max":246,"o":"m 50 -203 q 10 -201 32 -203 q -26 -193 -11 -199 l -26 -86 q -7 -89 -19 -87 q 13 -90 6 -90 q 63 -78 44 -90 q 88 -43 81 -65 q 96 7 96 -21 l 96 803 l 244 803 l 244 -8 q 192 -153 244 -103 q 50 -203 140 -203 m 96 922 l 96 1078 l 246 1078 l 246 922 l 96 922 z "},"ȷ":{"ha":319,"x_min":-26,"x_max":244,"o":"m 50 -203 q 10 -201 32 -203 q -26 -193 -11 -199 l -26 -86 q -7 -89 -19 -87 q 13 -90 6 -90 q 63 -78 44 -90 q 88 -43 81 -65 q 96 7 96 -21 l 96 803 l 244 803 l 244 -8 q 192 -153 244 -103 q 50 -203 140 -203 z "},"ĵ":{"ha":319,"x_min":-26,"x_max":367,"o":"m 50 -203 q 10 -201 32 -203 q -26 -193 -11 -199 l -26 -86 q -7 -89 -19 -87 q 13 -90 6 -90 q 63 -78 44 -90 q 88 -43 81 -65 q 96 7 96 -21 l 96 803 l 244 803 l 244 -8 q 192 -153 244 -103 q 50 -203 140 -203 m -25 882 l 94 1125 l 246 1125 l 367 882 l 254 882 l 169 1050 l 86 882 l -25 882 z "},"k":{"ha":596,"x_min":78,"x_max":599,"o":"m 78 1 l 78 1126 l 226 1126 l 226 456 l 443 803 l 599 803 l 410 489 l 593 0 l 444 0 l 294 411 l 226 308 l 226 1 l 78 1 z "},"ǩ":{"ha":596,"x_min":78,"x_max":599,"o":"m 78 1 l 78 1126 l 226 1126 l 226 456 l 443 803 l 599 803 l 410 489 l 593 0 l 444 0 l 294 411 l 226 308 l 226 1 l 78 1 m 321 1136 l 200 1376 l 314 1376 l 394 1214 l 475 1376 l 589 1376 l 467 1136 l 321 1136 z "},"ķ":{"ha":596,"x_min":78,"x_max":599,"o":"m 78 1 l 78 1126 l 226 1126 l 226 456 l 443 803 l 599 803 l 410 489 l 593 0 l 444 0 l 294 411 l 226 308 l 226 1 l 78 1 m 260 -399 l 222 -325 q 283 -301 265 -322 q 300 -239 300 -279 l 224 -239 l 224 -87 l 375 -87 l 374 -231 q 352 -350 372 -304 q 260 -399 332 -396 z "},"ĸ":{"ha":597,"x_min":82,"x_max":592,"o":"m 82 0 l 82 803 l 231 803 l 231 450 l 442 803 l 592 803 l 408 496 l 592 0 l 443 0 l 308 394 l 231 278 l 231 0 l 82 0 z "},"l":{"ha":318,"x_min":89,"x_max":238,"o":"m 89 0 l 89 1125 l 238 1125 l 238 0 l 89 0 z "},"ĺ":{"ha":318,"x_min":89,"x_max":356,"o":"m 89 0 l 89 1125 l 238 1125 l 238 0 l 89 0 m 125 1192 l 207 1467 l 356 1467 l 200 1192 l 125 1192 z "},"ľ":{"ha":429,"x_min":89,"x_max":457,"o":"m 89 0 l 89 1125 l 238 1125 l 238 0 l 89 0 m 326 783 l 303 847 q 362 891 340 860 q 383 965 383 922 l 304 965 l 304 1125 l 457 1125 l 457 968 q 425 851 457 894 q 326 783 393 807 z "},"ļ":{"ha":318,"x_min":88,"x_max":240,"o":"m 89 0 l 89 1125 l 238 1125 l 238 0 l 89 0 m 125 -399 l 88 -325 q 148 -301 131 -322 q 165 -239 165 -279 l 89 -239 l 89 -87 l 240 -87 l 239 -231 q 217 -350 238 -304 q 125 -399 197 -396 z "},"ŀ":{"ha":394,"x_min":89,"x_max":414,"o":"m 89 0 l 89 1125 l 238 1125 l 238 0 l 89 0 m 306 531 l 306 683 l 414 683 l 414 531 l 306 531 z "},"ǉ":{"ha":638,"x_min":89,"x_max":564,"o":"m 89 0 l 89 1125 l 238 1125 l 238 0 l 89 0 m 368 -203 q 328 -201 350 -203 q 292 -193 307 -199 l 292 -86 q 311 -89 299 -87 q 331 -90 324 -90 q 381 -78 363 -90 q 406 -43 399 -65 q 414 7 414 -21 l 414 803 l 563 803 l 563 -8 q 510 -153 563 -103 q 368 -203 458 -203 m 414 922 l 414 1078 l 564 1078 l 564 922 l 414 922 z "},"ł":{"ha":371,"x_min":24,"x_max":351,"o":"m 118 0 l 118 578 l 24 532 l 24 649 l 118 693 l 118 1125 l 267 1125 l 267 761 l 351 803 l 351 688 l 267 646 l 267 0 l 118 0 z "},"m":{"ha":944,"x_min":75,"x_max":874,"o":"m 75 0 l 75 803 l 213 803 l 213 726 q 301 794 253 772 q 401 817 350 817 q 481 794 446 817 q 532 715 517 772 q 626 792 575 768 q 732 817 676 817 q 803 798 771 817 q 854 738 835 779 q 874 631 874 697 l 874 0 l 738 0 l 738 621 q 719 699 738 679 q 668 719 700 719 q 604 702 638 719 q 543 654 571 685 q 543 643 543 649 q 543 631 543 638 l 543 0 l 407 0 l 407 621 q 388 699 407 679 q 338 719 369 719 q 274 702 307 719 q 213 654 242 685 l 213 0 l 75 0 z "},"ṁ":{"ha":944,"x_min":75,"x_max":874,"o":"m 75 0 l 75 803 l 213 803 l 213 726 q 301 794 253 772 q 401 817 350 817 q 481 794 446 817 q 532 715 517 772 q 626 792 575 768 q 732 817 676 817 q 803 798 771 817 q 854 738 835 779 q 874 631 874 697 l 874 0 l 738 0 l 738 621 q 719 699 738 679 q 668 719 700 719 q 604 702 638 719 q 543 654 571 685 q 543 643 543 649 q 543 631 543 638 l 543 0 l 407 0 l 407 621 q 388 699 407 679 q 338 719 369 719 q 274 702 307 719 q 213 654 242 685 l 213 0 l 75 0 m 397 932 l 397 1097 l 547 1097 l 547 932 l 397 932 z "},"n":{"ha":610,"x_min":75,"x_max":540,"o":"m 75 0 l 75 803 l 224 803 l 224 724 q 313 788 264 761 q 419 814 361 814 q 494 789 468 814 q 530 726 519 764 q 540 650 540 689 l 540 0 l 392 0 l 392 607 q 379 674 392 650 q 328 697 367 697 q 276 683 303 697 q 224 647 249 668 l 224 0 l 75 0 z "},"ń":{"ha":610,"x_min":75,"x_max":540,"o":"m 75 0 l 75 803 l 224 803 l 224 724 q 313 788 264 761 q 419 814 361 814 q 494 789 468 814 q 530 726 519 764 q 540 650 540 689 l 540 0 l 392 0 l 392 607 q 379 674 392 650 q 328 697 367 697 q 276 683 303 697 q 224 647 249 668 l 224 0 l 75 0 m 267 869 l 349 1144 l 497 1144 l 342 869 l 267 869 z "},"ŉ":{"ha":696,"x_min":14,"x_max":639,"o":"m 38 839 l 14 903 q 73 947 51 915 q 94 1021 94 978 l 15 1021 l 15 1181 l 168 1181 l 168 1024 q 136 906 168 950 q 38 839 104 863 m 174 0 l 174 803 l 322 803 l 322 724 q 411 788 363 761 q 518 814 460 814 q 592 789 567 814 q 628 726 618 764 q 639 650 639 689 l 639 0 l 490 0 l 490 607 q 478 674 490 650 q 426 697 465 697 q 374 683 401 697 q 322 647 347 668 l 322 0 l 174 0 z "},"ň":{"ha":610,"x_min":75,"x_max":540,"o":"m 75 0 l 75 803 l 224 803 l 224 724 q 313 788 264 761 q 419 814 361 814 q 494 789 468 814 q 530 726 519 764 q 540 650 540 689 l 540 0 l 392 0 l 392 607 q 379 674 392 650 q 328 697 367 697 q 276 683 303 697 q 224 647 249 668 l 224 0 l 75 0 m 232 885 l 111 1125 l 225 1125 l 306 963 l 386 1125 l 500 1125 l 378 885 l 232 885 z "},"ņ":{"ha":610,"x_min":75,"x_max":540,"o":"m 75 0 l 75 803 l 224 803 l 224 724 q 313 788 264 761 q 419 814 361 814 q 494 789 468 814 q 530 726 519 764 q 540 650 540 689 l 540 0 l 392 0 l 392 607 q 379 674 392 650 q 328 697 367 697 q 276 683 303 697 q 224 647 249 668 l 224 0 l 75 0 m 267 -399 l 229 -325 q 290 -301 272 -322 q 307 -239 307 -279 l 231 -239 l 231 -87 l 382 -87 l 381 -231 q 359 -350 379 -304 q 267 -399 339 -396 z "},"ŋ":{"ha":539,"x_min":61,"x_max":526,"o":"m 214 -256 l 214 -143 q 318 -128 283 -143 q 365 -83 353 -112 q 378 -7 378 -53 l 378 607 q 366 674 378 650 q 314 697 354 697 q 262 683 289 697 q 210 647 235 668 l 210 0 l 61 0 l 61 803 l 210 803 l 210 724 q 299 788 250 761 q 407 814 347 814 q 480 789 454 814 q 516 726 506 764 q 526 650 526 689 l 526 -8 q 492 -146 526 -90 q 398 -228 458 -201 q 258 -256 338 -256 l 214 -256 z "},"ǌ":{"ha":929,"x_min":75,"x_max":856,"o":"m 75 0 l 75 803 l 224 803 l 224 724 q 313 788 264 761 q 419 814 361 814 q 494 789 468 814 q 530 726 519 764 q 540 650 540 689 l 540 0 l 392 0 l 392 607 q 379 674 392 650 q 328 697 367 697 q 276 683 303 697 q 224 647 249 668 l 224 0 l 75 0 m 660 -203 q 620 -201 642 -203 q 583 -193 599 -199 l 583 -86 q 603 -89 590 -87 q 622 -90 615 -90 q 672 -78 654 -90 q 698 -43 690 -65 q 706 7 706 -21 l 706 803 l 854 803 l 854 -8 q 802 -153 854 -103 q 660 -203 750 -203 m 706 922 l 706 1078 l 856 1078 l 856 922 l 706 922 z "},"ñ":{"ha":610,"x_min":75,"x_max":540,"o":"m 75 0 l 75 803 l 224 803 l 224 724 q 313 788 264 761 q 419 814 361 814 q 494 789 468 814 q 530 726 519 764 q 540 650 540 689 l 540 0 l 392 0 l 392 607 q 379 674 392 650 q 328 697 367 697 q 276 683 303 697 q 224 647 249 668 l 224 0 l 75 0 m 411 972 q 342 990 372 972 q 286 1024 313 1007 q 229 1040 260 1040 q 194 1028 206 1040 q 182 983 182 1015 l 97 983 q 108 1059 97 1025 q 142 1113 118 1093 q 208 1133 167 1133 q 272 1117 243 1133 q 328 1083 300 1100 q 385 1067 356 1067 q 419 1079 408 1067 q 431 1125 431 1092 l 514 1125 q 506 1049 514 1083 q 475 993 497 1014 q 411 972 453 972 z "},"o":{"ha":590,"x_min":61,"x_max":529,"o":"m 296 -11 q 156 25 207 -11 q 83 128 104 61 q 61 285 61 194 l 61 518 q 83 675 61 608 q 156 778 104 742 q 296 814 207 814 q 435 778 385 814 q 508 675 486 742 q 529 518 529 608 l 529 285 q 508 128 529 194 q 435 25 486 61 q 296 -11 385 -11 m 296 99 q 356 124 339 99 q 377 190 374 149 q 381 275 381 231 l 381 526 q 377 613 381 572 q 356 678 374 653 q 296 704 339 704 q 235 678 253 704 q 213 613 217 653 q 210 526 210 572 l 210 275 q 213 190 210 231 q 235 124 217 149 q 296 99 253 99 z "},"ó":{"ha":590,"x_min":61,"x_max":529,"o":"m 296 -11 q 156 25 207 -11 q 83 128 104 61 q 61 285 61 194 l 61 518 q 83 675 61 608 q 156 778 104 742 q 296 814 207 814 q 435 778 385 814 q 508 675 486 742 q 529 518 529 608 l 529 285 q 508 128 529 194 q 435 25 486 61 q 296 -11 385 -11 m 296 99 q 356 124 339 99 q 377 190 374 149 q 381 275 381 231 l 381 526 q 377 613 381 572 q 356 678 374 653 q 296 704 339 704 q 235 678 253 704 q 213 613 217 653 q 210 526 210 572 l 210 275 q 213 190 210 231 q 235 124 217 149 q 296 99 253 99 m 257 869 l 339 1144 l 488 1144 l 332 869 l 257 869 z "},"ŏ":{"ha":590,"x_min":61,"x_max":529,"o":"m 296 -11 q 156 25 207 -11 q 83 128 104 61 q 61 285 61 194 l 61 518 q 83 675 61 608 q 156 778 104 742 q 296 814 207 814 q 435 778 385 814 q 508 675 486 742 q 529 518 529 608 l 529 285 q 508 128 529 194 q 435 25 486 61 q 296 -11 385 -11 m 296 99 q 356 124 339 99 q 377 190 374 149 q 381 275 381 231 l 381 526 q 377 613 381 572 q 356 678 374 653 q 296 704 339 704 q 235 678 253 704 q 213 613 217 653 q 210 526 210 572 l 210 275 q 213 190 210 231 q 235 124 217 149 q 296 99 253 99 m 296 890 q 155 944 196 890 q 114 1079 114 999 l 200 1079 q 223 1002 201 1029 q 296 975 244 975 q 370 1003 349 975 q 392 1079 392 1031 l 479 1079 q 438 944 479 999 q 296 890 397 890 z "},"ô":{"ha":590,"x_min":61,"x_max":529,"o":"m 296 -11 q 156 25 207 -11 q 83 128 104 61 q 61 285 61 194 l 61 518 q 83 675 61 608 q 156 778 104 742 q 296 814 207 814 q 435 778 385 814 q 508 675 486 742 q 529 518 529 608 l 529 285 q 508 128 529 194 q 435 25 486 61 q 296 -11 385 -11 m 296 99 q 356 124 339 99 q 377 190 374 149 q 381 275 381 231 l 381 526 q 377 613 381 572 q 356 678 374 653 q 296 704 339 704 q 235 678 253 704 q 213 613 217 653 q 210 526 210 572 l 210 275 q 213 190 210 231 q 235 124 217 149 q 296 99 253 99 m 100 882 l 219 1125 l 371 1125 l 492 882 l 379 882 l 294 1050 l 211 882 l 100 882 z "},"ố":{"ha":590,"x_min":61,"x_max":675,"o":"m 296 -11 q 156 25 207 -11 q 83 128 104 61 q 61 285 61 194 l 61 518 q 83 675 61 608 q 156 778 104 742 q 296 814 207 814 q 435 778 385 814 q 508 675 486 742 q 529 518 529 608 l 529 285 q 508 128 529 194 q 435 25 486 61 q 296 -11 385 -11 m 296 99 q 356 124 339 99 q 377 190 374 149 q 381 275 381 231 l 381 526 q 377 613 381 572 q 356 678 374 653 q 296 704 339 704 q 235 678 253 704 q 213 613 217 653 q 210 526 210 572 l 210 275 q 213 190 210 231 q 235 124 217 149 q 296 99 253 99 m 100 882 l 219 1097 l 371 1097 l 492 882 l 379 882 l 294 1022 l 211 882 l 100 882 m 472 1026 l 546 1186 l 675 1186 l 564 1026 l 472 1026 z "},"ộ":{"ha":590,"x_min":61,"x_max":529,"o":"m 296 -11 q 156 25 207 -11 q 83 128 104 61 q 61 285 61 194 l 61 518 q 83 675 61 608 q 156 778 104 742 q 296 814 207 814 q 435 778 385 814 q 508 675 486 742 q 529 518 529 608 l 529 285 q 508 128 529 194 q 435 25 486 61 q 296 -11 385 -11 m 296 99 q 356 124 339 99 q 377 190 374 149 q 381 275 381 231 l 381 526 q 377 613 381 572 q 356 678 374 653 q 296 704 339 704 q 235 678 253 704 q 213 613 217 653 q 210 526 210 572 l 210 275 q 213 190 210 231 q 235 124 217 149 q 296 99 253 99 m 221 -244 l 221 -87 l 371 -87 l 371 -244 l 221 -244 m 100 882 l 219 1097 l 371 1097 l 492 882 l 379 882 l 294 1022 l 211 882 l 100 882 z "},"ồ":{"ha":590,"x_min":61,"x_max":599,"o":"m 296 -11 q 156 25 207 -11 q 83 128 104 61 q 61 285 61 194 l 61 518 q 83 675 61 608 q 156 778 104 742 q 296 814 207 814 q 435 778 385 814 q 508 675 486 742 q 529 518 529 608 l 529 285 q 508 128 529 194 q 435 25 486 61 q 296 -11 385 -11 m 296 99 q 356 124 339 99 q 377 190 374 149 q 381 275 381 231 l 381 526 q 377 613 381 572 q 356 678 374 653 q 296 704 339 704 q 235 678 253 704 q 213 613 217 653 q 210 526 210 572 l 210 275 q 213 190 210 231 q 235 124 217 149 q 296 99 253 99 m 100 882 l 219 1097 l 371 1097 l 492 882 l 379 882 l 294 1022 l 211 882 l 100 882 m 507 1026 l 396 1186 l 525 1186 l 599 1026 l 507 1026 z "},"ổ":{"ha":590,"x_min":61,"x_max":636,"o":"m 296 -11 q 156 25 207 -11 q 83 128 104 61 q 61 285 61 194 l 61 518 q 83 675 61 608 q 156 778 104 742 q 296 814 207 814 q 435 778 385 814 q 508 675 486 742 q 529 518 529 608 l 529 285 q 508 128 529 194 q 435 25 486 61 q 296 -11 385 -11 m 296 99 q 356 124 339 99 q 377 190 374 149 q 381 275 381 231 l 381 526 q 377 613 381 572 q 356 678 374 653 q 296 704 339 704 q 235 678 253 704 q 213 613 217 653 q 210 526 210 572 l 210 275 q 213 190 210 231 q 235 124 217 149 q 296 99 253 99 m 506 996 l 458 1051 q 507 1088 489 1069 q 525 1132 525 1106 q 505 1174 525 1161 q 457 1186 485 1186 q 426 1184 443 1186 q 393 1176 408 1182 l 393 1251 q 443 1262 418 1258 q 494 1265 468 1265 q 595 1236 554 1265 q 636 1144 636 1207 q 599 1051 636 1083 q 506 996 563 1019 m 100 882 l 219 1097 l 371 1097 l 492 882 l 379 882 l 294 1022 l 211 882 l 100 882 z "},"ỗ":{"ha":590,"x_min":61,"x_max":529,"o":"m 296 -11 q 156 25 207 -11 q 83 128 104 61 q 61 285 61 194 l 61 518 q 83 675 61 608 q 156 778 104 742 q 296 814 207 814 q 435 778 385 814 q 508 675 486 742 q 529 518 529 608 l 529 285 q 508 128 529 194 q 435 25 486 61 q 296 -11 385 -11 m 296 99 q 356 124 339 99 q 377 190 374 149 q 381 275 381 231 l 381 526 q 377 613 381 572 q 356 678 374 653 q 296 704 339 704 q 235 678 253 704 q 213 613 217 653 q 210 526 210 572 l 210 275 q 213 190 210 231 q 235 124 217 149 q 296 99 253 99 z "},"ȍ":{"ha":590,"x_min":22,"x_max":529,"o":"m 296 -11 q 156 25 207 -11 q 83 128 104 61 q 61 285 61 194 l 61 518 q 83 675 61 608 q 156 778 104 742 q 296 814 207 814 q 435 778 385 814 q 508 675 486 742 q 529 518 529 608 l 529 285 q 508 128 529 194 q 435 25 486 61 q 296 -11 385 -11 m 296 99 q 356 124 339 99 q 377 190 374 149 q 381 275 381 231 l 381 526 q 377 613 381 572 q 356 678 374 653 q 296 704 339 704 q 235 678 253 704 q 213 613 217 653 q 210 526 210 572 l 210 275 q 213 190 210 231 q 235 124 217 149 q 296 99 253 99 m 178 889 l 22 1125 l 172 1125 l 253 889 l 178 889 m 356 889 l 253 1125 l 375 1125 l 431 889 l 356 889 z "},"ö":{"ha":590,"x_min":61,"x_max":529,"o":"m 296 -11 q 156 25 207 -11 q 83 128 104 61 q 61 285 61 194 l 61 518 q 83 675 61 608 q 156 778 104 742 q 296 814 207 814 q 435 778 385 814 q 508 675 486 742 q 529 518 529 608 l 529 285 q 508 128 529 194 q 435 25 486 61 q 296 -11 385 -11 m 296 99 q 356 124 339 99 q 377 190 374 149 q 381 275 381 231 l 381 526 q 377 613 381 572 q 356 678 374 653 q 296 704 339 704 q 235 678 253 704 q 213 613 217 653 q 210 526 210 572 l 210 275 q 213 190 210 231 q 235 124 217 149 q 296 99 253 99 m 340 971 l 340 1125 l 490 1125 l 490 971 l 340 971 m 101 971 l 101 1125 l 251 1125 l 251 971 l 101 971 z "},"ȫ":{"ha":590,"x_min":61,"x_max":529,"o":"m 296 -11 q 156 25 207 -11 q 83 128 104 61 q 61 285 61 194 l 61 518 q 83 675 61 608 q 156 778 104 742 q 296 814 207 814 q 435 778 385 814 q 508 675 486 742 q 529 518 529 608 l 529 285 q 508 128 529 194 q 435 25 486 61 q 296 -11 385 -11 m 296 99 q 356 124 339 99 q 377 190 374 149 q 381 275 381 231 l 381 526 q 377 613 381 572 q 356 678 374 653 q 296 704 339 704 q 235 678 253 704 q 213 613 217 653 q 210 526 210 572 l 210 275 q 213 190 210 231 q 235 124 217 149 q 296 99 253 99 m 340 971 l 340 1125 l 490 1125 l 490 971 l 340 971 m 101 971 l 101 1125 l 251 1125 l 251 971 l 101 971 m 163 1274 l 163 1364 l 429 1364 l 429 1274 l 163 1274 z "},"ȱ":{"ha":590,"x_min":61,"x_max":529,"o":"m 296 -11 q 156 25 207 -11 q 83 128 104 61 q 61 285 61 194 l 61 518 q 83 675 61 608 q 156 778 104 742 q 296 814 207 814 q 435 778 385 814 q 508 675 486 742 q 529 518 529 608 l 529 285 q 508 128 529 194 q 435 25 486 61 q 296 -11 385 -11 m 296 99 q 356 124 339 99 q 377 190 374 149 q 381 275 381 231 l 381 526 q 377 613 381 572 q 356 678 374 653 q 296 704 339 704 q 235 678 253 704 q 213 613 217 653 q 210 526 210 572 l 210 275 q 213 190 210 231 q 235 124 217 149 q 296 99 253 99 m 221 932 l 221 1097 l 371 1097 l 371 932 l 221 932 m 163 1246 l 163 1336 l 429 1336 l 429 1246 l 163 1246 z "},"ọ":{"ha":590,"x_min":61,"x_max":529,"o":"m 296 -11 q 156 25 207 -11 q 83 128 104 61 q 61 285 61 194 l 61 518 q 83 675 61 608 q 156 778 104 742 q 296 814 207 814 q 435 778 385 814 q 508 675 486 742 q 529 518 529 608 l 529 285 q 508 128 529 194 q 435 25 486 61 q 296 -11 385 -11 m 296 99 q 356 124 339 99 q 377 190 374 149 q 381 275 381 231 l 381 526 q 377 613 381 572 q 356 678 374 653 q 296 704 339 704 q 235 678 253 704 q 213 613 217 653 q 210 526 210 572 l 210 275 q 213 190 210 231 q 235 124 217 149 q 296 99 253 99 m 221 -244 l 221 -87 l 371 -87 l 371 -244 l 221 -244 z "},"ò":{"ha":590,"x_min":61,"x_max":529,"o":"m 296 -11 q 156 25 207 -11 q 83 128 104 61 q 61 285 61 194 l 61 518 q 83 675 61 608 q 156 778 104 742 q 296 814 207 814 q 435 778 385 814 q 508 675 486 742 q 529 518 529 608 l 529 285 q 508 128 529 194 q 435 25 486 61 q 296 -11 385 -11 m 296 99 q 356 124 339 99 q 377 190 374 149 q 381 275 381 231 l 381 526 q 377 613 381 572 q 356 678 374 653 q 296 704 339 704 q 235 678 253 704 q 213 613 217 653 q 210 526 210 572 l 210 275 q 213 190 210 231 q 235 124 217 149 q 296 99 253 99 m 261 869 l 107 1144 l 256 1144 l 335 869 l 261 869 z "},"ỏ":{"ha":590,"x_min":61,"x_max":529,"o":"m 296 -11 q 156 25 207 -11 q 83 128 104 61 q 61 285 61 194 l 61 518 q 83 675 61 608 q 156 778 104 742 q 296 814 207 814 q 435 778 385 814 q 508 675 486 742 q 529 518 529 608 l 529 285 q 508 128 529 194 q 435 25 486 61 q 296 -11 385 -11 m 296 99 q 356 124 339 99 q 377 190 374 149 q 381 275 381 231 l 381 526 q 377 613 381 572 q 356 678 374 653 q 296 704 339 704 q 235 678 253 704 q 213 613 217 653 q 210 526 210 572 l 210 275 q 213 190 210 231 q 235 124 217 149 q 296 99 253 99 m 297 883 l 250 939 q 315 975 290 957 q 340 1019 340 993 q 316 1061 340 1049 q 256 1074 292 1074 q 221 1072 239 1074 q 185 1064 203 1069 l 185 1139 q 297 1153 239 1153 q 375 1140 340 1153 q 431 1101 410 1128 q 451 1032 451 1074 q 431 964 451 992 q 376 917 411 936 q 297 883 342 899 z "},"ơ":{"ha":590,"x_min":61,"x_max":529,"o":"m 296 -11 q 156 25 207 -11 q 83 128 104 61 q 61 285 61 194 l 61 518 q 83 675 61 608 q 156 778 104 742 q 296 814 207 814 q 435 778 385 814 q 508 675 486 742 q 529 518 529 608 l 529 285 q 508 128 529 194 q 435 25 486 61 q 296 -11 385 -11 m 296 99 q 356 124 339 99 q 377 190 374 149 q 381 275 381 231 l 381 526 q 377 613 381 572 q 356 678 374 653 q 296 704 339 704 q 235 678 253 704 q 213 613 217 653 q 210 526 210 572 l 210 275 q 213 190 210 231 q 235 124 217 149 q 296 99 253 99 m 325 725 l 325 803 l 339 803 q 397 828 381 803 q 414 906 414 854 l 529 906 q 481 770 529 815 q 342 725 432 725 l 325 725 z "},"ớ":{"ha":590,"x_min":61,"x_max":529,"o":"m 296 -11 q 156 25 207 -11 q 83 128 104 61 q 61 285 61 194 l 61 518 q 83 675 61 608 q 156 778 104 742 q 296 814 207 814 q 435 778 385 814 q 508 675 486 742 q 529 518 529 608 l 529 285 q 508 128 529 194 q 435 25 486 61 q 296 -11 385 -11 m 296 99 q 356 124 339 99 q 377 190 374 149 q 381 275 381 231 l 381 526 q 377 613 381 572 q 356 678 374 653 q 296 704 339 704 q 235 678 253 704 q 213 613 217 653 q 210 526 210 572 l 210 275 q 213 190 210 231 q 235 124 217 149 q 296 99 253 99 m 325 725 l 325 803 l 339 803 q 397 828 381 803 q 414 906 414 854 l 529 906 q 481 770 529 815 q 342 725 432 725 l 325 725 m 256 869 l 338 1144 l 486 1144 l 331 869 l 256 869 z "},"ợ":{"ha":590,"x_min":61,"x_max":529,"o":"m 296 -11 q 156 25 207 -11 q 83 128 104 61 q 61 285 61 194 l 61 518 q 83 675 61 608 q 156 778 104 742 q 296 814 207 814 q 435 778 385 814 q 508 675 486 742 q 529 518 529 608 l 529 285 q 508 128 529 194 q 435 25 486 61 q 296 -11 385 -11 m 296 99 q 356 124 339 99 q 377 190 374 149 q 381 275 381 231 l 381 526 q 377 613 381 572 q 356 678 374 653 q 296 704 339 704 q 235 678 253 704 q 213 613 217 653 q 210 526 210 572 l 210 275 q 213 190 210 231 q 235 124 217 149 q 296 99 253 99 m 325 725 l 325 803 l 339 803 q 397 828 381 803 q 414 906 414 854 l 529 906 q 481 770 529 815 q 342 725 432 725 l 325 725 m 219 -244 l 219 -87 l 369 -87 l 369 -244 l 219 -244 z "},"ờ":{"ha":590,"x_min":61,"x_max":529,"o":"m 296 -11 q 156 25 207 -11 q 83 128 104 61 q 61 285 61 194 l 61 518 q 83 675 61 608 q 156 778 104 742 q 296 814 207 814 q 435 778 385 814 q 508 675 486 742 q 529 518 529 608 l 529 285 q 508 128 529 194 q 435 25 486 61 q 296 -11 385 -11 m 296 99 q 356 124 339 99 q 377 190 374 149 q 381 275 381 231 l 381 526 q 377 613 381 572 q 356 678 374 653 q 296 704 339 704 q 235 678 253 704 q 213 613 217 653 q 210 526 210 572 l 210 275 q 213 190 210 231 q 235 124 217 149 q 296 99 253 99 m 325 725 l 325 803 l 339 803 q 397 828 381 803 q 414 906 414 854 l 529 906 q 481 770 529 815 q 342 725 432 725 l 325 725 m 260 869 l 106 1144 l 254 1144 l 333 869 l 260 869 z "},"ở":{"ha":590,"x_min":61,"x_max":529,"o":"m 296 -11 q 156 25 207 -11 q 83 128 104 61 q 61 285 61 194 l 61 518 q 83 675 61 608 q 156 778 104 742 q 296 814 207 814 q 435 778 385 814 q 508 675 486 742 q 529 518 529 608 l 529 285 q 508 128 529 194 q 435 25 486 61 q 296 -11 385 -11 m 296 99 q 356 124 339 99 q 377 190 374 149 q 381 275 381 231 l 381 526 q 377 613 381 572 q 356 678 374 653 q 296 704 339 704 q 235 678 253 704 q 213 613 217 653 q 210 526 210 572 l 210 275 q 213 190 210 231 q 235 124 217 149 q 296 99 253 99 m 325 725 l 325 803 l 339 803 q 397 828 381 803 q 414 906 414 854 l 529 906 q 481 770 529 815 q 342 725 432 725 l 325 725 m 296 883 l 249 939 q 314 975 289 957 q 339 1019 339 993 q 315 1061 339 1049 q 254 1074 290 1074 q 219 1072 238 1074 q 183 1064 201 1069 l 183 1139 q 296 1153 238 1153 q 374 1140 339 1153 q 429 1101 408 1128 q 450 1032 450 1074 q 430 964 450 992 q 375 917 410 936 q 296 883 340 899 z "},"ỡ":{"ha":590,"x_min":61,"x_max":529,"o":"m 296 -11 q 156 25 207 -11 q 83 128 104 61 q 61 285 61 194 l 61 518 q 83 675 61 608 q 156 778 104 742 q 296 814 207 814 q 435 778 385 814 q 508 675 486 742 q 529 518 529 608 l 529 285 q 508 128 529 194 q 435 25 486 61 q 296 -11 385 -11 m 296 99 q 356 124 339 99 q 377 190 374 149 q 381 275 381 231 l 381 526 q 377 613 381 572 q 356 678 374 653 q 296 704 339 704 q 235 678 253 704 q 213 613 217 653 q 210 526 210 572 l 210 275 q 213 190 210 231 q 235 124 217 149 q 296 99 253 99 m 325 725 l 325 803 l 339 803 q 397 828 381 803 q 414 906 414 854 l 529 906 q 481 770 529 815 q 342 725 432 725 l 325 725 m 400 972 q 331 990 361 972 q 275 1024 301 1007 q 218 1040 249 1040 q 183 1028 194 1040 q 171 983 171 1015 l 86 983 q 97 1059 86 1025 q 131 1113 107 1093 q 197 1133 156 1133 q 260 1117 232 1133 q 317 1083 289 1100 q 374 1067 344 1067 q 408 1079 397 1067 q 419 1125 419 1092 l 503 1125 q 494 1049 503 1083 q 464 993 486 1014 q 400 972 442 972 z "},"ő":{"ha":590,"x_min":61,"x_max":582,"o":"m 296 -11 q 156 25 207 -11 q 83 128 104 61 q 61 285 61 194 l 61 518 q 83 675 61 608 q 156 778 104 742 q 296 814 207 814 q 435 778 385 814 q 508 675 486 742 q 529 518 529 608 l 529 285 q 508 128 529 194 q 435 25 486 61 q 296 -11 385 -11 m 296 99 q 356 124 339 99 q 377 190 374 149 q 381 275 381 231 l 381 526 q 377 613 381 572 q 356 678 374 653 q 296 704 339 704 q 235 678 253 704 q 213 613 217 653 q 210 526 210 572 l 210 275 q 213 190 210 231 q 235 124 217 149 q 296 99 253 99 m 351 889 l 432 1126 l 582 1126 l 428 889 l 351 889 m 176 889 l 231 1126 l 353 1126 l 251 889 l 176 889 z "},"ȏ":{"ha":590,"x_min":61,"x_max":529,"o":"m 296 -11 q 156 25 207 -11 q 83 128 104 61 q 61 285 61 194 l 61 518 q 83 675 61 608 q 156 778 104 742 q 296 814 207 814 q 435 778 385 814 q 508 675 486 742 q 529 518 529 608 l 529 285 q 508 128 529 194 q 435 25 486 61 q 296 -11 385 -11 m 296 99 q 356 124 339 99 q 377 190 374 149 q 381 275 381 231 l 381 526 q 377 613 381 572 q 356 678 374 653 q 296 704 339 704 q 235 678 253 704 q 213 613 217 653 q 210 526 210 572 l 210 275 q 213 190 210 231 q 235 124 217 149 q 296 99 253 99 m 113 918 q 128 1023 114 976 q 183 1097 143 1069 q 296 1125 222 1125 q 409 1097 369 1125 q 464 1023 449 1069 q 479 918 479 976 l 392 918 q 370 1013 392 985 q 296 1040 349 1040 q 223 1012 244 1040 q 200 918 201 983 l 113 918 z "},"ō":{"ha":590,"x_min":61,"x_max":529,"o":"m 296 -11 q 156 25 207 -11 q 83 128 104 61 q 61 285 61 194 l 61 518 q 83 675 61 608 q 156 778 104 742 q 296 814 207 814 q 435 778 385 814 q 508 675 486 742 q 529 518 529 608 l 529 285 q 508 128 529 194 q 435 25 486 61 q 296 -11 385 -11 m 296 99 q 356 124 339 99 q 377 190 374 149 q 381 275 381 231 l 381 526 q 377 613 381 572 q 356 678 374 653 q 296 704 339 704 q 235 678 253 704 q 213 613 217 653 q 210 526 210 572 l 210 275 q 213 190 210 231 q 235 124 217 149 q 296 99 253 99 m 163 951 l 163 1042 l 429 1042 l 429 951 l 163 951 z "},"ǫ":{"ha":590,"x_min":61,"x_max":529,"o":"m 296 -11 q 156 25 207 -11 q 83 128 104 61 q 61 285 61 194 l 61 518 q 83 675 61 608 q 156 778 104 742 q 296 814 207 814 q 435 778 385 814 q 508 675 486 742 q 529 518 529 608 l 529 285 q 508 128 529 194 q 435 25 486 61 q 296 -11 385 -11 m 296 99 q 356 124 339 99 q 377 190 374 149 q 381 275 381 231 l 381 526 q 377 613 381 572 q 356 678 374 653 q 296 704 339 704 q 235 678 253 704 q 213 613 217 653 q 210 526 210 572 l 210 275 q 213 190 210 231 q 235 124 217 149 q 296 99 253 99 m 368 -310 q 296 -306 331 -310 q 234 -289 261 -301 q 191 -253 207 -276 q 175 -190 175 -229 q 199 -103 175 -144 q 258 -31 222 -61 q 329 11 293 0 l 404 11 q 352 -41 379 -11 q 306 -103 325 -71 q 288 -168 288 -136 q 324 -223 288 -211 q 399 -235 360 -235 q 422 -234 410 -235 q 443 -232 433 -233 l 418 -306 q 393 -308 407 -307 q 368 -310 379 -310 z "},"ø":{"ha":589,"x_min":61,"x_max":529,"o":"m 133 -132 l 89 -117 l 458 928 l 510 911 l 133 -132 m 296 -11 q 156 25 207 -11 q 83 128 104 61 q 61 285 61 194 l 61 518 q 83 675 61 608 q 156 778 104 742 q 296 814 207 814 q 435 778 385 814 q 508 675 486 742 q 529 518 529 608 l 529 285 q 508 128 529 194 q 435 25 486 61 q 296 -11 385 -11 m 296 99 q 356 124 339 99 q 377 190 374 149 q 381 275 381 231 l 381 526 q 377 613 381 572 q 356 678 374 653 q 296 704 339 704 q 235 678 253 704 q 213 613 217 653 q 210 526 210 572 l 210 275 q 213 190 210 231 q 235 124 217 149 q 296 99 253 99 z "},"ǿ":{"ha":589,"x_min":61,"x_max":529,"o":"m 133 -132 l 89 -117 l 458 928 l 510 911 l 133 -132 m 296 -11 q 156 25 207 -11 q 83 128 104 61 q 61 285 61 194 l 61 518 q 83 675 61 608 q 156 778 104 742 q 296 814 207 814 q 435 778 385 814 q 508 675 486 742 q 529 518 529 608 l 529 285 q 508 128 529 194 q 435 25 486 61 q 296 -11 385 -11 m 296 99 q 356 124 339 99 q 377 190 374 149 q 381 275 381 231 l 381 526 q 377 613 381 572 q 356 678 374 653 q 296 704 339 704 q 235 678 253 704 q 213 613 217 653 q 210 526 210 572 l 210 275 q 213 190 210 231 q 235 124 217 149 q 296 99 253 99 m 256 869 l 338 1144 l 486 1144 l 331 869 l 256 869 z "},"õ":{"ha":590,"x_min":61,"x_max":529,"o":"m 296 -11 q 156 25 207 -11 q 83 128 104 61 q 61 285 61 194 l 61 518 q 83 675 61 608 q 156 778 104 742 q 296 814 207 814 q 435 778 385 814 q 508 675 486 742 q 529 518 529 608 l 529 285 q 508 128 529 194 q 435 25 486 61 q 296 -11 385 -11 m 296 99 q 356 124 339 99 q 377 190 374 149 q 381 275 381 231 l 381 526 q 377 613 381 572 q 356 678 374 653 q 296 704 339 704 q 235 678 253 704 q 213 613 217 653 q 210 526 210 572 l 210 275 q 213 190 210 231 q 235 124 217 149 q 296 99 253 99 m 401 972 q 333 990 363 972 q 276 1024 303 1007 q 219 1040 250 1040 q 184 1028 196 1040 q 172 983 172 1015 l 88 983 q 98 1059 88 1025 q 133 1113 108 1093 q 199 1133 157 1133 q 262 1117 233 1133 q 318 1083 290 1100 q 375 1067 346 1067 q 410 1079 399 1067 q 421 1125 421 1092 l 504 1125 q 496 1049 504 1083 q 465 993 488 1014 q 401 972 443 972 z "},"ȭ":{"ha":590,"x_min":61,"x_max":529,"o":"m 296 -11 q 156 25 207 -11 q 83 128 104 61 q 61 285 61 194 l 61 518 q 83 675 61 608 q 156 778 104 742 q 296 814 207 814 q 435 778 385 814 q 508 675 486 742 q 529 518 529 608 l 529 285 q 508 128 529 194 q 435 25 486 61 q 296 -11 385 -11 m 296 99 q 356 124 339 99 q 377 190 374 149 q 381 275 381 231 l 381 526 q 377 613 381 572 q 356 678 374 653 q 296 704 339 704 q 235 678 253 704 q 213 613 217 653 q 210 526 210 572 l 210 275 q 213 190 210 231 q 235 124 217 149 q 296 99 253 99 m 401 972 q 333 990 363 972 q 276 1024 303 1007 q 219 1040 250 1040 q 184 1028 196 1040 q 172 983 172 1015 l 88 983 q 98 1059 88 1025 q 133 1113 108 1093 q 199 1133 157 1133 q 262 1117 233 1133 q 318 1083 290 1100 q 375 1067 346 1067 q 410 1079 399 1067 q 421 1125 421 1092 l 504 1125 q 496 1049 504 1083 q 465 993 488 1014 q 401 972 443 972 m 163 1282 l 163 1372 l 429 1372 l 429 1282 l 163 1282 z "},"œ":{"ha":951,"x_min":79,"x_max":872,"o":"m 314 -11 q 174 24 225 -11 q 101 126 122 60 q 79 282 79 192 l 79 521 q 100 676 79 611 q 171 778 121 742 q 307 814 221 814 q 384 802 351 814 q 440 769 417 790 q 476 719 463 747 q 517 771 492 750 q 579 803 543 792 q 658 814 615 814 q 794 774 749 814 q 856 658 840 735 q 872 472 872 582 l 872 404 l 550 404 l 550 354 q 555 235 550 290 q 581 145 560 179 q 646 111 601 111 q 706 141 688 111 q 724 225 724 171 l 724 279 l 872 279 l 872 226 q 821 46 872 103 q 663 -11 769 -11 q 546 15 592 -11 q 476 86 500 42 q 417 16 457 43 q 314 -11 378 -11 m 314 111 q 375 135 357 111 q 397 199 393 160 q 401 282 401 238 l 401 521 q 397 605 401 565 q 375 669 393 644 q 314 693 357 693 q 254 669 272 693 q 232 605 236 644 q 228 521 228 565 l 228 282 q 232 199 228 238 q 254 135 236 160 q 314 111 272 111 m 550 479 l 724 479 l 724 522 q 719 603 724 564 q 697 668 715 643 q 638 693 679 693 q 580 669 599 693 q 556 606 561 644 q 550 522 550 567 l 550 479 z "},"p":{"ha":619,"x_min":75,"x_max":560,"o":"m 75 -264 l 75 803 l 224 803 l 224 739 q 288 792 250 769 q 376 814 325 814 q 476 781 439 814 q 531 699 513 749 q 554 599 549 650 q 560 513 560 549 l 560 318 q 543 158 560 233 q 483 35 526 82 q 360 -11 439 -11 q 283 10 317 -11 q 224 60 250 32 l 224 -264 l 75 -264 m 331 106 q 386 134 369 106 q 407 211 403 163 q 411 318 411 260 l 411 513 q 406 605 411 563 q 382 672 400 647 q 325 697 364 697 q 269 685 296 697 q 224 656 243 672 l 224 142 q 271 116 244 126 q 331 106 297 106 z "},"ṗ":{"ha":619,"x_min":75,"x_max":560,"o":"m 75 -264 l 75 803 l 224 803 l 224 739 q 288 792 250 769 q 376 814 325 814 q 476 781 439 814 q 531 699 513 749 q 554 599 549 650 q 560 513 560 549 l 560 318 q 543 158 560 233 q 483 35 526 82 q 360 -11 439 -11 q 283 10 317 -11 q 224 60 250 32 l 224 -264 l 75 -264 m 331 106 q 386 134 369 106 q 407 211 403 163 q 411 318 411 260 l 411 513 q 406 605 411 563 q 382 672 400 647 q 325 697 364 697 q 269 685 296 697 q 224 656 243 672 l 224 142 q 271 116 244 126 q 331 106 297 106 m 235 932 l 235 1097 l 385 1097 l 385 932 l 235 932 z "},"þ":{"ha":621,"x_min":76,"x_max":561,"o":"m 76 -264 l 76 1125 l 225 1125 l 225 739 q 289 792 251 769 q 378 814 326 814 q 477 781 440 814 q 532 699 514 749 q 556 599 550 650 q 561 513 561 549 l 561 318 q 544 158 561 233 q 484 35 528 82 q 361 -11 440 -11 q 285 10 318 -11 q 225 60 251 32 l 225 -264 l 76 -264 m 332 106 q 387 134 369 106 q 408 211 404 163 q 413 318 413 260 l 413 513 q 407 605 413 563 q 383 672 401 647 q 325 697 364 697 q 270 685 296 697 q 225 656 244 672 l 225 142 q 272 116 246 126 q 332 106 299 106 z "},"q":{"ha":615,"x_min":61,"x_max":540,"o":"m 392 -264 l 392 51 q 334 6 365 24 q 263 -11 303 -11 q 111 63 161 -11 q 61 315 61 138 l 61 471 q 76 641 61 563 q 134 767 92 719 q 258 814 176 814 q 332 796 299 814 q 392 751 365 778 l 392 803 l 540 803 l 540 -264 l 392 -264 m 300 106 q 345 113 321 106 q 392 136 369 121 l 392 663 q 349 687 372 676 q 297 697 325 697 q 228 648 246 697 q 210 529 210 599 l 210 303 q 216 202 210 247 q 242 131 222 157 q 300 106 261 106 z "},"r":{"ha":446,"x_min":79,"x_max":429,"o":"m 79 0 l 79 803 l 228 803 l 228 689 q 317 788 272 763 q 406 813 361 813 q 416 813 411 813 q 429 811 421 813 l 429 647 q 391 659 413 654 q 347 664 369 664 q 284 648 313 664 q 228 586 256 632 l 228 0 l 79 0 z "},"ŕ":{"ha":446,"x_min":79,"x_max":447,"o":"m 79 0 l 79 803 l 228 803 l 228 689 q 317 788 272 763 q 406 813 361 813 q 416 813 411 813 q 429 811 421 813 l 429 647 q 391 659 413 654 q 347 664 369 664 q 284 648 313 664 q 228 586 256 632 l 228 0 l 79 0 m 217 869 l 299 1144 l 447 1144 l 292 869 l 217 869 z "},"ř":{"ha":446,"x_min":61,"x_max":450,"o":"m 79 0 l 79 803 l 228 803 l 228 689 q 317 788 272 763 q 406 813 361 813 q 416 813 411 813 q 429 811 421 813 l 429 647 q 391 659 413 654 q 347 664 369 664 q 284 648 313 664 q 228 586 256 632 l 228 0 l 79 0 m 182 885 l 61 1125 l 175 1125 l 256 963 l 336 1125 l 450 1125 l 328 885 l 182 885 z "},"ŗ":{"ha":446,"x_min":78,"x_max":429,"o":"m 79 0 l 79 803 l 228 803 l 228 689 q 317 788 272 763 q 406 813 361 813 q 416 813 411 813 q 429 811 421 813 l 429 647 q 391 659 413 654 q 347 664 369 664 q 284 648 313 664 q 228 586 256 632 l 228 0 l 79 0 m 115 -399 l 78 -325 q 138 -301 121 -322 q 156 -239 156 -279 l 79 -239 l 79 -87 l 231 -87 l 229 -231 q 208 -350 228 -304 q 115 -399 188 -396 z "},"ȑ":{"ha":446,"x_min":-18,"x_max":429,"o":"m 79 0 l 79 803 l 228 803 l 228 689 q 317 788 272 763 q 406 813 361 813 q 416 813 411 813 q 429 811 421 813 l 429 647 q 391 659 413 654 q 347 664 369 664 q 284 648 313 664 q 228 586 256 632 l 228 0 l 79 0 m 138 889 l -18 1125 l 132 1125 l 213 889 l 138 889 m 315 889 l 213 1125 l 335 1125 l 390 889 l 315 889 z "},"ȓ":{"ha":446,"x_min":72,"x_max":439,"o":"m 79 0 l 79 803 l 228 803 l 228 689 q 317 788 272 763 q 406 813 361 813 q 416 813 411 813 q 429 811 421 813 l 429 647 q 391 659 413 654 q 347 664 369 664 q 284 648 313 664 q 228 586 256 632 l 228 0 l 79 0 m 72 918 q 88 1023 74 976 q 142 1097 103 1069 q 256 1125 182 1125 q 369 1097 329 1125 q 424 1023 408 1069 q 439 918 439 976 l 351 918 q 330 1013 351 985 q 256 1040 308 1040 q 183 1012 204 1040 q 160 918 161 983 l 72 918 z "},"s":{"ha":519,"x_min":35,"x_max":483,"o":"m 261 -11 q 103 51 163 -11 q 35 214 43 113 l 158 251 q 196 137 169 175 q 274 99 222 99 q 335 122 314 99 q 356 183 356 144 q 340 246 356 218 q 290 303 325 274 l 153 421 q 83 501 111 457 q 54 617 54 546 q 80 724 54 681 q 152 791 106 768 q 261 814 199 814 q 408 752 357 814 q 465 603 458 690 l 365 565 q 349 638 360 607 q 318 687 338 669 q 267 704 299 704 q 209 680 231 704 q 188 622 188 656 q 197 581 188 601 q 228 542 206 561 l 369 411 q 424 354 399 385 q 467 285 450 324 q 483 194 483 246 q 456 81 483 126 q 378 12 428 35 q 261 -11 328 -11 z "},"ś":{"ha":519,"x_min":35,"x_max":483,"o":"m 261 -11 q 103 51 163 -11 q 35 214 43 113 l 158 251 q 196 137 169 175 q 274 99 222 99 q 335 122 314 99 q 356 183 356 144 q 340 246 356 218 q 290 303 325 274 l 153 421 q 83 501 111 457 q 54 617 54 546 q 80 724 54 681 q 152 791 106 768 q 261 814 199 814 q 408 752 357 814 q 465 603 458 690 l 365 565 q 349 638 360 607 q 318 687 338 669 q 267 704 299 704 q 209 680 231 704 q 188 622 188 656 q 197 581 188 601 q 228 542 206 561 l 369 411 q 424 354 399 385 q 467 285 450 324 q 483 194 483 246 q 456 81 483 126 q 378 12 428 35 q 261 -11 328 -11 m 221 869 l 303 1144 l 451 1144 l 296 869 l 221 869 z "},"š":{"ha":519,"x_min":35,"x_max":483,"o":"m 261 -11 q 103 51 163 -11 q 35 214 43 113 l 158 251 q 196 137 169 175 q 274 99 222 99 q 335 122 314 99 q 356 183 356 144 q 340 246 356 218 q 290 303 325 274 l 153 421 q 83 501 111 457 q 54 617 54 546 q 80 724 54 681 q 152 791 106 768 q 261 814 199 814 q 408 752 357 814 q 465 603 458 690 l 365 565 q 349 638 360 607 q 318 687 338 669 q 267 704 299 704 q 209 680 231 704 q 188 622 188 656 q 197 581 188 601 q 228 542 206 561 l 369 411 q 424 354 399 385 q 467 285 450 324 q 483 194 483 246 q 456 81 483 126 q 378 12 428 35 q 261 -11 328 -11 m 186 885 l 65 1125 l 179 1125 l 260 963 l 340 1125 l 454 1125 l 332 885 l 186 885 z "}}}
